<svg viewBox="0 0 952.5 400" xmlns="http://www.w3.org/2000/svg"><g><g><g><g><g><line x1="58" y1="376.2055250771217" x2="53" y2="376.2055250771217" style="visibility: inherit;" fill="rgb(0, 0, 0)" stroke="rgb(204, 204, 204)" stroke-width="1px"></line><line x1="58" y1="335.4186190992636" x2="53" y2="335.4186190992636" style="visibility: inherit;" fill="rgb(0, 0, 0)" stroke="rgb(204, 204, 204)" stroke-width="1px"></line><line x1="58" y1="294.63171312140554" x2="53" y2="294.63171312140554" style="visibility: inherit;" fill="rgb(0, 0, 0)" stroke="rgb(204, 204, 204)" stroke-width="1px"></line><line x1="58" y1="253.84480714354743" x2="53" y2="253.84480714354743" style="visibility: inherit;" fill="rgb(0, 0, 0)" stroke="rgb(204, 204, 204)" stroke-width="1px"></line><line x1="58" y1="213.05790116568937" x2="53" y2="213.05790116568937" style="visibility: inherit;" fill="rgb(0, 0, 0)" stroke="rgb(204, 204, 204)" stroke-width="1px"></line><line x1="58" y1="172.2709951878313" x2="53" y2="172.2709951878313" style="visibility: inherit;" fill="rgb(0, 0, 0)" stroke="rgb(204, 204, 204)" stroke-width="1px"></line><line x1="58" y1="131.48408920997318" x2="53" y2="131.48408920997318" style="visibility: inherit;" fill="rgb(0, 0, 0)" stroke="rgb(204, 204, 204)" stroke-width="1px"></line><line x1="58" y1="90.6971832321151" x2="53" y2="90.6971832321151" style="visibility: inherit;" fill="rgb(0, 0, 0)" stroke="rgb(204, 204, 204)" stroke-width="1px"></line><line x1="58" y1="49.91027725425698" x2="53" y2="49.91027725425698" style="visibility: inherit;" fill="rgb(0, 0, 0)" stroke="rgb(204, 204, 204)" stroke-width="1px"></line><line x1="58" y1="9.123371276398927" x2="53" y2="9.123371276398927" style="visibility: inherit;" fill="rgb(0, 0, 0)" stroke="rgb(204, 204, 204)" stroke-width="1px"></line></g><g transform="translate(48, 0)"><text x="0" y="376.2055250771217" dx="0em" dy="0.3em" style="text-anchor: end; visibility: hidden; font-family: &quot;Helvetica Neue&quot;, sans-serif; font-size: 12px; font-weight: 200;" fill="rgb(50, 49, 63)" stroke="none" stroke-width="1px">0.00</text><text x="0" y="335.4186190992636" dx="0em" dy="0.3em" style="text-anchor: end; visibility: inherit; font-family: &quot;Helvetica Neue&quot;, sans-serif; font-size: 12px; font-weight: 200;" fill="rgb(50, 49, 63)" stroke="none" stroke-width="1px">5.00</text><text x="0" y="294.63171312140554" dx="0em" dy="0.3em" style="text-anchor: end; visibility: inherit; font-family: &quot;Helvetica Neue&quot;, sans-serif; font-size: 12px; font-weight: 200;" fill="rgb(50, 49, 63)" stroke="none" stroke-width="1px">10.0</text><text x="0" y="253.84480714354743" dx="0em" dy="0.3em" style="text-anchor: end; visibility: inherit; font-family: &quot;Helvetica Neue&quot;, sans-serif; font-size: 12px; font-weight: 200;" fill="rgb(50, 49, 63)" stroke="none" stroke-width="1px">15.0</text><text x="0" y="213.05790116568937" dx="0em" dy="0.3em" style="text-anchor: end; visibility: inherit; font-family: &quot;Helvetica Neue&quot;, sans-serif; font-size: 12px; font-weight: 200;" fill="rgb(50, 49, 63)" stroke="none" stroke-width="1px">20.0</text><text x="0" y="172.2709951878313" dx="0em" dy="0.3em" style="text-anchor: end; visibility: inherit; font-family: &quot;Helvetica Neue&quot;, sans-serif; font-size: 12px; font-weight: 200;" fill="rgb(50, 49, 63)" stroke="none" stroke-width="1px">25.0</text><text x="0" y="131.48408920997318" dx="0em" dy="0.3em" style="text-anchor: end; visibility: inherit; font-family: &quot;Helvetica Neue&quot;, sans-serif; font-size: 12px; font-weight: 200;" fill="rgb(50, 49, 63)" stroke="none" stroke-width="1px">30.0</text><text x="0" y="90.6971832321151" dx="0em" dy="0.3em" style="text-anchor: end; visibility: inherit; font-family: &quot;Helvetica Neue&quot;, sans-serif; font-size: 12px; font-weight: 200;" fill="rgb(50, 49, 63)" stroke="none" stroke-width="1px">35.0</text><text x="0" y="49.91027725425698" dx="0em" dy="0.3em" style="text-anchor: end; visibility: inherit; font-family: &quot;Helvetica Neue&quot;, sans-serif; font-size: 12px; font-weight: 200;" fill="rgb(50, 49, 63)" stroke="none" stroke-width="1px">40.0</text><text x="0" y="9.123371276398927" dx="0em" dy="0.3em" style="text-anchor: end; visibility: inherit; font-family: &quot;Helvetica Neue&quot;, sans-serif; font-size: 12px; font-weight: 200;" fill="rgb(50, 49, 63)" stroke="none" stroke-width="1px">45.0</text></g><line x1="58" y1="0" x2="58" y2="378" fill="rgb(0, 0, 0)" stroke="rgb(204, 204, 204)" stroke-width="1px"></line></g></g><g transform="translate(58, 0)" clip-path="url(#clip_0)"><clipPath id="clip_0"><rect width="894" height="378"></rect></clipPath><g><g><g><line x1="26.70794997861603" y1="0" x2="26.70794997861603" y2="378" fill="rgb(0, 0, 0)" stroke="rgb(60, 60, 60)" stroke-width="1px" opacity="0.25"></line><line x1="84.94106879398466" y1="0" x2="84.94106879398466" y2="378" fill="rgb(0, 0, 0)" stroke="rgb(60, 60, 60)" stroke-width="1px" opacity="0.25"></line><line x1="143.17418760935328" y1="0" x2="143.17418760935328" y2="378" fill="rgb(0, 0, 0)" stroke="rgb(60, 60, 60)" stroke-width="1px" opacity="0.25"></line><line x1="201.4073064247219" y1="0" x2="201.4073064247219" y2="378" fill="rgb(0, 0, 0)" stroke="rgb(60, 60, 60)" stroke-width="1px" opacity="0.25"></line><line x1="259.64042524009056" y1="0" x2="259.64042524009056" y2="378" fill="rgb(0, 0, 0)" stroke="rgb(60, 60, 60)" stroke-width="1px" opacity="0.25"></line><line x1="317.87354405545915" y1="0" x2="317.87354405545915" y2="378" fill="rgb(0, 0, 0)" stroke="rgb(60, 60, 60)" stroke-width="1px" opacity="0.25"></line><line x1="376.1066628708278" y1="0" x2="376.1066628708278" y2="378" fill="rgb(0, 0, 0)" stroke="rgb(60, 60, 60)" stroke-width="1px" opacity="0.25"></line><line x1="434.3397816861964" y1="0" x2="434.3397816861964" y2="378" fill="rgb(0, 0, 0)" stroke="rgb(60, 60, 60)" stroke-width="1px" opacity="0.25"></line><line x1="492.5729005015651" y1="0" x2="492.5729005015651" y2="378" fill="rgb(0, 0, 0)" stroke="rgb(60, 60, 60)" stroke-width="1px" opacity="0.25"></line><line x1="550.8060193169338" y1="0" x2="550.8060193169338" y2="378" fill="rgb(0, 0, 0)" stroke="rgb(60, 60, 60)" stroke-width="1px" opacity="0.25"></line><line x1="609.0391381323024" y1="0" x2="609.0391381323024" y2="378" fill="rgb(0, 0, 0)" stroke="rgb(60, 60, 60)" stroke-width="1px" opacity="0.25"></line><line x1="667.2722569476709" y1="0" x2="667.2722569476709" y2="378" fill="rgb(0, 0, 0)" stroke="rgb(60, 60, 60)" stroke-width="1px" opacity="0.25"></line><line x1="725.5053757630395" y1="0" x2="725.5053757630395" y2="378" fill="rgb(0, 0, 0)" stroke="rgb(60, 60, 60)" stroke-width="1px" opacity="0.25"></line><line x1="783.7384945784082" y1="0" x2="783.7384945784082" y2="378" fill="rgb(0, 0, 0)" stroke="rgb(60, 60, 60)" stroke-width="1px" opacity="0.25"></line><line x1="841.9716133937769" y1="0" x2="841.9716133937769" y2="378" fill="rgb(0, 0, 0)" stroke="rgb(60, 60, 60)" stroke-width="1px" opacity="0.25"></line></g><g><line x1="0" y1="376.2055250771217" x2="894.5" y2="376.2055250771217" fill="rgb(0, 0, 0)" stroke="rgb(60, 60, 60)" stroke-width="1px" opacity="0.25"></line><line x1="0" y1="335.4186190992636" x2="894.5" y2="335.4186190992636" fill="rgb(0, 0, 0)" stroke="rgb(60, 60, 60)" stroke-width="1px" opacity="0.25"></line><line x1="0" y1="294.63171312140554" x2="894.5" y2="294.63171312140554" fill="rgb(0, 0, 0)" stroke="rgb(60, 60, 60)" stroke-width="1px" opacity="0.25"></line><line x1="0" y1="253.84480714354743" x2="894.5" y2="253.84480714354743" fill="rgb(0, 0, 0)" stroke="rgb(60, 60, 60)" stroke-width="1px" opacity="0.25"></line><line x1="0" y1="213.05790116568937" x2="894.5" y2="213.05790116568937" fill="rgb(0, 0, 0)" stroke="rgb(60, 60, 60)" stroke-width="1px" opacity="0.25"></line><line x1="0" y1="172.2709951878313" x2="894.5" y2="172.2709951878313" fill="rgb(0, 0, 0)" stroke="rgb(60, 60, 60)" stroke-width="1px" opacity="0.25"></line><line x1="0" y1="131.48408920997318" x2="894.5" y2="131.48408920997318" fill="rgb(0, 0, 0)" stroke="rgb(60, 60, 60)" stroke-width="1px" opacity="0.25"></line><line x1="0" y1="90.6971832321151" x2="894.5" y2="90.6971832321151" fill="rgb(0, 0, 0)" stroke="rgb(60, 60, 60)" stroke-width="1px" opacity="0.25"></line><line x1="0" y1="49.91027725425698" x2="894.5" y2="49.91027725425698" fill="rgb(0, 0, 0)" stroke="rgb(60, 60, 60)" stroke-width="1px" opacity="0.25"></line><line x1="0" y1="9.123371276398927" x2="894.5" y2="9.123371276398927" fill="rgb(0, 0, 0)" stroke="rgb(60, 60, 60)" stroke-width="1px" opacity="0.25"></line></g></g></g><g><g><line x1="0" y1="376.2055250771217" x2="894.5" y2="376.2055250771217" fill="rgb(0, 0, 0)" stroke="rgb(153, 153, 153)" stroke-width="1.5px"></line></g></g><g><g><line x1="26.70794997861603" y1="0" x2="26.70794997861603" y2="378" fill="rgb(0, 0, 0)" stroke="rgb(153, 153, 153)" stroke-width="1.5px"></line></g></g><g><g><g><g><g><path stroke="rgb(255, 112, 67)" stroke-width="2px" d="M26.70794997861603,12.287847922521962L28.16377794900025,14.44558531290346L29.61960591938446,8.45565776686766L31.075433889768675,24.47488299103543L32.531261860152895,36.09051285463687L33.98708983053711,51.19840256912323L35.44291780092132,55.272060554761026L36.89874577130554,49.14044240571269L38.354573741689755,57.05135998711819L39.81040171207397,70.51562285933431L41.26622968245819,68.6180206169729L42.7220576528424,81.36996205179565L44.177885623226615,84.45167255501644L45.633713593610835,76.8663006971197L47.08954156399505,74.74988968642498L48.54536953437926,74.75550610919015L50.00119750476348,72.52206244895336L51.457025475147695,71.02030891812745L52.91285344553191,87.94090030819535L54.36868141591613,105.15328363609615L55.82450938630034,100.70353966699037L57.280337356684555,132.32347564418734L58.736165327068775,126.89960880382023L60.19199329745299,165.11342847067644L61.64782126783721,164.67975715251407L63.10364923822143,158.2272612868761L64.55947720860563,136.38332492886983L66.01530517898985,146.53091773724495L67.47113314937407,122.03673454061857L68.92696111975829,164.7563644655568L70.3827890901425,159.01957481087376L71.83861706052672,178.9828244027963L73.29444503091092,171.77497535944875L74.75027300129514,208.96185412522107L76.20610097167936,220.81692756828042L77.66192894206358,205.92455922047515L79.11775691244779,194.69769412000505L80.57358488283201,185.550301956966L82.02941285321623,201.01843617764783L83.48524082360044,215.55850367843541L84.94106879398466,208.66821546844136L86.39689676436888,217.3444830536629L87.85272473475308,178.83574939359602L89.3085527051373,189.62403225795032L90.76438067552152,227.50876041887207L92.22020864590573,223.1414014543406L93.67603661628995,194.43461803478334L95.13186458667417,189.7306643313346L96.58769255705838,206.82841011712378L98.0435205274426,219.8320146181773L99.49934849782682,210.25262971729967L100.95517646821102,184.34627463087253L102.41100443859524,206.97849772962968L103.86683240897946,220.86526438632822L105.32266037936367,223.70317828111936L106.77848834974789,247.44552484283867L108.23431632013211,247.51554119311575L109.69014429051633,208.32004458667095L111.14597226090054,229.55169760133435L112.60180023128476,232.86730906591376L114.05762820166898,263.8376222922685L115.51345617205317,281.04233728389966L116.96928414243739,291.39273677348905L118.42511211282161,274.383610016577L119.88094008320583,288.6224954525436L121.33676805359003,274.41851940933515L122.79259602397426,269.29600830829486L124.24842399435848,285.6525743401456L125.7042519647427,281.70453042556295L127.16007993512692,286.21841666572755L128.61590790551114,281.70117836084137L130.07173587589534,248.21261329645267L131.52756384627958,257.7416991076168L132.98339181666378,259.3747031776773L134.439219787048,276.63712006731L135.8950477574322,298.3359981150876L137.3508757278164,296.4086192082263L138.80670369820064,287.3863484223872L140.26253166858484,294.31500810547266L141.71835963896908,296.035880835562L143.17418760935328,302.9572194025711L144.6300155797375,297.70535341572605L146.08584355012172,304.4033822665539L147.54167152050593,310.0220942191214L148.99749949089016,312.1607818067234L150.45332746127437,318.6962591569929L151.90915543165855,302.2053751374711L153.36498340204278,291.65969872487506L154.820811372427,287.339801412061L156.27663934281122,304.2472104742996L157.73246731319543,301.3396126141801L159.18829528357966,287.8441699094051L160.64412325396387,301.6809753541265L162.09995122434808,305.8886005631065L163.5557791947323,298.72948133116466L165.01160716511652,301.0335615764429L166.46743513550075,292.5536548270486L167.92326310588496,303.52090131830533L169.37909107626916,294.79713060114665L170.83491904665337,304.2397673657484L172.29074701703757,289.32795984966594L173.7465749874218,293.7321114045048L175.20240295780602,284.84807869424026L176.65823092819022,274.7175986147984L178.11405889857446,294.74052964391143L179.56988686895866,311.86232763197404L181.0257148393429,317.3672605305273L182.4815428097271,322.59291997143146L183.93737078011134,314.4928163006497L185.39319875049554,327.53563765889345L186.84902672087975,301.8597269861973L188.30485469126398,312.1621280251119L189.76068266164816,316.3879601695148L191.2165106320324,316.2122840618346L192.6723386024166,297.7414717832703L194.1281665728008,300.33215112621474L195.58399454318504,303.05554147989506L197.03982251356925,299.52454848256303L198.49565048395348,312.4743482348444L199.9514784543377,319.0093842188369L201.4073064247219,309.58507592970693L202.86313439510613,312.6645684818522L204.31896236549034,324.1831937915873L205.77479033587457,329.11812463674306L207.23061830625875,317.28713314623064L208.68644627664298,310.83428529026094L210.1422742470272,307.2378676541895L211.5981022174114,318.3049780934613L213.05393018779563,312.4038480066152L214.50975815817984,317.5803348798813L215.96558612856407,312.0803118248367L217.42141409894828,304.4275610341035L218.87724206933248,318.6762111638074L220.33307003971672,329.28020282119223L221.78889801010092,318.59765608024173L223.24472598048516,326.4912292030127L224.70055395086936,312.3151044573945L226.15638192125357,315.9329322563664L227.6122098916378,311.9007064112503L229.068037862022,325.46657253090456L230.52386583240624,324.9925624638381L231.97969380279045,317.77216992184674L233.43552177317468,328.7070273279634L234.89134974355883,307.4459115184343L236.34717771394307,308.8516076498866L237.80300568432727,315.38805551624256L239.25883365471148,321.0432090386224L240.71466162509572,333.34829860993904L242.17048959547992,335.45427255397385L243.62631756586416,342.0345498564407L245.08214553624836,344.85156979293873L246.53797350663257,335.82061373063215L247.9938014770168,340.5947609309195L249.449629447401,342.67582633400775L250.90545741778524,329.40980442749645L252.36128538816945,322.8741326471866L253.81711335855366,331.98847718936935L255.2729413289379,321.47458565897006L256.7287692993221,323.4479045404534L258.18459726970633,330.41940323367686L259.64042524009056,324.39502852947106L261.09625321047474,329.5241449087575L262.552081180859,334.8274965250021L264.0079091512432,302.3229563122665L265.4637371216274,313.71152441192646L266.9195650920116,328.0272912855293L268.37539306239586,333.8170610357746L269.83122103278004,322.95364955305354L271.28704900316427,320.76677333298954L272.74287697354845,323.9799677642574L274.1987049439327,318.915426640121L275.65453291431686,328.7795689717754L277.1103608847011,331.0720488895764L278.56618885508533,335.1195285248566L280.0220168254695,337.40064329930635L281.47784479585374,342.1284214098513L282.933672766238,341.92810260712434L284.3895007366222,337.8501450415374L285.8453287070064,338.7206206734687L287.3011566773906,340.6585373704165L288.75698464777486,340.0447066405597L290.21281261815903,307.80457569101964L291.66864058854327,311.18197342430466L293.1244685589275,326.3834396831843L294.5802965293117,326.7936519389563L296.0361244996959,330.2277406476653L297.49195247008015,337.2834805006266L298.9477804404644,343.6218359882799L300.40360841084856,330.29593033945883L301.8594363812328,330.32198812747015L303.31526435161703,335.00159205589506L304.7710923220012,336.2763695649112L306.22692029238544,342.3395966501167L307.6827482627697,335.92998503194724L309.13857623315386,337.71122687167775L310.59440420353803,322.8362816804072L312.05023217392227,330.7757037910587L313.5060601443065,332.3701255901341L314.9618881146907,336.98451666982226L316.4177160850749,340.5407790463269L317.87354405545915,343.70271987819547L319.3293720258434,349.1571184337312L320.78519999622756,350.54322546869344L322.2410279666118,349.1316666511285L323.69685593699603,321.6614084892937L325.1526839073802,329.4121749053516L326.60851187776444,329.44171716900047L328.0643398481487,329.1886168740324L329.52016781853285,337.4755249745288L330.9759957889171,309.7436238104475L332.4318237593013,326.0501140395088L333.88765172968556,288.35616247126313L335.34347970006974,308.5228744451605L336.79930767045397,301.71964165377324L338.2551356408382,320.9879543739012L339.7109636112224,325.53880067587426L341.1667915816066,314.78009233596237L342.62261955199085,328.17510533815744L344.07844752237503,334.31365898045175L345.53427549275926,332.94811704477513L346.99010346314344,341.441857575306L348.4459314335277,345.74618611283637L349.90175940391185,341.9536166907987L351.3575873742961,343.5891387396143L352.8134153446803,338.54465975894897L354.26924331506456,333.42315000868587L355.72507128544873,339.9774407844634L357.18089925583297,330.8250616193967L358.6367272262172,322.75394135682416L360.0925551966014,330.14882220656966L361.5483831669856,326.3960971055396L363.00421113736985,327.768079224238L364.460039107754,337.7070192212361L365.91586707813826,316.43021720813005L367.3716950485225,307.2505221205793L368.82752301890673,315.2165006941057L370.2833509892909,321.07473365116897L371.73917895967514,327.64032064795583L373.1950069300594,338.4483465764278L374.65083490044356,327.95679033424676L376.1066628708278,336.5084216825842L377.562490841212,327.36193895069533L379.0183188115962,338.82243519171976L380.47414678198044,342.29038421850953L381.92997475236467,333.7802305251142L383.38580272274885,336.84498579307166L384.841630693133,336.83519372507055L386.29745866351726,342.36083878501154L387.7532866339015,345.25863785066787L389.20911460428573,341.80420225016223L390.6649425746699,340.08572061230467L392.12077054505414,337.0065079598961L393.5765985154384,343.606140376328L395.03242648582255,335.33442314792023L396.4882544562068,330.7001336175827L397.944082426591,326.40483505838165L399.3999103969752,335.4344226192915L400.85573836735944,341.5262029557607L402.31156633774367,342.19172712156956L403.7673943081279,321.1039673106779L405.2232222785121,328.8696898828048L406.6790502488963,334.23293965177015L408.13487821928055,332.00575728082083L409.59070618966473,338.7421376910741L411.04653416004896,344.2812950719607L412.5023621304332,343.1389046020924L413.9581901008174,338.0206404532616L415.4140180712016,329.8263372347064L416.86984604158584,336.9673703802047L418.3256740119701,342.94082931673734L419.7815019823542,336.33345734266953L421.23732995273843,342.13528207584716L422.69315792312267,344.1878153160537L424.14898589350685,344.0322958833715L425.6048138638911,344.2171840506898L427.0606418342753,347.2130385840004L428.51646980465955,341.3055526030453L429.9722977750437,344.9671426757458L431.42812574542796,332.8982211653889L432.8839537158122,340.2810451067164L434.3397816861964,337.9199158248096L435.7956096565806,342.1443030396789L437.25143762696484,346.7465326449846L438.7072655973491,346.5866924857072L440.16309356773326,347.3765737700043L441.6189215381175,348.40905633381647L443.0747495085017,347.2300246427151L444.5305774788859,346.4390415126727L445.98640544927014,334.1422305470352L447.4422334196543,341.8035998343738L448.89806139003855,346.2215430419675L450.3538893604227,349.4091642203759L451.80971733080696,352.3063894474824L453.2655453011912,348.44536484052287L454.7213732715754,346.4351264197621L456.1772012419596,346.7476337364026L457.63302921234384,336.0801100607959L459.088857182728,340.25491720786323L460.54468515311225,344.33462597002176L462.0005131234965,344.2484139270244L463.4563410938807,335.2825148772978L464.9121690642649,338.13544111983555L466.36799703464914,341.454430673517L467.82382500503337,310.22630037414825L469.27965297541755,323.4568225667898L470.7354809458018,333.79986025022635L472.191308916186,336.75298841089534L473.6471368865702,342.1240020034187L475.10296485695443,345.6135554050044L476.55879282733866,345.2115353248756L478.0146207977229,348.3972797446402L479.4704487681071,350.5011581799628L480.9262767384913,349.86829535401245L482.38210470887554,352.63672516568596L483.8379326792597,343.26043964584517L485.29376064964396,342.3253819028695L486.7495886200282,342.4518218967182L488.2054165904124,338.90052126858035L489.6612445607966,344.10962113642574L491.11707253118084,342.4068153032682L492.5729005015651,334.82693264905276L494.02872847194925,343.03633768207715L495.4845564423335,342.73884385167844L496.9403844127177,346.8240311911937L498.3962123831019,347.04102333168356L499.85204035348613,349.8992062551932L501.30786832387037,343.29017837510696L502.7636962942546,329.0416953169842L504.2195242646388,339.414179921271L505.675352235023,344.3429636798892L507.13118020540725,348.9852587028299L508.5870081757914,349.2739461675795L510.04283614617566,350.4700239964932L511.4986641165599,350.24105596537134L512.9544920869441,351.1285841674546L514.4103200573284,343.59235623269245L515.8661480277125,343.8114251442627L517.3219759980967,337.2044649037384L518.777803968481,337.6130065462383L520.2336319388652,329.46876142770344L521.6894599092494,338.13308989732735L523.1452878796337,342.07638695608784L524.6011158500179,346.29338705276746L526.056943820402,347.4031970820513L527.5127717907862,350.0523554269975L528.9685997611705,339.9653274299649L530.4244277315547,337.7406203317325L531.880255701939,338.9687816144784L533.3360836723232,346.25901458241384L534.7919116427073,346.87285241149294L536.2477396130915,345.50561736753684L537.7035675834758,350.6905983924076L539.15939555386,352.08423225606583L540.6152235242442,354.1245500366488L542.0710514946285,349.7909397482483L543.5268794650127,349.30542584417213L544.9827074353968,352.6418368034493L546.4385354057811,349.89999540741945L547.8943633761653,346.0322746089047L549.3501913465495,342.41320564076386L550.8060193169338,347.4369523083979L552.2618472873179,350.29518118270283L553.7176752577021,350.19970944696746L555.1735032280864,350.8174406441393L556.6293311984705,350.9461506060773L558.0851591688547,349.6535524286475L559.540987139239,352.01266851742224L560.9968151096232,353.02393636010703L562.4526430800074,349.7092858707671L563.9084710503917,345.25431483421926L565.3642990207758,343.7185450996252L566.82012699116,346.1310056443172L568.2759549615442,349.3271071400427L569.7317829319285,353.3676556691946L571.1876109023127,347.8655095952744L572.643438872697,349.55913749722663L574.0992668430812,352.7692487942352L575.5550948134653,350.2648670058692L577.0109227838495,342.2822755026265L578.4667507542338,344.45666501539307L579.922578724618,346.89347283799503L581.3784066950022,345.40124444891023L582.8342346653865,349.0754601742111L584.2900626357707,351.9718308739199L585.7458906061548,354.1380251860708L587.2017185765391,354.6529908981987L588.6575465469233,356.11723550760263L590.1133745173075,352.63314125326735L591.5692024876918,350.40997135536L593.025030458076,352.51673333691343L594.4808584284602,351.9982429128746L595.9366863988444,351.0835493135963L597.3925143692286,352.0837546323138L598.8483423396128,353.15389096488343L600.3041703099971,351.75259924823285L601.7599982803813,353.24070094181985L603.2158262507655,352.7890864770927L604.6716542211497,346.70982753991825L606.1274821915339,349.36138881128693L607.5833101619181,350.48300480692825L609.0391381323024,347.6235895786789L610.4949661026866,344.63326405558695L611.9507940730708,338.5945226369182L613.4066220434551,339.3755678341931L614.8624500138392,345.0743068889644L616.3182779842234,346.6554532966754L617.7741059546076,351.1903405539764L619.2299339249919,349.6831703008514L620.6857618953761,346.00376872694056L622.1415898657604,348.00712719246945L623.5974178361446,349.86926502033657L625.0532458065287,340.8643012334149L626.5090737769128,343.14211890662096L627.9649017472971,346.1791621697264L629.4207297176813,345.0232807123204L630.8765576880655,349.98038772220616L632.3323856584498,351.84753086648135L633.788213628834,348.87758762320453L635.2440415992181,352.12133464850496L636.6998695696024,333.42011957828646L638.1556975399866,340.9905885872843L639.6115255103708,336.7793982111159L641.0673534807551,341.5598468282989L642.5231814511393,346.52562228277526L643.9790094215235,350.25290532589315L645.4348373919076,344.7926191704671L646.8906653622919,349.17390185597054L648.3464933326761,350.77710352414215L649.8023213030604,351.97548508144905L651.2581492734446,355.47570788636733L652.7139772438288,356.7612983786472L654.169805214213,352.3626753782105L655.6256331845972,349.98311310357155L657.0814611549814,351.72524201207443L658.5372891253656,355.1277752528234L659.9931170957499,351.825537822111L661.4489450661341,353.92621480307326L662.9047730365183,355.03131991183466L664.3606010069025,352.6558523023294L665.8164289772867,323.0953612024877L667.2722569476709,335.4811590851071L668.7280849180552,338.3593846327636L670.1839128884394,331.15739123245544L671.6397408588236,335.439081039841L673.0955688292079,341.1656664995667L674.551396799592,345.6713420750257L676.0072247699762,344.55335550726704L677.4630527403605,349.36597086482243L678.9188807107447,353.93708363319377L680.3747086811289,354.60336242190704L681.8305366515132,355.0111145584726L683.2863646218974,356.9597990016728L684.7421925922815,357.2378299928752L686.1980205626658,358.4543652188892L687.65384853305,358.42261760011235L689.1096765034342,356.48410248101317L690.5655044738185,356.50634419377127L692.0213324442027,350.2689399794413L693.4771604145869,350.13620024340446L694.932988384971,347.71269483432246L696.3888163553553,351.85066740035177L697.8446443257395,355.31224706377145L699.3004722961236,356.4818727558647L700.7563002665079,352.7935447913727L702.2121282368921,349.4113878925073L703.6679562072763,352.90883822812793L705.1237841776605,355.5272713097639L706.5796121480447,354.5904593780846L708.0354401184289,354.08251587833L709.4912680888132,353.48271514614953L710.9470960591974,346.83388352613287L712.4029240295816,349.7597873839211L713.8587519999659,352.67003086806335L715.31457997035,353.0630716950306L716.7704079407342,352.0224966491554L718.2262359111185,351.7095612917985L719.6820638815027,346.8671148590881L721.1378918518869,350.8880048327088L722.5937198222712,352.98488621562933L724.0495477926554,353.0042534293919L725.5053757630395,353.9951646566934L726.9612037334238,352.31013793322325L728.417031703808,353.326320310256L729.8728596741922,352.2597529995156L731.3286876445765,353.0847215222864L732.7845156149607,353.19157401919375L734.2403435853448,350.144173160552L735.696171555729,352.36494210704177L737.1519995261133,353.047129554314L738.6078274964975,354.0815026326235L740.0636554668818,354.77855602935654L741.519483437266,356.8543286928381L742.9753114076502,351.12640591534887L744.4311393780343,349.2641390931272L745.8869673484186,351.8111879083693L747.3427953188028,352.6449503568205L748.798623289187,329.26071486196554L750.2544512595713,339.4684782817866L751.7102792299555,346.30145610319755L753.1661072003398,349.96061977084224L754.6219351707239,352.23702305885973L756.0777631411081,354.64752227493506L757.5335911114923,354.2901264397611L758.9894190818766,351.9643756246268L760.4452470522608,347.92499405310855L761.901075022645,345.52194184785156L763.3569029930292,350.8835392708414L764.8127309634134,349.49270412973544L766.2685589337976,353.1513589279129L767.7243869041819,352.49088414905066L769.1802148745661,355.5250471824141L770.6360428449503,355.2394167151117L772.0918708153346,353.17734742372454L773.5476987857187,342.43877195382896L775.0035267561028,348.8788458108752L776.459354726487,350.73860774276216L777.9151826968713,347.2475558344316L779.3710106672555,347.63849502062993L780.8268386376398,345.0513459924776L782.282666608024,350.0116718379284L783.7384945784082,348.0400869201693L785.1943225487923,348.69576822322915L786.6501505191766,352.6925441850949L788.1059784895608,353.7409228043768L789.561806459945,347.54750583477437L791.0176344303293,347.83760877736455L792.4734624007135,350.30108971890394L793.9292903710976,345.93525642858845L795.3851183414819,348.85521182977493L796.8409463118661,353.36397236293317L798.2967742822503,353.77371350244755L799.7526022526346,356.1166272632694L801.2084302230188,357.2345703627852L802.664258193403,355.4891744558911L804.1200861637872,348.0108047525738L805.5759141341714,351.87094621704995L807.0317421045556,351.50823391771456L808.4875700749399,354.7679507298814L809.9433980453241,355.90821151244745L811.3992260157083,353.0417737159648L812.8550539860926,354.62860055855884L814.3108819564767,355.7481516332457L815.7667099268609,354.737683797165L817.2225378972452,355.7520845213346L818.6783658676294,356.8329684755065L820.1341938380136,354.8615184658424L821.5900218083979,355.43487496368454L823.0458497787821,355.54354077233154L824.5016777491662,354.84061880935496L825.9575057195505,354.8351598735325L827.4133336899347,356.7015413516766L828.8691616603189,354.11423173103213L830.3249896307032,356.36331616665694L831.7808176010874,358.58509836664825L833.2366455714715,357.47205101329587L834.6924735418557,355.2386331539331L836.14830151224,353.8224982976992L837.6041294826242,351.42606362553306L839.0599574530085,350.0396127704801L840.5157854233927,353.8594160371261L841.9716133937769,355.3169513495912L843.427441364161,355.76111298634356L844.8832693345453,353.98943781583034L846.3390973049295,350.51238541092425L847.7949252753136,339.56372116451206L849.2507532456979,347.4525662295664L850.7065812160821,348.7079775113491L852.1624091864663,347.229857176918L853.6182371568506,343.68703147780246L855.0740651272347,346.0184083561986L856.5298930976189,347.93473282267234L857.9857210680032,351.377178276584L859.4415490383874,350.24671877905985L860.8973770087716,352.8745709222167L862.3532049791559,354.5626727631577L863.80903294954,352.561454114112L865.2648609199242,352.2278873294068L866.7206888903085,352.5181947730026L868.1765168606927,351.3632215641185L869.6323448310769,350.8532049008795L871.0881728014612,353.6663459359803L872.5440007718454,350.63241927503134L873.9998287422295,352.43304399033383L875.4556567126137,356.05816691466686L876.911484682998,357.73290037282976L878.3673126533822,357.49063261132477L879.8231406237664,356.199230129634" style="fill: none;" fill="none"></path></g></g></g></g><g opacity="0.2"><g><g><g><path stroke="rgb(255, 112, 67)" stroke-width="2px" d="M26.70794997861603,12.287847922521905L28.16377794900025,15.740227747132394L29.61960591938446,2.7053273226733268L31.075433889768675,43.31349185465672L32.531261860152895,51.25587920455496L33.98708983053711,72.09805288455516L35.44291780092132,61.09745665275079L36.89874577130554,40.20048428086608L38.354573741689755,68.71842680306003L39.81040171207397,90.50848404552323L41.26622968245819,65.78882836610518L42.7220576528424,100.42847870186739L44.177885623226615,89.06417599036547L45.633713593610835,65.5031034433996L47.08954156399505,71.57776093207877L48.54536953437926,74.76392678220151L50.00119750476348,69.17284207710384L51.457025475147695,68.7680599169476L52.91285344553191,113.31920971150458L54.36868141591613,130.97028534793293L55.82450938630034,94.0291677478661L57.280337356684555,179.75233914252078L58.736165327068775,118.76391562805873L60.19199329745299,222.4337052918358L61.64782126783721,164.0292532576207L63.10364923822143,148.5485450053664L64.55947720860563,103.61747628450661L66.01530517898985,161.75229137086242L67.47113314937407,85.29548230828357L68.92696111975829,228.8357857424741L70.3827890901425,150.41439223123112L71.83861706052672,208.92769481866165L73.29444503091092,160.9632026548998L74.75027300129514,264.7421696102596L76.20610097167936,238.59953722337667L77.66192894206358,183.58600708278277L79.11775691244779,177.8573966429979L80.57358488283201,171.82921379732252L82.02941285321623,224.2206374225163L83.48524082360044,237.3686048810258L84.94106879398466,198.3327831672661L86.39689676436888,230.35888442105704L87.85272473475308,121.07264893129297L89.3085527051373,205.80645654980935L90.76438067552152,284.33585265040983L92.22020864590573,216.59036300822436L93.67603661628995,151.374442908133L95.13186458667417,182.6747337764255L96.58769255705838,232.47502879523174L98.0435205274426,239.3374213694948L99.49934849782682,195.88355236609937L100.95517646821102,145.4867420014202L102.41100443859524,240.92683237766667L103.86683240897946,241.6954143713397L105.32266037936367,227.96004912330153L106.77848834974789,283.0590446853952L108.23431632013211,247.6205657185313L109.69014429051633,149.52679967701707L111.14597226090054,261.3991771233251L112.60180023128476,237.84072626278243L114.05762820166898,310.2930921317984L115.51345617205317,306.8494097713457L116.96928414243739,306.9183360078729L118.42511211282161,248.86991988120909L119.88094008320583,309.9808236064934L121.33676805359003,253.1125553445225L122.79259602397426,261.61224165673457L124.24842399435848,310.1874233879215L125.7042519647427,275.782464553689L127.16007993512692,292.9892460259745L128.61590790551114,274.925320903512L130.07173587589534,197.9797656998697L131.52756384627958,272.035327824363L132.98339181666378,261.8242092827681L134.439219787048,302.530745401759L135.8950477574322,330.88431518675395L137.3508757278164,293.5175508479343L138.80670369820064,273.8529422436285L140.26253166858484,304.7079976301009L141.71835963896908,298.617189930696L143.17418760935328,313.3392272530848L144.6300155797375,289.8275544354584L146.08584355012172,314.4504255427957L147.54167152050593,318.4501621479726L148.99749949089016,315.36881318812635L150.45332746127437,328.49947518239713L151.90915543165855,277.4690491081884L153.36498340204278,275.8411841059811L154.820811372427,280.85995544283975L156.27663934281122,329.6083240676576L157.73246731319543,296.9782158240009L159.18829528357966,267.6010058522425L160.64412325396387,322.43618352120853L162.09995122434808,312.2000383765766L163.5557791947323,287.99080248325197L165.01160716511652,304.48968194436014L166.46743513550075,279.8337947029572L167.92326310588496,319.97177105519046L169.37909107626916,281.71147452540856L170.83491904665337,318.40372251265103L172.29074701703757,266.96024857554227L173.7465749874218,300.3383387367631L175.20240295780602,271.52202962884354L176.65823092819022,259.52187849563563L178.11405889857446,324.77492618758095L179.56988686895866,337.54502461406804L181.0257148393429,325.6246598783571L182.4815428097271,330.4314091327877L183.93737078011134,302.34266079447707L185.39319875049554,347.09986969625913L186.84902672087975,263.34586097715305L188.30485469126398,327.61572958348364L189.76068266164816,322.72670838611924L191.2165106320324,315.94876990031435L192.6723386024166,270.0352533654237L194.1281665728008,304.2181701406314L195.58399454318504,307.14062701041564L197.03982251356925,294.2280589865649L198.49565048395348,331.8990478632665L199.9514784543377,328.8119381948256L201.4073064247219,295.44861349601206L202.86313439510613,317.28380731007013L204.31896236549034,341.46113175618996L205.77479033587457,336.5205209044767L207.23061830625875,299.540645910462L208.68644627664298,301.15501350630643L210.1422742470272,301.8432412000823L211.5981022174114,334.905643752369L213.05393018779563,303.5521528763461L214.50975815817984,325.3450651897805L215.96558612856407,303.83027724226986L217.42141409894828,292.94843484800367L218.87724206933248,340.0491863583633L220.33307003971672,345.18619030726944L221.78889801010092,302.57383596881596L223.24472598048516,338.3315888871691L224.70055395086936,291.05091733896717L226.15638192125357,321.3596739548244L227.6122098916378,305.85236764357614L229.068037862022,345.8153717103859L230.52386583240624,324.2815473632384L231.97969380279045,306.94158110885974L233.43552177317468,345.1093134371383L234.89134974355883,275.5542378041406L236.34717771394307,310.9601518470651L237.80300568432727,325.19272731577644L239.25883365471148,329.5259393221922L240.71466162509572,351.80593296691393L242.17048959547992,338.61323347002616L243.62631756586416,351.904965810141L245.08214553624836,349.07709969768575L246.53797350663257,322.27417963717227L247.9938014770168,347.7559817313506L249.449629447401,345.79742443864006L250.90545741778524,309.51077156772953L252.36128538816945,313.07062497672194L253.81711335855366,345.6599940026434L255.2729413289379,305.7037483633712L256.7287692993221,326.40788286267843L258.18459726970633,340.876651273512L259.64042524009056,315.3584664731623L261.09625321047474,337.21781947768716L262.552081180859,342.7825239493691L264.0079091512432,253.56614599316313L265.4637371216274,330.79437656141636L266.9195650920116,349.50094159593357L268.37539306239586,342.5017156611426L269.83122103278004,306.6585323289719L271.28704900316427,317.4864590028936L272.74287697354845,328.7997594111593L274.1987049439327,311.31861495391627L275.65453291431686,343.57578246925704L277.1103608847011,334.5107687662779L278.56618885508533,341.1907479777768L280.0220168254695,340.82231546098103L281.47784479585374,349.22008857566874L282.933672766238,341.62762440303385L284.3895007366222,331.7332086931571L285.8453287070064,340.0263341213657L287.3011566773906,343.5654124158382L288.75698464777486,339.1239605457745L290.21281261815903,259.44437926670963L291.66864058854327,316.24807002423216L293.1244685589275,349.1856390715038L294.5802965293117,327.4089703226143L296.0361244996959,335.3788737107289L297.49195247008015,347.8670902800685L298.9477804404644,353.12936921975984L300.40360841084856,310.30707186622726L301.8594363812328,330.36107480948715L303.31526435161703,342.0209979485324L304.7710923220012,338.1885358284354L306.22692029238544,351.43443727792487L307.6827482627697,326.3155676046931L309.13857623315386,340.38308963127355L310.59440420353803,300.52386389350136L312.05023217392227,342.6848369570358L313.5060601443065,334.76175828874716L314.9618881146907,343.9061032893545L316.4177160850749,345.87517261108394L317.87354405545915,348.44563112599826L319.3293720258434,357.3387162670349L320.78519999622756,352.62238602113666L322.2410279666118,347.01432842478124L323.69685593699603,280.45602124654147L325.1526839073802,341.03832452943846L326.60851187776444,329.4860305644738L328.0643398481487,328.80896643158025L329.52016781853285,349.90588712527347L330.9759957889171,268.14577206432546L332.4318237593013,350.50984938310074L333.88765172968556,231.81523511889466L335.34347970006974,338.77294240600645L336.79930767045397,291.51479246669237L338.2551356408382,349.8904234540932L339.7109636112224,332.3650701288338L341.1667915816066,298.64202982609453L342.62261955199085,348.26762484145L344.07844752237503,343.5214894438932L345.53427549275926,330.8998041412603L346.99010346314344,354.1824683711023L348.4459314335277,352.2026789191319L349.90175940391185,336.2647625577421L351.3575873742961,346.04242181283786L352.8134153446803,330.97794128795096L354.26924331506456,325.74088538329124L355.72507128544873,349.8088769481296L357.18089925583297,317.0964928717967L358.6367272262172,310.6472609629652L360.0925551966014,341.24114348118803L361.5483831669856,320.76700945399443L363.00421113736985,329.8260524022857L364.460039107754,352.6154292167332L365.91586707813826,284.51501418847096L367.3716950485225,293.4809794892532L368.82752301890673,327.1654685543953L370.2833509892909,329.8620830867638L371.73917895967514,337.4887011431361L373.1950069300594,354.66038546913575L374.65083490044356,312.2194559709752L376.1066628708278,349.3358687050903L377.562490841212,313.64221485286197L379.0183188115962,356.01317955325646L380.47414678198044,347.4923077586942L381.92997475236467,321.0149999850212L383.38580272274885,341.44211869500793L384.841630693133,336.8205056230688L386.29745866351726,350.64930637492307L387.7532866339015,349.6053364491523L389.20911460428573,336.62254884940387L390.6649425746699,337.50799815551824L392.12077054505414,332.38768898128336L393.5765985154384,353.50558900097593L395.03242648582255,322.92684730530857L396.4882544562068,323.74869932207645L397.944082426591,319.9618872195801L399.3999103969752,348.9788039606563L400.85573836735944,350.6638734604645L402.31156633774367,343.1900133702828L403.7673943081279,289.47232759434036L405.2232222785121,340.51827374099514L406.6790502488963,342.27781430521827L408.13487821928055,328.6649837243968L409.59070618966473,348.84670830645405L411.04653416004896,352.5900311432905L412.5023621304332,341.42531889729L413.9581901008174,330.34324423001533L415.4140180712016,317.53488240687363L416.86984604158584,347.6789200984522L418.3256740119701,351.9010177215363L419.7815019823542,326.4223993815678L421.23732995273843,350.8380191756136L422.69315792312267,347.2666151763635L424.14898589350685,343.7990167343482L425.6048138638911,344.4945163016673L427.0606418342753,351.7068203839663L428.51646980465955,332.4443236316127L429.9722977750437,350.4595277847964L431.42812574542796,314.79483889985363L432.8839537158122,351.3552810187076L434.3397816861964,334.37822190194936L435.7956096565806,348.4808838619828L437.25143762696484,353.6498770529431L438.7072655973491,346.3469322467911L440.16309356773326,348.56139569645L441.6189215381175,349.9577801795347L443.0747495085017,345.46147710606306L444.5305774788859,345.2525668176091L445.98640544927014,315.69701409857896L447.4422334196543,353.29565376538176L448.89806139003855,352.848457853358L450.3538893604227,354.1905959879885L451.80971733080696,356.65222728814217L453.2655453011912,342.65382793008354L454.7213732715754,343.419768788621L456.1772012419596,347.2163947113633L457.63302921234384,320.0788245473858L459.088857182728,346.5171279284643L460.54468515311225,350.45418911325953L462.0005131234965,344.1190958625283L463.4563410938807,321.83366630270797L464.9121690642649,342.4148304836421L466.36799703464914,346.43291500403905L467.82382500503337,263.38410492509524L469.27965297541755,343.3026058557522L470.7354809458018,349.3144167753811L472.191308916186,341.18268065189886L473.6471368865702,350.1805223922037L475.10296485695443,350.8478855073829L476.55879282733866,344.60850520468256L478.0146207977229,353.17589637428694L479.4704487681071,353.65697583294667L480.9262767384913,348.91900111508704L482.38210470887554,356.78936988319623L483.8379326792597,329.1960113660839L485.29376064964396,340.92279528840606L486.7495886200282,342.6414818874911L488.2054165904124,333.5735703263736L489.6612445607966,351.92327093819387L491.11707253118084,339.85260655353187L492.5729005015651,323.4571086677296L494.02872847194925,355.3504452316138L495.4845564423335,342.2926031060803L496.9403844127177,352.95181220046663L498.3962123831019,347.3665115424183L499.85204035348613,354.18648064045766L501.30786832387037,333.3766365549776L502.7636962942546,307.66897072980004L504.2195242646388,354.9729068277012L505.675352235023,351.7361393178164L507.13118020540725,355.948701237241L508.5870081757914,349.7069773647039L510.04283614617566,352.2641407398637L511.4986641165599,349.89760391868856L512.9544920869441,352.4598764705796L514.4103200573284,332.2880143305491L515.8661480277125,344.14002851161814L517.3219759980967,327.294024542952L518.777803968481,338.2258190099881L520.2336319388652,317.25239374990116L521.6894599092494,351.1295826017632L523.1452878796337,347.9913325442285L524.6011158500179,352.618887197787L526.056943820402,349.0679121259771L527.5127717907862,354.02609294441675L528.9685997611705,324.834785434416L530.4244277315547,334.4035596843838L531.880255701939,340.8110235385974L533.3360836723232,357.19436403431695L534.7919116427073,347.7936091551116L536.2477396130915,343.4547648016027L537.7035675834758,358.46806992971364L539.15939555386,354.17468305155325L540.6152235242442,357.1850267075233L542.0710514946285,343.29052431564753L543.5268794650127,348.5771549880578L544.9827074353968,357.64645324236506L546.4385354057811,345.7872333133747L547.8943633761653,340.23069341113245L549.3501913465495,336.9846021885527L550.8060193169338,354.97257230984894L552.2618472873179,354.5825244941603L553.7176752577021,350.05650184336434L555.1735032280864,351.74403743989706L556.6293311984705,351.1392155489844L558.0851591688547,347.7146551625027L559.540987139239,355.55134265058433L560.9968151096232,354.5408381241342L562.4526430800074,344.7373101367572L563.9084710503917,338.5718582793975L565.3642990207758,341.4148904977342L566.82012699116,349.74969646135514L568.2759549615442,354.1212593836309L569.7317829319285,359.42847846292256L571.1876109023127,339.61229048439395L572.643438872697,352.09957935015495L574.0992668430812,357.5844157397481L575.5550948134653,346.5082943233202L577.0109227838495,330.3083882477625L578.4667507542338,347.7182492845429L579.922578724618,350.548684571898L581.3784066950022,343.1629018652831L582.8342346653865,354.5867837621624L584.2900626357707,356.31638692348304L585.7458906061548,357.38731665429725L587.2017185765391,355.42543946639057L588.6575465469233,358.31360242170854L590.1133745173075,347.40699987176436L591.5692024876918,347.075216508499L593.025030458076,355.67687630924365L594.4808584284602,351.22050727681636L595.9366863988444,349.71150891467875L597.3925143692286,353.58406261039005L598.8483423396128,354.75909546373794L600.3041703099971,349.6506616732569L601.7599982803813,355.4728534822003L603.2158262507655,352.11166478000206L604.6716542211497,337.5909391341565L606.1274821915339,353.33873071834006L607.5833101619181,352.16542880039026L609.0391381323024,343.3344667363049L610.4949661026866,340.147775770949L611.9507940730708,329.53641050891514L613.4066220434551,340.5471356301053L614.8624500138392,353.62241547112137L616.3182779842234,349.0271729082419L617.7741059546076,357.99267143992796L619.2299339249919,347.42241492116375L620.6857618953761,340.4846663660744L622.1415898657604,351.01216489076273L623.5974178361446,352.6624717621373L625.0532458065287,327.3568555530324L626.5090737769128,346.5588454164301L627.9649017472971,350.73472706438446L629.4207297176813,343.28945852621143L630.8765576880655,357.4160482370348L632.3323856584498,354.6482455828941L633.788213628834,344.4226727582893L635.2440415992181,356.98695518645553L636.6998695696024,305.3682969729588L638.1556975399866,352.346292100781L639.6115255103708,330.46261264686336L641.0673534807551,348.7305197540733L642.5231814511393,353.9742854644898L643.9790094215235,355.84382989057L645.4348373919076,336.60218993732803L646.8906653622919,355.74582588422567L648.3464933326761,353.18190602639953L649.8023213030604,353.7730574174095L651.2581492734446,360.72604209374475L652.7139772438288,358.68968411706703L654.169805214213,345.76474087755537L655.6256331845972,346.4137696916132L657.0814611549814,354.3384353748287L658.5372891253656,360.2315751139469L659.9931170957499,346.8721816760425L661.4489450661341,357.0772302745166L662.9047730365183,356.6889775749768L664.3606010069025,349.0926508880715L665.8164289772867,278.7546245527252L667.2722569476709,354.0598559090362L668.7280849180552,342.6767229542483L670.1839128884394,320.35440113199326L671.6397408588236,341.8616157509194L673.0955688292079,349.7555446891553L674.551396799592,352.4298554382141L676.0072247699762,342.87637565562915L677.4630527403605,356.58489390115545L678.9188807107447,360.7937527857508L680.3747086811289,355.6027806049769L681.8305366515132,355.622742763321L683.2863646218974,359.8828256664732L684.7421925922815,357.6548764796788L686.1980205626658,360.27916805791017L687.65384853305,358.3749961719471L689.1096765034342,353.57632980236434L690.5655044738185,356.53970676290845L692.0213324442027,340.9128336579463L693.4771604145869,349.93709063934915L694.932988384971,344.0774367206995L696.3888163553553,358.0576262493957L697.8446443257395,360.50461655890103L699.3004722961236,358.23631129400457L700.7563002665079,347.2610528446347L702.2121282368921,344.3381525442092L703.6679562072763,358.1550137315589L705.1237841776605,359.4549209322178L706.5796121480447,353.18524148056554L708.0354401184289,353.3206006286982L709.4912680888132,352.58301404787886L710.9470960591974,336.86063609610784L712.4029240295816,354.14864317060335L713.8587519999659,357.03539609427673L715.31457997035,353.6526329354815L716.7704079407342,350.46163408034266L718.2262359111185,351.24015825576305L719.6820638815027,339.6034452100224L721.1378918518869,356.91933979313995L722.5937198222712,356.13020829001016L724.0495477926554,353.03330425003566L725.5053757630395,355.48153149764573L726.9612037334238,349.782597848018L728.417031703808,354.8505938758051L729.8728596741922,350.65990203340505L731.3286876445765,354.32217430644255L732.7845156149607,353.35185276455474L734.2403435853448,345.5730718725894L735.696171555729,355.69609552677645L737.1519995261133,354.07041072522225L738.6078274964975,355.63306225008773L740.0636554668818,355.8241361244562L741.519483437266,359.9679876880605L742.9753114076502,342.53452174911496L744.4311393780343,346.4707388597948L745.8869673484186,355.6317611312323L747.3427953188028,353.8955940294975L748.798623289187,294.18436161968305L750.2544512595713,354.7801234115182L751.7102792299555,356.550922835314L753.1661072003398,355.44936527230925L754.6219351707239,355.65162799088597L756.0777631411081,358.26327109904804L757.5335911114923,353.7540326870001L758.9894190818766,348.4757494019255L760.4452470522608,341.8659216958311L761.901075022645,341.9173635399661L763.3569029930292,358.92593540532624L764.8127309634134,347.4064514180764L766.2685589337976,358.6393411251791L767.7243869041819,351.50017198075733L769.1802148745661,360.0762917324592L770.6360428449503,354.8109710141581L772.0918708153346,350.0842434866438L773.5476987857187,326.3309087489856L775.0035267561028,358.53895659644456L776.459354726487,353.5282506405926L777.9151826968713,342.0109779719357L779.3710106672555,348.2249037999275L780.8268386376398,341.1706224502491L782.282666608024,357.45216060610466L783.7384945784082,345.08270954353065L785.1943225487923,349.679290177819L786.6501505191766,358.6877081278934L788.1059784895608,355.31349073329966L789.561806459945,338.2573803803708L791.0176344303293,348.2727631912498L792.4734624007135,353.996311131213L793.9292903710976,339.3865064931152L795.3851183414819,353.2351449315546L796.8409463118661,360.12711316267064L798.2967742822503,354.38832521171906L799.7526022526346,359.6309979045021L801.2084302230188,358.91148501205885L802.664258193403,352.87108059555L804.1200861637872,336.79325019759784L805.5759141341714,357.6611584137641L807.0317421045556,350.9641654687116L808.4875700749399,359.6575259481317L809.9433980453241,357.6186026862965L811.3992260157083,348.7421170212407L812.8550539860926,357.00884082244994L814.3108819564767,357.427478245276L815.7667099268609,353.22198204304397L817.2225378972452,357.2736856075891L818.6783658676294,358.45429440676435L820.1341938380136,351.90434345134616L821.5900218083979,356.29490971044777L823.0458497787821,355.70653948530213L824.5016777491662,353.78623586489L825.9575057195505,354.8269714697989L827.4133336899347,359.5011135688927L828.8691616603189,350.2332673000654L830.3249896307032,359.7369428200942L831.7808176010874,361.91777166663513L833.2366455714715,355.80247998326735L834.6924735418557,351.888506364889L836.14830151224,351.6982960133484L837.6041294826242,347.8314116172837L839.0599574530085,347.9599364879007L840.5157854233927,359.5891209370951L841.9716133937769,357.50325431828884L843.427441364161,356.4273554414721L844.8832693345453,351.3319250600605L846.3390973049295,345.29680680356523L847.7949252753136,323.14072479489374L849.2507532456979,359.28583382714794L850.7065812160821,350.5910944340231L852.1624091864663,345.01267667527134L853.6182371568506,338.3727929291292L855.0740651272347,349.5154736737928L856.5298930976189,350.80921952238293L857.9857210680032,356.5408464574515L859.4415490383874,348.55102953277367L860.8973770087716,356.81634913695206L862.3532049791559,357.09482552456916L863.80903294954,349.5596261405434L865.2648609199242,351.72753715234916L866.7206888903085,352.9536559383963L868.1765168606927,349.63076175079226L869.6323448310769,350.0881799060211L871.0881728014612,357.8860574886314L872.5440007718454,346.0815292836079L873.9998287422295,355.13398106328765L875.4556567126137,361.49585130116634L876.911484682998,360.2450005600741L878.3673126533822,357.12723096906734L879.8231406237664,354.2621264070978" style="fill: none;" fill="none"></path></g></g></g></g></g></g><g transform="translate(58, 378)" clip-path="url(#clip_1)"><clipPath id="clip_1"><rect width="894" height="22"></rect></clipPath><g><g><line x1="26.70794997861603" y1="0" x2="26.70794997861603" y2="5" style="visibility: inherit;" fill="rgb(0, 0, 0)" stroke="rgb(204, 204, 204)" stroke-width="1px"></line><line x1="84.94106879398466" y1="0" x2="84.94106879398466" y2="5" style="visibility: inherit;" fill="rgb(0, 0, 0)" stroke="rgb(204, 204, 204)" stroke-width="1px"></line><line x1="143.17418760935328" y1="0" x2="143.17418760935328" y2="5" style="visibility: inherit;" fill="rgb(0, 0, 0)" stroke="rgb(204, 204, 204)" stroke-width="1px"></line><line x1="201.4073064247219" y1="0" x2="201.4073064247219" y2="5" style="visibility: inherit;" fill="rgb(0, 0, 0)" stroke="rgb(204, 204, 204)" stroke-width="1px"></line><line x1="259.64042524009056" y1="0" x2="259.64042524009056" y2="5" style="visibility: inherit;" fill="rgb(0, 0, 0)" stroke="rgb(204, 204, 204)" stroke-width="1px"></line><line x1="317.87354405545915" y1="0" x2="317.87354405545915" y2="5" style="visibility: inherit;" fill="rgb(0, 0, 0)" stroke="rgb(204, 204, 204)" stroke-width="1px"></line><line x1="376.1066628708278" y1="0" x2="376.1066628708278" y2="5" style="visibility: inherit;" fill="rgb(0, 0, 0)" stroke="rgb(204, 204, 204)" stroke-width="1px"></line><line x1="434.3397816861964" y1="0" x2="434.3397816861964" y2="5" style="visibility: inherit;" fill="rgb(0, 0, 0)" stroke="rgb(204, 204, 204)" stroke-width="1px"></line><line x1="492.5729005015651" y1="0" x2="492.5729005015651" y2="5" style="visibility: inherit;" fill="rgb(0, 0, 0)" stroke="rgb(204, 204, 204)" stroke-width="1px"></line><line x1="550.8060193169338" y1="0" x2="550.8060193169338" y2="5" style="visibility: inherit;" fill="rgb(0, 0, 0)" stroke="rgb(204, 204, 204)" stroke-width="1px"></line><line x1="609.0391381323024" y1="0" x2="609.0391381323024" y2="5" style="visibility: inherit;" fill="rgb(0, 0, 0)" stroke="rgb(204, 204, 204)" stroke-width="1px"></line><line x1="667.2722569476709" y1="0" x2="667.2722569476709" y2="5" style="visibility: inherit;" fill="rgb(0, 0, 0)" stroke="rgb(204, 204, 204)" stroke-width="1px"></line><line x1="725.5053757630395" y1="0" x2="725.5053757630395" y2="5" style="visibility: inherit;" fill="rgb(0, 0, 0)" stroke="rgb(204, 204, 204)" stroke-width="1px"></line><line x1="783.7384945784082" y1="0" x2="783.7384945784082" y2="5" style="visibility: inherit;" fill="rgb(0, 0, 0)" stroke="rgb(204, 204, 204)" stroke-width="1px"></line><line x1="841.9716133937769" y1="0" x2="841.9716133937769" y2="5" style="visibility: inherit;" fill="rgb(0, 0, 0)" stroke="rgb(204, 204, 204)" stroke-width="1px"></line></g><g transform="translate(0, 8)"><text x="26.70794997861603" y="0" dx="0em" dy="0.95em" style="text-anchor: middle; visibility: inherit; font-family: &quot;Helvetica Neue&quot;, sans-serif; font-size: 12px; font-weight: 200;" fill="rgb(50, 49, 63)" stroke="none" stroke-width="1px">0.000</text><text x="84.94106879398466" y="0" dx="0em" dy="0.95em" style="text-anchor: middle; visibility: inherit; font-family: &quot;Helvetica Neue&quot;, sans-serif; font-size: 12px; font-weight: 200;" fill="rgb(50, 49, 63)" stroke="none" stroke-width="1px">2.000k</text><text x="143.17418760935328" y="0" dx="0em" dy="0.95em" style="text-anchor: middle; visibility: inherit; font-family: &quot;Helvetica Neue&quot;, sans-serif; font-size: 12px; font-weight: 200;" fill="rgb(50, 49, 63)" stroke="none" stroke-width="1px">4.000k</text><text x="201.4073064247219" y="0" dx="0em" dy="0.95em" style="text-anchor: middle; visibility: inherit; font-family: &quot;Helvetica Neue&quot;, sans-serif; font-size: 12px; font-weight: 200;" fill="rgb(50, 49, 63)" stroke="none" stroke-width="1px">6.000k</text><text x="259.64042524009056" y="0" dx="0em" dy="0.95em" style="text-anchor: middle; visibility: inherit; font-family: &quot;Helvetica Neue&quot;, sans-serif; font-size: 12px; font-weight: 200;" fill="rgb(50, 49, 63)" stroke="none" stroke-width="1px">8.000k</text><text x="317.87354405545915" y="0" dx="0em" dy="0.95em" style="text-anchor: middle; visibility: inherit; font-family: &quot;Helvetica Neue&quot;, sans-serif; font-size: 12px; font-weight: 200;" fill="rgb(50, 49, 63)" stroke="none" stroke-width="1px">10.00k</text><text x="376.1066628708278" y="0" dx="0em" dy="0.95em" style="text-anchor: middle; visibility: inherit; font-family: &quot;Helvetica Neue&quot;, sans-serif; font-size: 12px; font-weight: 200;" fill="rgb(50, 49, 63)" stroke="none" stroke-width="1px">12.00k</text><text x="434.3397816861964" y="0" dx="0em" dy="0.95em" style="text-anchor: middle; visibility: inherit; font-family: &quot;Helvetica Neue&quot;, sans-serif; font-size: 12px; font-weight: 200;" fill="rgb(50, 49, 63)" stroke="none" stroke-width="1px">14.00k</text><text x="492.5729005015651" y="0" dx="0em" dy="0.95em" style="text-anchor: middle; visibility: inherit; font-family: &quot;Helvetica Neue&quot;, sans-serif; font-size: 12px; font-weight: 200;" fill="rgb(50, 49, 63)" stroke="none" stroke-width="1px">16.00k</text><text x="550.8060193169338" y="0" dx="0em" dy="0.95em" style="text-anchor: middle; visibility: inherit; font-family: &quot;Helvetica Neue&quot;, sans-serif; font-size: 12px; font-weight: 200;" fill="rgb(50, 49, 63)" stroke="none" stroke-width="1px">18.00k</text><text x="609.0391381323024" y="0" dx="0em" dy="0.95em" style="text-anchor: middle; visibility: inherit; font-family: &quot;Helvetica Neue&quot;, sans-serif; font-size: 12px; font-weight: 200;" fill="rgb(50, 49, 63)" stroke="none" stroke-width="1px">20.00k</text><text x="667.2722569476709" y="0" dx="0em" dy="0.95em" style="text-anchor: middle; visibility: inherit; font-family: &quot;Helvetica Neue&quot;, sans-serif; font-size: 12px; font-weight: 200;" fill="rgb(50, 49, 63)" stroke="none" stroke-width="1px">22.00k</text><text x="725.5053757630395" y="0" dx="0em" dy="0.95em" style="text-anchor: middle; visibility: inherit; font-family: &quot;Helvetica Neue&quot;, sans-serif; font-size: 12px; font-weight: 200;" fill="rgb(50, 49, 63)" stroke="none" stroke-width="1px">24.00k</text><text x="783.7384945784082" y="0" dx="0em" dy="0.95em" style="text-anchor: middle; visibility: inherit; font-family: &quot;Helvetica Neue&quot;, sans-serif; font-size: 12px; font-weight: 200;" fill="rgb(50, 49, 63)" stroke="none" stroke-width="1px">26.00k</text><text x="841.9716133937769" y="0" dx="0em" dy="0.95em" style="text-anchor: middle; visibility: inherit; font-family: &quot;Helvetica Neue&quot;, sans-serif; font-size: 12px; font-weight: 200;" fill="rgb(50, 49, 63)" stroke="none" stroke-width="1px">28.00k</text></g><line x1="0" y1="0" x2="894.5" y2="0" fill="rgb(0, 0, 0)" stroke="rgb(204, 204, 204)" stroke-width="1px"></line></g></g></g></g></svg>