<svg viewBox="0 0 967.5 400" xmlns="http://www.w3.org/2000/svg"><g><g><g><g><g><line x1="58" y1="365.6319657343188" x2="53" y2="365.6319657343188" style="visibility: inherit;" fill="rgb(0, 0, 0)" stroke="rgb(204, 204, 204)" stroke-width="1px"></line><line x1="58" y1="333.01034166402576" x2="53" y2="333.01034166402576" style="visibility: inherit;" fill="rgb(0, 0, 0)" stroke="rgb(204, 204, 204)" stroke-width="1px"></line><line x1="58" y1="300.38871759373274" x2="53" y2="300.38871759373274" style="visibility: inherit;" fill="rgb(0, 0, 0)" stroke="rgb(204, 204, 204)" stroke-width="1px"></line><line x1="58" y1="267.7670935234397" x2="53" y2="267.7670935234397" style="visibility: inherit;" fill="rgb(0, 0, 0)" stroke="rgb(204, 204, 204)" stroke-width="1px"></line><line x1="58" y1="235.14546945314675" x2="53" y2="235.14546945314675" style="visibility: inherit;" fill="rgb(0, 0, 0)" stroke="rgb(204, 204, 204)" stroke-width="1px"></line><line x1="58" y1="202.52384538285372" x2="53" y2="202.52384538285372" style="visibility: inherit;" fill="rgb(0, 0, 0)" stroke="rgb(204, 204, 204)" stroke-width="1px"></line><line x1="58" y1="169.90222131256073" x2="53" y2="169.90222131256073" style="visibility: inherit;" fill="rgb(0, 0, 0)" stroke="rgb(204, 204, 204)" stroke-width="1px"></line><line x1="58" y1="137.2805972422677" x2="53" y2="137.2805972422677" style="visibility: inherit;" fill="rgb(0, 0, 0)" stroke="rgb(204, 204, 204)" stroke-width="1px"></line><line x1="58" y1="104.65897317197471" x2="53" y2="104.65897317197471" style="visibility: inherit;" fill="rgb(0, 0, 0)" stroke="rgb(204, 204, 204)" stroke-width="1px"></line><line x1="58" y1="72.03734910168174" x2="53" y2="72.03734910168174" style="visibility: inherit;" fill="rgb(0, 0, 0)" stroke="rgb(204, 204, 204)" stroke-width="1px"></line><line x1="58" y1="39.41572503138872" x2="53" y2="39.41572503138872" style="visibility: inherit;" fill="rgb(0, 0, 0)" stroke="rgb(204, 204, 204)" stroke-width="1px"></line><line x1="58" y1="6.794100961095694" x2="53" y2="6.794100961095694" style="visibility: inherit;" fill="rgb(0, 0, 0)" stroke="rgb(204, 204, 204)" stroke-width="1px"></line></g><g transform="translate(48, 0)"><text x="0" y="365.6319657343188" dx="0em" dy="0.3em" style="text-anchor: end; visibility: inherit; font-family: &quot;Helvetica Neue&quot;, sans-serif; font-size: 12px; font-weight: 200;" fill="rgb(50, 49, 63)" stroke="none" stroke-width="1px">0.00</text><text x="0" y="333.01034166402576" dx="0em" dy="0.3em" style="text-anchor: end; visibility: inherit; font-family: &quot;Helvetica Neue&quot;, sans-serif; font-size: 12px; font-weight: 200;" fill="rgb(50, 49, 63)" stroke="none" stroke-width="1px">5.00</text><text x="0" y="300.38871759373274" dx="0em" dy="0.3em" style="text-anchor: end; visibility: inherit; font-family: &quot;Helvetica Neue&quot;, sans-serif; font-size: 12px; font-weight: 200;" fill="rgb(50, 49, 63)" stroke="none" stroke-width="1px">10.0</text><text x="0" y="267.7670935234397" dx="0em" dy="0.3em" style="text-anchor: end; visibility: inherit; font-family: &quot;Helvetica Neue&quot;, sans-serif; font-size: 12px; font-weight: 200;" fill="rgb(50, 49, 63)" stroke="none" stroke-width="1px">15.0</text><text x="0" y="235.14546945314675" dx="0em" dy="0.3em" style="text-anchor: end; visibility: inherit; font-family: &quot;Helvetica Neue&quot;, sans-serif; font-size: 12px; font-weight: 200;" fill="rgb(50, 49, 63)" stroke="none" stroke-width="1px">20.0</text><text x="0" y="202.52384538285372" dx="0em" dy="0.3em" style="text-anchor: end; visibility: inherit; font-family: &quot;Helvetica Neue&quot;, sans-serif; font-size: 12px; font-weight: 200;" fill="rgb(50, 49, 63)" stroke="none" stroke-width="1px">25.0</text><text x="0" y="169.90222131256073" dx="0em" dy="0.3em" style="text-anchor: end; visibility: inherit; font-family: &quot;Helvetica Neue&quot;, sans-serif; font-size: 12px; font-weight: 200;" fill="rgb(50, 49, 63)" stroke="none" stroke-width="1px">30.0</text><text x="0" y="137.2805972422677" dx="0em" dy="0.3em" style="text-anchor: end; visibility: inherit; font-family: &quot;Helvetica Neue&quot;, sans-serif; font-size: 12px; font-weight: 200;" fill="rgb(50, 49, 63)" stroke="none" stroke-width="1px">35.0</text><text x="0" y="104.65897317197471" dx="0em" dy="0.3em" style="text-anchor: end; visibility: inherit; font-family: &quot;Helvetica Neue&quot;, sans-serif; font-size: 12px; font-weight: 200;" fill="rgb(50, 49, 63)" stroke="none" stroke-width="1px">40.0</text><text x="0" y="72.03734910168174" dx="0em" dy="0.3em" style="text-anchor: end; visibility: inherit; font-family: &quot;Helvetica Neue&quot;, sans-serif; font-size: 12px; font-weight: 200;" fill="rgb(50, 49, 63)" stroke="none" stroke-width="1px">45.0</text><text x="0" y="39.41572503138872" dx="0em" dy="0.3em" style="text-anchor: end; visibility: inherit; font-family: &quot;Helvetica Neue&quot;, sans-serif; font-size: 12px; font-weight: 200;" fill="rgb(50, 49, 63)" stroke="none" stroke-width="1px">50.0</text><text x="0" y="6.794100961095694" dx="0em" dy="0.3em" style="text-anchor: end; visibility: inherit; font-family: &quot;Helvetica Neue&quot;, sans-serif; font-size: 12px; font-weight: 200;" fill="rgb(50, 49, 63)" stroke="none" stroke-width="1px">55.0</text></g><line x1="58" y1="0" x2="58" y2="378" fill="rgb(0, 0, 0)" stroke="rgb(204, 204, 204)" stroke-width="1px"></line></g></g><g transform="translate(58, 0)" clip-path="url(#clip_0)"><clipPath id="clip_0"><rect width="909" height="378"></rect></clipPath><g><g><g><line x1="35.52076100750359" y1="0" x2="35.52076100750359" y2="378" fill="rgb(0, 0, 0)" stroke="rgb(60, 60, 60)" stroke-width="1px" opacity="0.25"></line><line x1="126.26497357045189" y1="0" x2="126.26497357045189" y2="378" fill="rgb(0, 0, 0)" stroke="rgb(60, 60, 60)" stroke-width="1px" opacity="0.25"></line><line x1="217.0091861334002" y1="0" x2="217.0091861334002" y2="378" fill="rgb(0, 0, 0)" stroke="rgb(60, 60, 60)" stroke-width="1px" opacity="0.25"></line><line x1="307.7533986963485" y1="0" x2="307.7533986963485" y2="378" fill="rgb(0, 0, 0)" stroke="rgb(60, 60, 60)" stroke-width="1px" opacity="0.25"></line><line x1="398.4976112592968" y1="0" x2="398.4976112592968" y2="378" fill="rgb(0, 0, 0)" stroke="rgb(60, 60, 60)" stroke-width="1px" opacity="0.25"></line><line x1="489.241823822245" y1="0" x2="489.241823822245" y2="378" fill="rgb(0, 0, 0)" stroke="rgb(60, 60, 60)" stroke-width="1px" opacity="0.25"></line><line x1="579.9860363851933" y1="0" x2="579.9860363851933" y2="378" fill="rgb(0, 0, 0)" stroke="rgb(60, 60, 60)" stroke-width="1px" opacity="0.25"></line><line x1="670.7302489481416" y1="0" x2="670.7302489481416" y2="378" fill="rgb(0, 0, 0)" stroke="rgb(60, 60, 60)" stroke-width="1px" opacity="0.25"></line><line x1="761.4744615110899" y1="0" x2="761.4744615110899" y2="378" fill="rgb(0, 0, 0)" stroke="rgb(60, 60, 60)" stroke-width="1px" opacity="0.25"></line><line x1="852.2186740740382" y1="0" x2="852.2186740740382" y2="378" fill="rgb(0, 0, 0)" stroke="rgb(60, 60, 60)" stroke-width="1px" opacity="0.25"></line></g><g><line x1="0" y1="365.6319657343188" x2="909.5" y2="365.6319657343188" fill="rgb(0, 0, 0)" stroke="rgb(60, 60, 60)" stroke-width="1px" opacity="0.25"></line><line x1="0" y1="333.01034166402576" x2="909.5" y2="333.01034166402576" fill="rgb(0, 0, 0)" stroke="rgb(60, 60, 60)" stroke-width="1px" opacity="0.25"></line><line x1="0" y1="300.38871759373274" x2="909.5" y2="300.38871759373274" fill="rgb(0, 0, 0)" stroke="rgb(60, 60, 60)" stroke-width="1px" opacity="0.25"></line><line x1="0" y1="267.7670935234397" x2="909.5" y2="267.7670935234397" fill="rgb(0, 0, 0)" stroke="rgb(60, 60, 60)" stroke-width="1px" opacity="0.25"></line><line x1="0" y1="235.14546945314675" x2="909.5" y2="235.14546945314675" fill="rgb(0, 0, 0)" stroke="rgb(60, 60, 60)" stroke-width="1px" opacity="0.25"></line><line x1="0" y1="202.52384538285372" x2="909.5" y2="202.52384538285372" fill="rgb(0, 0, 0)" stroke="rgb(60, 60, 60)" stroke-width="1px" opacity="0.25"></line><line x1="0" y1="169.90222131256073" x2="909.5" y2="169.90222131256073" fill="rgb(0, 0, 0)" stroke="rgb(60, 60, 60)" stroke-width="1px" opacity="0.25"></line><line x1="0" y1="137.2805972422677" x2="909.5" y2="137.2805972422677" fill="rgb(0, 0, 0)" stroke="rgb(60, 60, 60)" stroke-width="1px" opacity="0.25"></line><line x1="0" y1="104.65897317197471" x2="909.5" y2="104.65897317197471" fill="rgb(0, 0, 0)" stroke="rgb(60, 60, 60)" stroke-width="1px" opacity="0.25"></line><line x1="0" y1="72.03734910168174" x2="909.5" y2="72.03734910168174" fill="rgb(0, 0, 0)" stroke="rgb(60, 60, 60)" stroke-width="1px" opacity="0.25"></line><line x1="0" y1="39.41572503138872" x2="909.5" y2="39.41572503138872" fill="rgb(0, 0, 0)" stroke="rgb(60, 60, 60)" stroke-width="1px" opacity="0.25"></line><line x1="0" y1="6.794100961095694" x2="909.5" y2="6.794100961095694" fill="rgb(0, 0, 0)" stroke="rgb(60, 60, 60)" stroke-width="1px" opacity="0.25"></line></g></g></g><g><g><line x1="0" y1="365.6319657343188" x2="909.5" y2="365.6319657343188" fill="rgb(0, 0, 0)" stroke="rgb(153, 153, 153)" stroke-width="1.5px"></line></g></g><g><g><line x1="35.52076100750359" y1="0" x2="35.52076100750359" y2="378" fill="rgb(0, 0, 0)" stroke="rgb(153, 153, 153)" stroke-width="1.5px"></line></g></g><g><g><g><g><g><path stroke="rgb(255, 112, 67)" stroke-width="2px" d="M35.52076100750359,-3.109485824545061L37.016326457443824,36.01329514117674L37.73189498695409,28.573602086267897L40.86181411860445,60.719181806710935L41.61005056463738,48.73780179118262L43.183252729770366,57.48067742866823L43.969500918176884,63.45346250867641L44.72771922759175,86.41353145320898L45.42186204024688,74.79615205845238L46.22278054301774,82.68230197411168L46.867114865666096,102.0344242982531L47.628206741812114,109.2553325365792L48.37397292872528,128.87235205425077L51.795029742348426,129.3116959869768L52.64701707141166,137.90360464449844L59.08325200124446,155.50756162971194L59.83284961046584,180.07282687126542L61.36451109162556,184.4840466129874L63.85473393815857,216.51086540274648L64.62893331167479,231.40848828443777L66.10261932369707,240.89001255369845L66.81738123798455,242.41860610116558L67.55114902345883,240.20675459021746L68.32812113680336,224.22369760027672L69.77917150913633,233.41945822087143L71.2403549852055,233.32042481733217L71.99116251726105,238.6063453930824L74.38181879723193,262.0639988577129L75.25084587287643,252.4293805917585L75.929461342493,226.25438297004936L76.69998053405529,247.23414544300888L77.35061653813162,241.54140622817516L78.679565531116,230.79377188902663L78.76068077445697,244.97689604079932L78.9236170494589,264.0456120562958L79.08559546888377,274.06491922391865L79.1676181543504,288.5518812885813L79.24943918601132,295.14936253637387L79.3311593907694,249.37438434428057L79.57556380327226,267.9170026204183L79.65703194077322,239.66225628459173L79.73885297243415,257.2496461066946L79.82097648480361,248.43102700844412L79.98487061538258,272.14474819997616L80.1478068903845,286.6855732844285L80.22993040275398,286.25232986473407L80.64039672424704,292.7344789736603L80.72216734245654,300.34406764818823L80.80368589340893,289.5414450280898L80.8852044443613,295.446979476341L80.96626927425086,282.81413892069384L81.04708203688332,281.8192430064759L81.4493309657943,295.9821841594728L82.09447190366545,304.01482962973387L82.25554288096467,313.00473310763203L82.33640605704855,312.30118015972596L82.41691633897244,315.0888009652738L82.98578172483928,312.98734034778073L83.23074068530782,299.82250303619765L83.82193923015542,301.20498680068096L84.44489824940005,312.30799642687055L85.11585087440022,288.8905378536019L88.0193127822546,305.868926128926L88.76507896916777,313.2370863596065L89.5439667936664,323.2173546346774L91.64595565078426,326.31820992945813L92.42736414785408,315.9620428626577L94.64424526076691,320.77108391921223L98.10260802844373,327.3152502261536L99.66411427284636,325.2053769662441L101.1294820653837,312.52245577273226L101.84111834568291,318.6920315680606L102.60624329794287,322.1560947952041L103.33547387278898,323.28198688362227L104.0471101530882,320.7028946697434L104.7851630819335,324.35213633150676L106.18625372390542,329.0721145650018L107.7317789042067,330.94280741133497L109.95602038102741,334.7430020781082L110.83548304111665,328.6610682172329L111.65470162675439,334.1417397140103L113.05816170094322,334.4930273167291L113.79076997703477,333.32706739108477L114.59249509502841,333.4463620952105L116.07883488335807,331.307106605425L116.75402223827784,330.43893570633645L118.60782567403605,331.43889144977413L119.36911920398774,333.46986015157495L120.90662864551263,330.7748855717485L121.70386696632956,328.7906512033243L123.97282517456324,331.42574962296317L127.17997771379494,327.3710692046358L127.72267851837279,331.84832616856295L127.80258383887961,329.9637641764488L127.88233791903215,332.930865888522L128.0417452524344,328.01079311859587L128.12104561152415,334.4032841304209L128.280049637315,326.81262446333176L128.43910407655724,328.6544495401149L128.51845484909842,333.02474585757795L128.59775520818815,322.8333778396227L128.6772572210836,328.43242095100834L128.83550504510308,331.6858374904738L128.9145029234843,334.0980613256894L129.46975667746668,336.87060555010737L129.7869581138256,339.48352022651505L130.10420996363595,340.2182674046722L130.18345990927423,319.7675640844556L130.262760268364,325.65560232693474L130.5795583971115,328.3188346973728L130.6589595831041,335.0848395817642L130.73851200945097,329.3663426565086L130.81791319544354,333.06778271151876L131.05767957041542,334.6314680597268L131.13652620844232,338.1168125705117L131.37760333315123,336.95115186089026L131.45922271100645,337.0376378655465L131.62125154388272,328.05817515334456L131.70055190297248,334.43799640867104L131.77995308896504,339.77995853217095L131.93784801882458,340.20782906171667L132.01674507030293,333.8202847542287L132.09584377558696,339.4660943401167L132.17504330777385,339.4171185293695L132.25419242650932,336.55199473562965L132.3335936125019,334.6073998888687L134.04704599949605,335.78662884787593L134.87090262266477,336.18515528097805L136.35008370089224,336.35920808416466L139.3371815246588,336.423030732176L140.06726912817916,308.7392990947743L141.5947462928707,323.1167470439295L143.22375614872988,298.5940625602756L143.88936494787913,318.4413760152809L148.10075343947412,322.6482495470544L150.46746333001866,330.1998704963436L151.2052137781554,333.440853232169L151.99302478355608,335.823407689254L152.7452943057029,337.95190592213834L154.29656661946655,340.8198229791869L157.51874236722253,341.77620113923643L159.01587063415693,342.8228533041142L160.53175270502098,334.596305030647L161.29531484028678,335.880199702637L162.14584017925873,331.4163178784354L165.30232719980947,337.80096993666905L166.01013205780046,339.5368263178507L167.57940197372236,338.3125295265204L169.10657665770535,336.7262481151519L170.610157846422,340.1454165108181L175.33334369687202,337.2019503797057L177.03656215322712,342.29897911501786L177.86823286136655,339.2780415275424L178.9322087536671,337.8450159611582L179.0910615391037,337.91862601426095L179.17061396545057,340.629462723874L179.25041845905454,338.1684893404256L179.4096745521025,339.4407982997838L179.48947904570647,342.6257112057612L179.56852733753908,345.3201539672943L179.88678745637793,344.19935659759676L179.96623905582192,344.157561995232L180.1246381201957,334.19443807472294L180.36218630330492,336.91720572097455L180.67863153789247,337.7218461906745L180.7576294162737,341.2736756624753L180.83687936191197,338.05071619354794L180.91602848064744,339.79762746491207L181.07402423740984,338.5949824668262L181.31152200706765,342.0651293109615L181.39097360651164,343.9214809407146L181.46992107144138,344.8408724199632L181.7073684276478,340.36397947846433L181.78656795983466,326.99748735733806L181.94441247624277,333.3714910923676L182.41966008281548,336.49854302698134L182.5777566664807,338.62915028114503L182.65700661211906,339.01099240316285L182.73630697120876,341.6207100464497L182.81570815720136,341.69186797744925L182.8946556221311,343.5816528148452L183.05335716721342,341.69885040534655L183.13235504559458,343.17185113411404L184.2954437833945,340.86237942304734L184.97083279211995,342.0096321538254L186.59691866779656,341.74574904847464L188.17818698515737,343.8010340121514L189.007387434177,344.48953895199384L189.7885438639897,344.05766775993806L191.4255694586253,342.6031295978476L192.1956853425762,343.45551288124614L192.9427622792264,342.93295058524296L193.68671358188828,341.5085029539814L195.16927236136115,341.923981370433L195.8646755103019,342.3472104281049L197.3768269857606,343.20105540287665L198.1626718665557,343.070056454755L199.6323248024641,343.8976714519471L201.3045893996449,342.21599566506785L203.09467023280337,345.8364841450517L203.9550766082544,346.38671991361196L204.74071983524385,347.90406616350816L206.44822343496998,345.86775545827203L207.19081357444344,345.8103543417971L209.63485769947218,340.1217655529338L210.47676233825064,338.13914087927856L211.15865468220977,338.4303242903019L211.87845794163962,340.12529965548674L213.45171052022405,339.84838881839323L214.4157165383511,341.16845978522923L215.28101301859022,342.45741517638146L216.05001980660978,342.8833480298467L220.07220661501103,345.885946551213L223.06696728339404,345.4935196360986L223.86954943006194,344.50353101175494L225.404588612467,346.29730062271824L227.9341339511106,344.53840771320324L230.0856288175267,345.5977065519292L230.16366884033087,343.6805396140283L230.47577851809595,343.70878683653467L230.55376812744865,344.4868375406488L230.63185856370424,345.6882636464295L230.78829150347244,345.62636036413437L230.9444219625322,344.3995627282885L231.10004828707764,345.6123344938234L231.25864900525713,345.708698992087L231.96131169120287,344.98549595029885L232.04000708887548,346.472143247467L232.11703884265108,344.97549277119253L232.19467555784388,346.4404111684147L232.35030188238935,347.6519934129692L232.4277873572278,345.57124737150923L232.65883220510338,348.49777876988423L232.8909357354588,349.64431819482365L233.35700809387242,350.74846298108974L233.43499770322512,350.3901067105993L233.51107160142374,348.28614444174195L233.5890612107765,347.7793361543983L233.67229381907728,347.465086790459L233.83356645018216,348.78337026218816L233.91392549175177,347.40421226470494L233.99367957190435,346.01152664923336L234.154800962655,343.6649357950746L234.23425256209904,346.2915571812817L234.40061695179773,348.5154496190574L235.62364728334063,343.76541614917625L237.13494173012504,344.9315738946201L237.89139556874005,345.63918613996793L240.85792470432574,347.5967118510019L243.99908603564361,348.65764007779785L246.26265000457494,345.5045160015299L247.054191605381,347.04284619338847L248.51552632180443,349.24960397253943L249.25161312604416,348.19081938716135L250.90754376496372,349.45181244313767L252.46305080864687,349.8079762981845L254.74758677337059,348.1969018925725L260.3894569491176,347.2817175923823L262.69662855353056,346.24081435167824L263.4691642831498,347.0667521096677L265.98217400972635,340.0126774873653L266.7261253123883,341.84818157475286L267.52326280630234,345.1702274922824L269.2738699069959,346.6363334062521L270.07035202604146,348.65193615135263L270.90726573312895,346.356231570949L271.72739176089226,346.1074781399768L273.32776677634274,345.2075954731181L277.3153699570673,345.7466027189915L278.07137007461944,348.20562499693875L280.52010265063063,346.2989951219148L280.7015406623051,345.8511280647677L280.79117577893675,346.85905876696467L280.881012549374,341.1477242704551L280.9722608964512,344.6013169275666L281.0612406382143,345.8205981896176L281.1514303028116,348.0305221943797L281.2406116983804,348.0822528945527L281.3323641799719,349.0255292773445L281.4237133539519,349.07533304395747L281.5133988840349,349.39047469639917L281.69261870384673,350.695185034511L281.96454886082705,350.6130610903437L282.05418397745865,346.22934447529485L282.14402074789604,346.6214629782883L282.32349263496496,347.42677438700287L282.41322857849946,349.93557743701075L282.68334385122847,350.40510770756845L282.86195870962325,348.5818498218153L283.04324548094337,347.7810577701326L283.1353508566948,349.7101832735069L283.417615771217,349.29894968976004L283.50906577209986,346.0588061883339L283.60096949404556,345.33263520146494L283.77484548800646,347.4048139131705L283.8658921812779,346.823386998456L283.9563339131324,347.6998900613308L284.1302099070933,348.29948498208705L284.3238983874637,349.16428202780287L284.4190285703005,349.7480640266332L284.7062844165137,351.01223435087263L284.80126335899627,350.71353778384196L284.8946794844847,349.05125261414537L284.986179898819,350.0535227066304L285.0782348611189,350.2126851981983L285.16938238129325,350.2123054024851L285.26108444943327,350.2348049203516L285.3519294888991,350.177607480045L285.53235923154506,350.60686018362725L286.1775505828676,350.46308509198883L289.31009121399205,349.9015824673514L290.14070323965154,349.8289955159569L291.04517097164705,348.525338166449L292.83131955559435,350.7465024375335L293.6210462721491,351.45854717531375L294.45377566276846,349.5921712287085L295.33575899542893,348.9168641942598L296.8991305375343,345.06681860195096L298.6720707972086,347.1616537635359L299.47772816441324,343.09559566935235L300.3066765461758,342.8541355457104L301.9917965734697,346.0198632680269L304.00319245837886,346.9958920589049L305.5891492267221,348.0616915908624L306.36047503350716,348.6321684316686L307.166384467969,350.52355764467063L309.4696238231709,348.83184381213994L313.0270490228956,345.8863688367818L313.8212121231757,347.6065104793758L315.4569269680742,346.38711554186847L316.19992041515906,346.9895624345849L317.92804311651764,346.5812004865758L321.3584768321055,347.82615581275024L322.2735313889001,349.4312348663815L324.1248645655385,348.1735095896825L325.8791014347346,348.1456178407444L329.4471134592582,349.11801260894674L331.9130370222049,348.00290846407495L332.7696623887992,347.81126127515876L334.4295252769298,349.74075824945015L335.01472462105795,349.62965185279376L335.1059729681352,350.30465011551183L335.1874411056361,348.56193790607415L335.263666244189,349.36978762536154L335.33913518097046,350.2447270892456L335.4148561850091,350.94685892437917L335.49057718904777,350.61207305163225L335.56715522176063,347.38888478857444L335.87245908358346,348.5769096869454L335.9484321548793,349.5071166698574L336.10047912437363,348.6859224754624L336.252173199708,348.15304553696535L336.4794874521782,344.4632667043835L336.63113111406113,347.35225870242516L336.7069025315513,344.84442029281166L336.78282518939557,347.8984512051103L337.01064357638,348.120722118315L337.0865662342243,349.74410258240897L337.16238806516577,350.7014818165067L337.2385627902673,349.14099141065543L337.31418296740304,350.3914848695618L337.4661291099946,348.39528283445793L337.5422030081932,349.71211547689455L337.6181256660375,351.21088613404874L337.7697693279205,348.97028081240165L337.8458432261191,348.1805302764749L337.92171547051197,342.66172769863647L337.9976381283563,343.9704937406599L338.0736111996521,344.5751954193382L338.1492817902393,346.4045260762554L338.30092545212227,347.6747237531255L338.37704976377233,348.2634267394997L338.60769130403645,350.16480681684163L338.9141546752421,349.5846327672262L339.144292080992,350.3027435166186L339.22112218096197,346.64805718006886L339.2980026943834,347.8742602252753L339.37478238090193,350.062685526563L339.45146124051763,344.2757844243655L339.967342088938,348.50792339707635L340.77546971526243,350.3221987020144L341.6569993268601,350.383283648917L343.44334956461313,351.29405580039327L344.42757137676114,350.9991621421113L345.23509404166856,351.9701258501806L348.85684680541004,352.3791817465852L352.39052726951417,351.7707195976147L353.4385725111648,350.5969136407616L355.342688571444,351.4588084320757L356.4392315533643,352.03271837390906L357.39023090102404,350.51392066900655L358.3630088596989,352.07227932898206L359.1730521971774,350.66679902218425L360.09440843539994,352.12119873466423L362.71706741882343,352.9697239538972L363.6146789214252,350.36640608017774L364.46349020304876,350.4260302854166L369.53210902265505,350.02604136523047L371.48542861152396,348.76626884672095L372.5512193880758,350.06838538364855L373.58267860420796,349.96241579797913L374.59200631516507,349.9225899518624L376.80954280294645,350.867827115609L380.19344490287017,352.15572687790535L381.2148214287175,349.8243062978269L384.07386908586756,347.7318810687553L385.01327333969977,349.35828541406863L385.90246579591377,350.4204550397729L386.8226121113021,349.6866795773471L387.94622711663703,348.9303524953922L389.8057776858576,351.1750472684489L393.22386010584677,352.16586092317493L394.1878157105224,350.0568679848132L396.1708288222799,350.5074686536466L396.40595715972074,351.3294538687085L396.48404759597634,350.9775028455972L396.5621884456833,350.93871187499053L396.71862138545157,346.219239521079L396.7972159562214,346.3852278074808L396.8754072193797,346.0934618393075L396.9534472421839,349.35889386255184L397.0316385053423,349.01509147967806L397.1098801819521,349.2634873751285L397.1883235123677,349.64532780652644L397.2663131217204,348.8109676682168L397.5004836035842,351.21660909203223L397.579078174354,352.47937751222423L397.885339891754,352.39500869711077L397.96131296304975,351.5015723141909L398.114065720864,351.4839479625254L398.2672721997411,351.30336867658644L398.4196720633955,351.71666731028483L398.49594761539976,353.62496120831804L398.5729793691754,352.7438497086185L398.64915409427687,352.8271033207676L398.7262362615039,352.93960731283727L398.8034696690853,353.46770236566715L398.9590959936308,351.449501371174L399.11411735675915,352.3862710975753L399.2677775566991,353.06879148840056L399.4976124817405,353.4955031103195L399.57398886064755,352.47010214429247L399.6502139992005,351.401280570175L399.7261870704963,351.1306295247979L399.80241220904907,350.76203415533286L399.95476165925203,350.6107104598365L400.1070102825521,351.8408749289793L400.2594101462064,351.84874613912376L400.3355344578564,352.3712191144497L400.4878839080593,351.274856808354L401.0466666036414,351.96985236595685L402.4243149907012,350.01912886008085L403.2106135925592,350.65844239397956L404.03739419591045,352.3209111335329L406.5773751189989,351.72406718398724L409.05544832373863,351.3038843564687L409.893773607466,348.7013555601762L411.5394703157465,350.27652651494566L413.2995551453078,351.81869842572456L415.2280209026247,351.3816004040998L416.06569081148353,351.6944846266773L419.58727204724585,352.10682046262474L421.5090832289748,352.479346768829L422.59070382927376,352.50333721427387L423.4309448241553,351.898490069059L424.28676357552666,350.6720988015971L426.088489915964,352.13018598161983L426.9013059932709,351.0410471306685L427.79085134364493,349.3251627765934L428.57251190797194,350.32085295567947L432.49735034167367,351.7829742379022L434.13659412817196,351.6066897185709L434.9703317878197,349.4197878399277L435.80230497666764,349.8799318226307L436.6811122618884,352.21493499458137L437.70531194101557,352.2088322553523L441.3845864528317,351.8835873326299L442.2636962187609,351.6050987149473L443.125413343949,352.14381010331L444.09788882191526,351.49028314898953L446.6597491829216,351.9862013550719L447.47589254802244,351.8771675953786L448.397147959342,350.3673192331382L449.3326199639632,349.6482630416846L450.27908210099474,348.4441439301993L452.03442806612213,350.86815891791895L452.11145981989785,351.8679913830884L452.18828991986777,350.25885922017267L452.2650191929349,350.37835903127785L452.4169653355264,351.96490604837084L452.64448124180234,352.59588376508L452.79602407678243,351.9720446126363L452.87260210949523,351.78129375529454L453.02651437669226,351.52707041314693L453.103546130468,352.51406076765323L453.18037623043796,352.2924416282873L453.33408684382925,352.4457213368542L453.4109673572506,352.26112450551966L453.5648292109963,352.8750615147327L453.6417097244177,352.6537950579156L454.0237428593076,352.71706931244995L454.17553776154494,353.3503849754177L454.25120835213215,354.2098852680883L454.32793762519924,354.4049525873795L454.40481813862067,354.440540649803L454.4811945175278,354.19890198939515L454.5572684157264,352.8123980371352L454.6335943811821,352.40233035856625L454.78599424483644,350.5600926450763L454.8623202102922,350.39034816060325L454.9387974161022,352.5080073631041L455.16817862008077,352.4611848733612L455.2447062393422,353.25076988830676L455.32103220479786,352.94524880570697L455.3975094106079,353.2092471596175L455.5512200239992,353.2825666806895L456.014217161876,351.8799755802556L456.09155139636016,352.1977582523409L456.1681798425244,351.5546609119408L456.3221425231729,352.5365409768807L457.44227900035963,352.32487350165786L459.830011300148,353.41179199898403L462.34967560231246,352.3689552109456L464.770983260749,353.0751228658171L465.5905043270953,352.01027302037426L467.3067294539178,352.2148993461491L468.23453861392255,350.2986581298659L469.151609708774,351.6312188399434L470.0920222316346,353.0969065027042L471.83784005444295,353.2077931649008L472.67550996330175,353.5630511871258L473.4719920823473,354.37553830924026L474.3305331600957,354.36797817367943L475.2523431193809,354.2642070556735L476.06077322641397,351.4533786769036L476.94920948085667,352.98223658567105L477.75663131886125,353.7001205682851L478.59268799727454,354.78268145292196L480.2781105052771,354.7501046203743L481.1768311038101,353.1506309119144L483.10761587989253,352.62684079386906L485.05100401883095,350.96739511946635L485.96489906624265,349.892156631866L487.9745304803521,351.83721173043995L489.8043875266839,350.68704724692395L490.700133731583,352.6475631545271L491.62527097866234,354.19335231345025L492.46631858876657,354.82508283204135L495.0755675941113,354.27014789603004L496.0824250459485,354.4628852699409L496.96173646568354,354.0495814324841L497.8123626315584,352.8386347185998L499.68673475549747,351.59210418012793L500.417074426275,353.5818535901273L507.39873248706255,353.56006633710103L507.7450728983444,354.2933372686428L507.82069307548016,355.24253795888535L507.9718830163004,353.09999823654107L508.0473519530819,354.1537870883182L508.1230729571205,352.84372394894837L508.19869313425636,351.5109760733521L508.4260073867265,352.3419381621848L508.5017283907651,352.1287728135031L508.6535232930024,352.44286783954396L508.7290930566868,353.55390889415503L508.80481406072545,353.41147073370087L508.8807367185697,353.9468987235851L509.1080005575884,352.2190450459579L509.71407107060617,354.20639891686636L509.79029620915895,354.6645957252488L509.86747920328895,353.9146372040154L510.01947575933184,354.79001107807443L510.17147231537484,354.8112256858626L510.2472941463163,354.3709947308228L510.32336804451495,353.5288808309722L510.47496129294643,351.82963123387685L510.55068229698503,352.33088158205305L510.626554541378,352.77167496812115L510.7025276126738,352.8793402475977L510.7780469629067,352.1170080498268L511.005613282634,353.76753031240065L511.08143511357554,351.86461893402117L511.1574081848713,352.63724061440695L511.5405504156926,351.10043915608867L511.6941097887297,351.77921883716107L511.77073823489394,352.92279277918556L511.9238943003197,353.97586321671616L512.0829487395619,352.71173597646305L513.4569169446678,353.50116094588293L518.624598196322,352.0064350904194L519.4269282757327,349.3720336792718L520.9637319289376,350.1716387220881L521.8659310556191,351.8311792384399L522.8698645272738,352.43777335765327L526.3606935576676,350.80810040954725L527.3244475085374,351.39034158975693L528.1522363809173,353.2131737003384L529.1545062086751,354.24840469367206L530.0399680694838,355.0921183270406L531.8267720282996,355.11279490482593L533.6826928290176,355.2818404964337L534.5732968618715,354.4315031858008L535.4022452436341,353.2573640013372L536.2265051744142,354.31449939818157L537.2021566998202,354.5937306499904L538.0647308536825,354.47154908762377L539.141915070256,351.5442369241161L543.0230450415734,352.296445224738L544.6907220146746,354.19355970285994L545.657752839887,353.9131024555327L551.1991994203978,353.34276656558166L553.0629343060865,353.40863865893874L554.9192584144159,353.78145608390554L555.9002537656728,354.41058604821905L557.006173649558,354.4791818815818L558.9456799527367,354.54451589956045L561.8795411717997,354.3683358652478L562.7484170070899,355.71162513627206L565.3189988951925,356.36497945159283L565.4767929981492,354.6086462214541L565.7141899409041,355.07733910694213L565.9527463930419,354.3358556492205L566.0321475790345,355.11682473049996L566.1910003644712,354.0663420334352L566.2701998966579,354.3254360521374L566.3495002557477,354.8305566163367L566.4292039224488,353.258753551115L566.5087563487956,354.08705959778956L566.5883087751425,354.11528408688446L566.6676091342323,353.88163193427926L566.826361092766,354.4078752952203L566.9059639325642,354.4165323703058L566.985617185814,354.4770073162724L567.2244761186603,355.2352070549681L567.3041293719099,355.2246520847353L567.4605623116781,355.3118108473914L568.0845800134026,355.5305853488262L568.162872103464,353.7691154068312L568.2404079917538,353.9383411696828L568.3181455338495,353.15997170865893L568.3963367970078,352.47819988375073L568.5530218040332,353.4997045875789L568.6308601730316,352.5571537343776L568.7083960613215,353.2309317175701L568.7858311227086,353.7927671091165L568.940852485837,354.4050028551995L569.0186404413839,353.8711794666255L569.0961259162225,353.7045462571355L569.2509960389965,354.736334245053L569.3282294465779,354.04913059591536L569.4827466751921,353.21951396615657L574.1566281701495,351.8220211193509L576.8584362723085,352.19991704871956L577.7918413254212,352.7561576613357L578.7163736110833,353.24928436714976L579.5419442916005,353.27831804684115L581.8370166676718,353.3496230316973L582.8009218588959,353.1004460711006L583.6515480247707,352.9188342678502L585.5876262132527,353.05319130790656L588.5099931653909,354.263751620233L589.3252795018177,353.7176000655455L590.1551857391572,353.5016440190416L591.140214166528,353.88412152528L592.0532521852656,352.04752372047807L592.9481413614906,353.10134002165057L593.8279569157397,354.45106405293666L594.6423358100408,353.7581265338888L596.4029751875677,353.3190676178575L598.3247359558452,352.03431127016734L599.3924928570026,352.0430431460032L601.2536566566687,352.7305315873045L603.1948770171958,352.9544638649582L604.9713966319212,352.8651568411735L605.9274373247233,354.6600384078095L606.8240405582966,355.4524353165869L607.6721964650517,355.2996778525943L608.5939560108856,355.1871551367091L609.4488673201314,354.49976450912135L613.5601346971986,353.37818369388754L618.1891482203889,351.40257783627686L619.2435455569189,352.4756019991082L621.1334450238966,353.37435599963766L622.112474250548,354.4038956280456L623.0375106707244,352.64481681521477L624.8055608256105,351.9122756211234L624.8806264547807,351.7880623261986L624.9560449781108,354.4714717556229L625.1068316113195,354.76362994602204L625.2577190714311,354.6447800250054L625.3330367678584,355.1225674768523L625.5589898571402,354.1751122685977L625.7096756634461,354.21099702725377L625.860361469752,353.51117652076687L625.9359312334362,354.66374346197324L626.0865162128395,354.79476870359235L626.1618339092666,354.60606364894534L626.3876861716456,354.5007087486946L626.4629534546214,355.8799533819136L626.5381199106944,354.9798332837537L626.688301582486,355.0899515793727L626.7636696923647,354.51258564895426L626.8393402829519,354.168537636879L626.9899756758065,352.88076590491977L627.0652429587823,353.2257037231107L627.1409135493695,352.992109168384L627.2165337265053,353.77809519376655L627.2918010094811,354.11594379995745L627.3671691193597,354.0079203715551L627.5384236138466,354.9644951332681L627.8101521170212,354.9809931753357L627.9012996371955,352.68252856852973L628.0830401295785,353.90290023003786L628.4478318640816,354.4602961281185L628.5396851725759,354.6647372840066L628.7223835205359,353.63110039851716L628.8104054067219,354.22930874819906L629.0786553817484,354.38503210316753L629.2577743746573,353.9826424803783L629.4353809640236,355.6465443080162L630.6536220176812,355.33463709729983L631.4124452885131,355.69416480815033L632.3461528223344,354.55176728038236L633.3794269227179,354.49035060104114L635.1119860078016,355.24426455751956L637.6950704318574,355.53186311498143L638.556384249434,353.6357265335149L640.1754626553628,355.037282065697L641.0806361756781,355.32423613579135L641.8426859074012,354.65672910171963L643.6602924850372,355.35438546874474L647.3494984467836,355.603659665139L649.1784480509899,355.47940470864114L650.1746178511255,355.4212820729538L652.0739950469707,355.91767030079137L653.0126430990316,355.44177937556077L654.0772239527493,353.91769666360824L655.1156906386294,353.89151536535724L656.0121426318484,354.10347906363995L656.969292420582,354.61884607235095L660.955786505375,355.1062763218453L661.8854609630826,355.3299926094719L662.7281218036322,354.9630471344033L663.7827712074194,354.8723212226966L664.7781848057836,355.12258067148423L666.5448233840299,354.83639673272614L668.5573787783218,355.07217294345605L669.6974789822724,354.4857115019011L670.6622412021709,354.86049778920443L671.768513980216,354.7488775541003L672.7792532678129,355.0119071678255L673.6904259888478,354.91840512885585L676.5860738117315,355.67136452096656L679.5778600864805,355.16161242332726L682.1580205303536,355.7613558115405L684.3727842783067,356.14760586743L685.2156467726622,355.9623868755242L685.291619843958,356.6958622224585L685.3674416748995,354.55942568464246L685.4436164000009,354.3158461528495L685.748466540761,352.58739647873006L686.0531150277154,353.9034682455844L686.205061170307,354.18476137644325L686.2819416837283,353.04171973882956L686.3581668222811,353.8932882194284L686.5105162724841,354.08474131438174L686.5869430648427,354.75852124203846L686.6632186168468,355.00957978695516L686.8929527149855,356.05065723792956L687.1210735826784,356.0294501444611L687.1977524422941,355.42725713351706L687.2741792346527,356.3325342694879L687.4261757906957,356.7762054314149L687.5036108520827,356.06200820176286L687.5809955000183,355.9964860699235L687.7337482578326,355.96492674817085L687.8098725694826,355.334939245659L687.9624740869427,355.2677633343623L688.038648812044,355.94312030060007L688.1153276716598,356.5624045551826L688.1932164541097,355.50865376786413L688.2698449002739,354.64396003762755L688.3463221060839,351.8382894792724L688.4992261042524,352.35593150088795L688.5758041369653,353.3855590612761L688.8052357543953,353.87535299106673L689.1865126875139,352.93855025797654L689.4911107610169,352.9114381654446L694.63963490113,353.64548045882094L695.515366965814,354.50222838606965L696.3560616817583,355.8570087724454L697.3304024574272,356.59786388311136L698.4155519993258,356.19580340762684L701.8068648766089,355.237728947114L702.7471765725667,354.8594603426867L704.6664166682731,354.0256269534865L705.7434496444923,353.8405882537442L707.8331880329142,352.4042876010313L708.7756675072834,353.2055574651325L709.6738839713023,354.96890898529557L710.8349561710452,355.22879334485464L713.0117081766246,354.1174646331769L715.1466170175222,355.40783760883124L715.9928572131231,356.2161587092466L716.961602095684,356.74154947485033L718.9046373404624,356.19968792003345L719.9190568100133,355.93082513263215L720.9587334187275,356.27441813416846L723.0195344860322,356.10865339835L724.9093835395585,355.5573330344439L730.7813911210553,355.97269370377904L732.9615712413316,355.709411914719L736.9519975753359,355.8335040841193L738.0010510860149,354.61670833619115L739.1205826017846,355.5448375642033L743.181436527428,355.3877761044337L748.5080713914217,354.55339998218653L748.5866659621914,354.0596481528308L748.900136803145,355.20695562582097L749.1349626598773,356.022652909037L749.2137084710014,356.71762363601175L749.4483830873795,355.9134809866184L749.5265743505379,355.34996865817203L749.6833601844661,355.10175322093346L749.7618539283329,355.86805287561845L749.8401964318457,355.80873316092385L749.918740589164,355.99618924763195L750.0750727020294,355.4936910791621L750.1533647920907,355.7527064789768L750.3893501582057,355.238329231323L750.4674910079127,354.903712005948L750.5460855786826,354.1489045561547L750.6244784956467,354.6311584181133L750.7029722395138,356.4330584956821L751.0170984553357,355.494363584012L751.2524284465823,356.4138153421996L751.3307205366436,355.2193887817658L751.4091134536077,355.1640840578269L751.4875063705717,354.4783492781024L751.6440905506943,354.65562367112074L751.7224330542069,354.72307976777034L751.8009267980738,354.8357805865062L751.8793701284894,355.0946224267134L751.957813458905,356.11682176708274L752.0364080296748,356.7447579729021L752.1149017735416,356.40337177311966L752.1931938636029,357.1983930052229L752.271586780567,356.1919767009961L752.5064126372994,354.9118396006812L752.6631480577761,356.2510106702286L753.0552638829511,356.0945930536795L753.3231609638174,354.8838300996469L754.0601047967314,354.9078389836683L755.8164086174359,355.2436583526628L759.6791376789834,352.7582712216133L762.8345660170543,354.43544267794186L765.0347602775457,354.1189911727198L768.9044463953899,353.7959188926996L769.7542155325904,355.5075483228851L770.5920870952551,355.9360576081648L771.5131912662204,356.57764049775324L774.4437756109407,355.01700741030476L776.3040823819326,355.6942981342764L777.2369833005313,355.3014079975043L778.0700655853104,356.68551088526385L778.9960598610639,356.4134257744455L779.9737279245269,356.5962172986824L781.8708869285095,356.1498067895887L782.7804968325502,355.44624339530657L785.8546586869257,355.20612518320564L786.9953638522935,355.76261826718917L789.2180425121202,356.3661430203554L790.0531917484076,355.56636450903176L791.0273812837223,356.2654470450216L796.5734154883127,354.96947349952984L797.5561753103694,354.8015164251445L798.4891770558709,355.76319735612236L805.9344876294036,356.21722990574915L806.8550876658547,355.79812175252766L808.0155549041806,356.07132606391383L810.0623410319893,355.7774528185701L810.3417323797803,356.11539195530264L810.4202765370986,356.1772968564639L810.498467800257,357.39011320319037L810.5766590634155,357.57638925460503L810.6547999131225,356.58204247845873L810.7327391090238,356.1388077762828L810.8889199815349,355.75650906248046L811.0450504405945,356.32415943385627L811.1234433575587,356.0069798741881L811.2015842072657,356.01472159904995L811.3577146663254,356.06604997445095L811.4355530353238,354.81459619029994L811.5920363885434,356.01363824270396L811.748267674506,356.0466851853903L811.8265093511156,356.6927947370393L811.9828918774326,356.27718296572823L812.0608814867853,356.8477169390686L812.3724366165848,357.1674829016304L812.4508295335488,356.79420268325015L812.5287687294501,356.44099259658384L812.6068087522542,356.15891631447806L812.6842942270928,356.88210922393006L812.7624350767998,357.72425259343396L812.8408279937638,357.7798971312247L812.9971096931778,356.467317379475L813.0756034370448,355.9384432131722L813.1539963540089,355.0084783066491L813.2322884440702,353.85031493996183L813.5454063908637,354.47290275187595L813.7023938785976,354.3629957004232L813.780585141756,355.20544231955296L813.8589276452687,356.3400454345219L814.0159151330026,356.5572737793272L814.1726505534793,356.8912470534095L814.3294363874077,355.0762604027699L814.4855668464672,355.7925865503415L814.5639597634315,356.9238531184354L814.6421006131383,356.7957783932794L814.7980294183923,356.1988319845341L814.9630830583541,356.1404620462419L815.7427774980756,356.40176109135496L816.5481323845717,355.6604126799385L817.4793696592733,356.4965770492494L818.3727464319555,356.70279588809984L819.251301649919,357.5624848882547L820.231591212856,355.7346957894136L821.1802715417502,355.8340027419214L823.9845701906539,355.86376945682406L824.8691750227885,354.229498359996L826.6012803868093,355.43876475751256L827.5612029153712,356.3782310301318L830.188197455617,356.4313591810853L831.4226716406331,355.8317153823082L832.5117534317428,355.911589435706L833.5542531937367,356.6676996171184L834.660072250719,354.3636787583472L836.9260560653189,355.3130035446421L841.2259705776139,354.9554470588692L843.0740772933614,354.1226616880119L844.0238667181868,354.5818277705757L845.1122931344281,356.549589412859L848.049128747125,357.18756613701873L849.0513985748827,356.2261754786922L850.9435666471744,357.4093000955581L851.9193694129348,356.77872846597097L852.8823671620333,355.016108727722L854.8760175120412,355.25217908007187L855.9319272521141,355.92138220694886L856.8062981536095,355.17457454534303L857.8903385995767,354.01119920470387L859.9974696287397,355.0060638010389L862.0046307837295,355.98203515593457L864.0031208250741,356.056819650742L865.0986051245145,355.514085417129L867.2159196708652,355.5245912478474L868.3646909884607,356.82695515336115L869.4107196920544,356.8355558808349L870.4411202257068,357.6268435866358L872.7208164990936,357.267409987546L873.3498251325092,355.3084359717883L873.4281172225704,355.91456401835603L873.5060564184718,355.3229865265663L873.5840964412758,356.2346535068971L873.6619852237257,356.69895477201453L873.8185694038482,357.28694530877976L873.8966094266523,356.41373114498225L873.9749015167135,357.35130414341154L874.0531936067748,357.1304789216628L874.131132802676,357.7327067134824L874.2087695178689,357.1817970260767L874.2868599541245,357.6473092353413L874.3644462558657,357.3645703836595L874.520173407314,358.0863688184365L874.5978605359583,357.6031330535868L874.6756484915052,357.6069755492347L874.987606928916,356.60429923327655L875.2213741031685,355.6236987119604L875.2991620587155,355.56164587641894L875.3775045622282,355.1884572665746L875.6115742171892,355.8822730498447L875.6894125861877,356.1235979129923L875.7674021955404,356.4680615881258L875.8453413914416,356.51247476483087L875.9235326546001,356.05680623963775L876.0798647674654,356.66525382136336L876.1579047902695,356.7342303348915L876.2360456399766,356.35020074260177L876.4698632276803,354.5072280299118L876.5480544908389,355.1150773766777L876.7049915651213,355.70839495185L876.7831324148282,354.0917864000192L876.8613236779868,355.7642930292195L877.0958470540105,355.95510580697953L877.2519775130702,355.93602623838535L877.3299167089715,356.34153196746587L877.4082087990328,355.257700680866L877.4860471680311,355.86965806098146L877.563935950481,356.285859998554L877.6423792808965,355.9969968958142" style="fill: none;" fill="none"></path></g></g></g></g><g opacity="0.2"><g><g><g><path stroke="rgb(255, 112, 67)" stroke-width="2px" d="M35.52076100750359,-3.109485824545061L37.016326457443824,59.48696372060988L37.73189498695409,21.431496753555507L40.86181411860445,98.52238355795203L41.61005056463738,33.094912042909016L43.183252729770366,69.57522187054019L43.969500918176884,71.99464073764926L44.72771922759175,119.88953239099959L45.42186204024688,57.662774010960106L46.22278054301774,94.39231551541002L46.867114865666096,130.88708545930157L47.628206741812114,120.04739903031066L48.37397292872528,158.23382835840158L51.795029742348426,129.96985116556482L52.64701707141166,150.7813681646819L59.08325200124446,181.90108143316684L59.83284961046584,216.91032953662284L61.36451109162556,191.09975621735578L63.85473393815857,264.5462146238923L64.62893331167479,253.75356090523377L66.10261932369707,255.11177896826482L66.81738123798455,244.71144612334444L67.55114902345883,236.889020992945L68.32812113680336,200.249301449913L69.77917150913633,247.21303379223278L71.2403549852055,233.17187513435545L71.99116251726105,246.53521273148573L74.38181879723193,297.250443041635L75.25084587287643,237.97746206767195L75.929461342493,186.99190100400895L76.69998053405529,278.7037821953307L77.35061653813162,233.00229853858906L78.679565531116,214.67232166335558L78.76068077445697,266.25158125255024L78.9236170494589,292.6486852600288L79.08559546888377,289.0938797169945L79.1676181543504,310.28232416143817L79.24943918601132,305.0455843468185L79.3311593907694,180.71191731109758L79.57556380327226,295.7309299726579L79.65703194077322,197.28013683750612L79.73885297243415,283.63073081868987L79.82097648480361,235.2030983674341L79.98487061538258,307.71532997700365L80.1478068903845,308.4968109073283L80.22993040275398,285.60246473526L80.64039672424704,302.45770263644323L80.72216734245654,311.75845065955303L80.80368589340893,273.33751109830604L80.8852044443613,304.3052811485985L80.96626927425086,263.8648780873762L81.04708203688332,280.3268991351563L81.4493309657943,317.2265958889063L82.09447190366545,316.0637978351044L82.25554288096467,326.4895883244652L82.33640605704855,311.24585073786744L82.41691633897244,319.270232173594L82.98578172483928,309.8351494215418L83.23074068530782,280.0752470688258L83.82193923015542,303.2787124474058L84.44489824940005,328.96251086615405L85.11585087440022,253.76434999370002L88.0193127822546,331.3365085419116L88.76507896916777,324.2893267056272L89.5439667936664,338.18775704728364L91.64595565078426,330.9694928716292L92.42736414785408,300.4277922624571L94.64424526076691,327.984645504044L98.10260802844373,337.1314996865657L99.66411427284636,322.0405670763798L101.1294820653837,293.4980739824645L101.84111834568291,327.9463952610531L102.60624329794287,327.35218963591944L103.33547387278898,324.9708250162495L104.0471101530882,316.8342563489251L104.7851630819335,329.8259988241517L106.18625372390542,336.1520819152444L107.7317789042067,333.7488466808347L109.95602038102741,340.443294078268L110.83548304111665,319.53816742592L111.65470162675439,342.3627469591764L113.05816170094322,335.0199587208074L113.79076997703477,331.57812750261826L114.59249509502841,333.625304151399L116.07883488335807,328.0982233707469L116.75402223827784,329.13667935770366L118.60782567403605,332.9388250649306L119.36911920398774,336.5163132042762L120.90662864551263,326.7324237020087L121.70386696632956,325.814299650688L123.97282517456324,335.37839725242156L127.17997771379494,321.28904857714457L127.72267851837279,338.56421161445377L127.80258383887961,327.13692118827765L127.88233791903215,337.38151845663185L128.0417452524344,320.6306839637066L128.12104561152415,343.9920206481585L128.280049637315,315.426634962698L128.43910407655724,331.41718715528964L128.51845484909842,339.5801903337725L128.59775520818815,307.5463258126899L128.6772572210836,336.83098561808674L128.83550504510308,336.56596229967204L128.9145029234843,337.71639707851284L129.46975667746668,341.0294218867343L129.7869581138256,343.40289224112655L130.10420996363595,341.32038817190795L130.18345990927423,289.09150910413075L130.262760268364,334.48765969065346L130.5795583971115,332.3136832530298L130.6589595831041,345.2338469083512L130.73851200945097,320.78859726862527L130.81791319544354,338.619942794034L131.05767957041542,336.9769960820389L131.13652620844232,343.3448293366889L131.37760333315123,335.2026607964582L131.45922271100645,337.16736687253086L131.62125154388272,314.5889810850416L131.70055190297248,344.0077282916608L131.77995308896504,347.79290171742076L131.93784801882458,340.8496348560353L132.01674507030293,324.2389682929966L132.09584377558696,347.9348087189488L132.17504330777385,339.34365481324863L132.25419242650932,332.25430904501997L132.3335936125019,331.6905076187272L134.04704599949605,337.5554722863867L134.87090262266477,336.7829449306312L136.35008370089224,336.62028728894467L139.3371815246588,336.51876470419296L140.06726912817916,267.21370163867186L141.5947462928707,344.68291896766215L143.22375614872988,261.8100358347948L143.88936494787913,348.2123461977889L148.10075343947412,328.95855984471456L150.46746333001866,341.52730192027747L151.2052137781554,338.30232733590714L151.99302478355608,339.39723937488145L152.7452943057029,341.1446532714648L154.29656661946655,345.12169856475975L157.51874236722253,343.2107683793108L159.01587063415693,344.39283155143073L160.53175270502098,322.25648262044626L161.29531484028678,337.806041710622L162.14584017925873,324.72049514213296L165.30232719980947,347.3779480240195L166.01013205780046,342.1406108896231L167.57940197372236,336.476084339525L169.10657665770535,334.3468259980991L170.610157846422,345.2741691043175L175.33334369687202,332.78675118303704L177.03656215322712,349.94452221798605L177.86823286136655,334.74663514632925L178.9322087536671,335.69547761158185L179.0910615391037,338.02904109391505L179.17061396545057,344.6957177882937L179.25041845905454,334.4770292652529L179.4096745521025,341.3492617388212L179.48947904570647,347.40308056472725L179.56852733753908,349.3618181095939L179.88678745637793,342.5181605430505L179.96623905582192,344.0948700916849L180.1246381201957,319.2497521939593L180.36218630330492,341.001357190352L180.67863153789247,338.92880689522445L180.7576294162737,346.6014198701764L180.83687936191197,333.2162769901569L180.91602848064744,342.41799437195834L181.07402423740984,336.79101496969736L181.31152200706765,347.2703495771644L181.39097360651164,346.7060083853443L181.46992107144138,346.2199596388361L181.7073684276478,333.648640066216L181.78656795983466,306.9477491756487L181.94441247624277,342.93249669491183L182.41966008281548,341.189120928902L182.5777566664807,341.82506116239057L182.65700661211906,339.58375558618957L182.73630697120876,345.53528651138L182.81570815720136,341.79860487394853L182.8946556221311,346.4163300709391L183.05335716721342,338.8746467910985L183.13235504559458,345.3813522272653L184.2954437833945,337.3981718564472L184.97083279211995,343.7305112499925L186.59691866779656,341.34992439044845L188.17818698515737,346.8839614576665L189.007387434177,345.5222963617575L189.7885438639897,343.40986097185447L191.4255694586253,340.4213223547119L192.1956853425762,344.73408780634395L192.9427622792264,342.14910714123823L193.68671358188828,339.3718315070891L195.16927236136115,342.5471989951104L195.8646755103019,342.9820540146128L197.3768269857606,344.48182286503425L198.1626718665557,342.8735580325725L199.6323248024641,345.1390939477352L201.3045893996449,339.69348198474904L203.09467023280337,351.26721686502754L203.9550766082544,347.21207356645226L204.74071983524385,350.18008553835256L206.44822343496998,342.81328940041783L207.19081357444344,345.72425266708467L209.63485769947218,331.58888236963895L210.47676233825064,335.1652038687957L211.15865468220977,338.8670994068369L211.87845794163962,342.667762703264L213.45171052022405,339.433022562753L214.4157165383511,343.14856623548326L215.28101301859022,344.3908482631098L216.05001980660978,343.52224731004446L220.07220661501103,350.38984433326254L223.06696728339404,344.904879263427L223.86954943006194,343.01854807523944L225.404588612467,348.9879550391632L227.9341339511106,341.9000683489307L230.0856288175267,347.1866548100182L230.16366884033087,340.80478920717695L230.47577851809595,343.7511576702942L230.55376812744865,345.6539135968201L230.63185856370424,347.49040280510053L230.78829150347244,345.5335054406917L230.9444219625322,342.55936627451973L231.10004828707764,347.4314921421257L231.25864900525713,345.85324573948253L231.96131169120287,343.90069138761663L232.04000708887548,348.70211419321913L232.11703884265108,342.7305170567809L232.19467555784388,348.6377887642479L232.35030188238935,349.4693667798009L232.4277873572278,342.45012830931927L232.65883220510338,352.8875758674468L232.8909357354588,351.3641273322327L233.35700809387242,352.40468016048885L233.43499770322512,349.8525723048637L233.51107160142374,345.1302010384559L233.5890612107765,347.01912372338285L233.67229381907728,346.99371274455L233.83356645018216,350.76079546978195L233.91392549175177,345.33547526848L233.99367957190435,343.9224982260261L234.154800962655,340.1450495138364L234.23425256209904,350.2314892605924L234.40061695179773,351.851288275721L235.62364728334063,336.6403659443544L237.13494173012504,346.68081051278597L237.89139556874005,346.7006045079897L240.85792470432574,350.5330004175527L243.99908603564361,350.24903241799177L246.26265000457494,340.77482988712796L247.054191605381,349.3503414811764L248.51552632180443,352.5597406412658L249.25161312604416,346.60264250909427L250.90754376496372,351.34330202710214L252.46305080864687,350.34222208075477L254.74758677337059,345.7802902841545L260.3894569491176,345.908941142097L262.69662855353056,344.6794594906222L263.4691642831498,348.30565874665183L265.98217400972635,329.4315655539117L266.7261253123883,344.6014377058342L267.52326280630234,350.15329636857666L269.2738699069959,348.8354922772067L270.07035202604146,351.67534026900336L270.90726573312895,342.9126747003436L271.72739176089226,345.7343479935186L273.32776677634274,343.85777147282994L277.3153699570673,346.5551135878016L278.07137007461944,351.8941584138596L280.52010265063063,343.43905030937884L280.7015406623051,345.1793274790471L280.79117577893675,348.3709548202601L280.881012549374,332.5807225256908L280.9722608964512,349.7817059132338L281.0612406382143,347.6495200826941L281.1514303028116,351.345408201523L281.2406116983804,348.1598489448121L281.3323641799719,350.4404438515322L281.4237133539519,349.15003869387687L281.5133988840349,349.86318717506174L281.69261870384673,352.65225054167877L281.96454886082705,350.4898751740928L282.05418397745865,339.6537695527215L282.14402074789604,347.2096407327785L282.32349263496496,348.6347415000747L282.41322857849946,353.69878201202255L282.68334385122847,351.109403113405L282.86195870962325,345.8469629931856L283.04324548094337,346.57986969260844L283.1353508566948,352.6038715285685L283.417615771217,348.6820993141397L283.50906577209986,341.19859093619476L283.60096949404556,344.24337872116143L283.77484548800646,350.5130819807289L283.8658921812779,345.9512466263842L283.9563339131324,349.014644655643L284.1302099070933,349.1988773632215L284.3238983874637,350.4614775963766L284.4190285703005,350.62373702487866L284.7062844165137,352.90848983723174L284.80126335899627,350.26549293329595L284.8946794844847,346.55782485960043L284.986179898819,351.556927845358L285.0782348611189,350.45142893555015L285.16938238129325,350.2117357089152L285.26108444943327,350.26855419715145L285.3519294888991,350.09181131958513L285.53235923154506,351.2507392390006L286.1775505828676,350.2474224545312L289.31009121399205,349.0593285303952L290.14070323965154,349.72011508886516L291.04517097164705,346.5698521421871L292.83131955559435,354.0782488441602L293.6210462721491,352.5266142819842L294.45377566276846,346.7926073088006L295.33575899542893,347.9039036425867L296.8991305375343,339.2917502134877L298.6720707972086,350.3039065059133L299.47772816441324,336.996508528077L300.3066765461758,342.4919453602475L301.9917965734697,350.76845485150164L304.00319245837886,348.45993524522186L305.5891492267221,349.66039088879864L306.36047503350716,349.4878836928779L307.166384467969,353.3606414641736L309.4696238231709,346.2942730633439L313.0270490228956,341.4681563737446L313.8212121231757,350.18672294326683L315.4569269680742,344.5580231356074L316.19992041515906,347.89323277365963L317.92804311651764,345.9686575645622L321.3584768321055,349.69358880201185L322.2735313889001,351.83885344682835L324.1248645655385,346.2869216746341L325.8791014347346,348.10378021733726L329.4471134592582,350.5766047612502L331.9130370222049,346.3302522467672L332.7696623887992,347.52379049178444L334.4295252769298,352.6350037108873L335.01472462105795,349.46299225780916L335.1059729681352,351.31714750958895L335.1874411056361,345.94786959191765L335.263666244189,350.5815622042926L335.33913518097046,351.55713628507175L335.4148561850091,352.00005667707956L335.49057718904777,350.1098942425119L335.56715522176063,342.55410239398776L335.87245908358346,350.35894703450174L335.9484321548793,350.9024271442254L336.10047912437363,347.4541311838699L336.252173199708,347.35373012921974L336.4794874521782,338.9285984555107L336.63113111406113,351.68574669948765L336.7069025315513,341.0826626783915L336.78282518939557,352.47949757355826L337.01064357638,348.454128488122L337.0865662342243,352.17917327855L337.16238806516577,352.1375506676533L337.2385627902673,346.8002558018785L337.31418296740304,352.2672250579214L337.4661291099946,345.4009797818021L337.5422030081932,351.6873644405495L337.6181256660375,353.45904211978007L337.7697693279205,345.6093728299311L337.8458432261191,346.99590447258475L337.92171547051197,334.3835238318788L337.9976381283563,345.93364280369497L338.0736111996521,345.48224793735557L338.1492817902393,349.1485220616314L338.30092545212227,349.5800202684305L338.37704976377233,349.14648121906106L338.60769130403645,353.0168769328545L338.9141546752421,348.714371692803L339.144292080992,351.3799096407071L339.22112218096197,341.1660276752443L339.2980026943834,349.71356479308497L339.37478238090193,353.3453234784944L339.45146124051763,335.59543277106934L339.967342088938,354.85613185614255L340.77546971526243,353.0436116594216L341.6569993268601,350.47491106927083L343.44334956461313,352.6602140276077L344.42757137676114,350.55682165468824L345.23509404166856,353.4265714122846L348.85684680541004,352.992765591192L352.39052726951417,350.858026374159L353.4385725111648,348.83620470548203L355.342688571444,352.7516506190469L356.4392315533643,352.89358328665907L357.39023090102404,348.2357241116527L358.3630088596989,354.40981731894544L359.1730521971774,348.55857856198753L360.09440843539994,354.3027983033841L362.71706741882343,354.2425117827466L363.6146789214252,346.46142926959857L364.46349020304876,350.5154665932748L369.53210902265505,349.4260579849513L371.48542861152396,346.87661006895667L372.5512193880758,352.0215601890399L373.58267860420796,349.803461419475L374.59200631516507,349.8628511826874L376.80954280294645,352.28568286122885L380.19344490287017,354.08757652134994L381.2148214287175,346.3271754277092L384.07386908586756,344.5932432251479L385.01327333969977,351.7978919320386L385.90246579591377,352.01370947832925L386.8226121113021,348.5860163837084L387.94622711663703,347.7958618724599L389.8057776858576,354.542089428034L393.22386010584677,353.6520814052639L394.1878157105224,346.89337857727065L396.1708288222799,351.1833696568967L396.40595715972074,352.56243169130136L396.48404759597634,350.4495763109303L396.5621884456833,350.8805254190805L396.71862138545157,339.1400309902116L396.7972159562214,346.6342102370836L396.8754072193797,345.6558128870475L396.9534472421839,354.25704189741833L397.0316385053423,348.49938790536737L397.1098801819521,349.63608121830407L397.1883235123677,350.2180884536234L397.2663131217204,347.5594274607524L397.5004836035842,354.82507122775536L397.579078174354,354.37353014251227L397.885339891754,352.26845547444054L397.96131296304975,350.1614177398111L398.114065720864,351.4575114350272L398.2672721997411,351.032499747678L398.4196720633955,352.3366152608324L398.49594761539976,356.4874020553678L398.5729793691754,351.4221824590691L398.64915409427687,352.9519837389914L398.7262362615039,353.1083633009418L398.8034696690853,354.259844944912L398.9590959936308,348.4221998794343L399.11411735675915,353.7914256871772L399.2677775566991,354.0925720746385L399.4976124817405,354.1355705431979L399.57398886064755,350.93200069525193L399.6502139992005,349.79804820899886L399.7261870704963,350.7246529567322L399.80241220904907,350.2091411011353L399.95476165925203,350.3837249165921L400.1070102825521,353.6861216326934L400.2594101462064,351.8605529543405L400.3355344578564,353.1549285774385L400.4878839080593,349.63031334921055L401.0466666036414,353.0123457023611L402.4243149907012,347.09304360126697L403.2106135925592,351.61741269482764L404.03739419591045,354.81461424286283L406.5773751189989,350.82880125966886L409.05544832373863,350.6736101151908L409.893773607466,344.79756236573746L411.5394703157465,352.6392829470999L413.2995551453078,354.1319562918929L415.2280209026247,350.7259533716627L416.06569081148353,352.1638109605436L419.58727204724585,352.7253242165459L421.5090832289748,353.03813622813533L422.59070382927376,352.5393228824411L423.4309448241553,350.9912193512366L424.28676357552666,348.8325119004043L426.088489915964,354.31731675165395L426.9013059932709,349.4073388542415L427.79085134364493,346.75133624548073L428.57251190797194,351.81438822430863L432.49735034167367,353.97615616123625L434.13659412817196,351.3422629395739L434.9703317878197,346.139435021963L435.80230497666764,350.57014779668515L436.6811122618884,355.71743975250746L437.70531194101557,352.19967814650875L441.3845864528317,351.3957199485461L442.2636962187609,351.18736578842345L443.125413343949,352.9518771858541L444.09788882191526,350.50999271750885L446.6597491829216,352.73007866419545L447.47589254802244,351.7136169558385L448.397147959342,348.1025466897776L449.3326199639632,348.56967875450414L450.27908210099474,346.63796526297136L452.03442806612213,354.5041813994985L452.11145981989785,353.36774008084257L452.18828991986777,347.84516097579905L452.2650191929349,350.55760874793566L452.4169653355264,354.34472657401034L452.64448124180234,353.5423503401437L452.79602407678243,351.0362858839708L452.87260210949523,351.4951674692819L453.02651437669226,351.14573539992546L453.103546130468,353.9945462994128L453.18037623043796,351.96001291923835L453.33408684382925,352.67564089970455L453.4109673572506,351.9842292585178L453.5648292109963,353.7959670285522L453.6417097244177,352.32189537268994L454.0237428593076,352.8119806942515L454.17553776154494,354.30035846986925L454.25120835213215,355.4991357070944L454.32793762519924,354.6975535663163L454.40481813862067,354.49392274343813L454.4811945175278,353.8364439987835L454.5572684157264,350.73264210874527L454.6335943811821,351.7872288407128L454.78599424483644,347.79673607484136L454.8623202102922,350.13573143389374L454.9387974161022,355.68449616685547L455.16817862008077,352.3909511387468L455.2447062393422,354.43514741072516L455.32103220479786,352.48696718180724L455.3975094106079,353.6052446904833L455.5512200239992,353.39254596229745L456.014217161876,349.77608892960467L456.09155139636016,352.67443226046896L456.1681798425244,350.5900149013407L456.3221425231729,354.00936107429055L457.44227900035963,352.0073722888236L459.830011300148,355.0421697449733L462.34967560231246,350.804700028888L464.770983260749,354.1343743481243L465.5905043270953,350.41299825221006L467.3067294539178,352.5218388348113L468.23453861392255,347.42429630544103L469.151609708774,353.6300599050597L470.0920222316346,355.2954379968454L471.83784005444295,353.3741231581957L472.67550996330175,354.0959382204633L473.4719920823473,355.59426899241197L474.3305331600957,354.3566379703382L475.2523431193809,354.10855037866463L476.06077322641397,347.2371361087487L476.94920948085667,355.2755234488222L477.75663131886125,354.77694654220625L478.59268799727454,356.4065227798773L480.2781105052771,354.70123937155284L481.1768311038101,350.75142034922453L483.10761587989253,351.84115561680096L485.05100401883095,348.4782266078623L485.96489906624265,348.2792989004654L487.9745304803521,354.75479437830086L489.8043875266839,348.96180052165005L490.700133731583,355.58833701593187L491.62527097866234,356.5120360518349L492.46631858876657,355.772678609928L495.0755675941113,353.4377454920131L496.0824250459485,354.7519913308072L496.96173646568354,353.4296256762989L497.8123626315584,351.0222146477733L499.68673475549747,349.7223083724202L500.417074426275,356.56647770512643L507.39873248706255,353.5273854575616L507.7450728983444,355.3932436659555L507.82069307548016,356.6663389942492L507.9718830163004,349.8861886530246L508.0473519530819,355.7344703659839L508.1230729571205,350.87862923989366L508.19869313425636,349.5118542599576L508.4260073867265,353.5883812954339L508.5017283907651,351.8090247904805L508.6535232930024,352.91401037860527L508.7290930566868,355.2204704760717L508.80481406072545,353.1978134930195L508.8807367185697,354.75004070841146L509.1080005575884,349.62726452951705L509.71407107060617,357.18742972322906L509.79029620915895,355.3518909378224L509.86747920328895,352.7896994221652L510.01947575933184,356.103071889163L510.17147231537484,354.84304759754485L510.2472941463163,353.71064829826315L510.32336804451495,352.2657099811962L510.47496129294643,349.2807568382339L510.55068229698503,353.08275710431735L510.626554541378,353.43286504722323L510.7025276126738,353.04083816681265L510.7780469629067,350.9735097531703L511.005613282634,356.2433137062615L511.08143511357554,349.010251866452L511.1574081848713,353.79617313498557L511.5405504156926,348.7952369686113L511.6941097887297,352.7973883587697L511.77073823489394,354.63815369222226L511.9238943003197,355.55546887301205L512.0829487395619,350.8155451160833L513.4569169446678,354.68529840001275L518.624598196322,349.7643463072241L519.4269282757327,345.42043156255045L520.9637319289376,351.3710462863126L521.8659310556191,354.3204900129676L522.8698645272738,353.3476645364733L526.3606935576676,348.3635909873883L527.3244475085374,352.2637033600714L528.1522363809173,355.9474218662106L529.1545062086751,355.80125118367255L530.0399680694838,356.3576887770934L531.8267720282996,355.143809771504L533.6826928290176,355.5354088838453L534.5732968618715,353.15599721985143L535.4022452436341,351.49615522464177L536.2265051744142,355.9002024934481L537.2021566998202,355.0125775277037L538.0647308536825,354.28827674407376L539.141915070256,347.15326867885454L543.0230450415734,353.424757675671L544.6907220146746,357.0392314200428L545.657752839887,353.4924165845418L551.1991994203978,352.48726273065506L553.0629343060865,353.50744679897446L554.9192584144159,354.34068222135573L555.9002537656728,355.3542809946893L557.006173649558,354.58207563162586L558.9456799527367,354.64251692652846L561.8795411717997,354.1040658137788L562.7484170070899,357.7265590428085L565.3189988951925,357.345010924574L565.4767929981492,351.97414637624587L565.7141899409041,355.78037843517427L565.9527463930419,353.2236304626381L566.0321475790345,356.2882783524191L566.1910003644712,352.4906179878381L566.2701998966579,354.71407708019063L566.3495002557477,355.58823746263573L566.4292039224488,350.9010489532823L566.5087563487956,355.32951866780144L566.5883087751425,354.1576208205268L566.6676091342323,353.5311537053715L566.826361092766,355.19724033663186L566.9059639325642,354.42951798293404L566.985617185814,354.56771973522234L567.2244761186603,356.3725066630117L567.3041293719099,355.20881962938597L567.4605623116781,355.4425489913757L568.0845800134026,355.8587471009784L568.162872103464,351.1269104938386L568.2404079917538,354.19217981396025L568.3181455338495,351.9924175171231L568.3963367970078,351.45554214638844L568.5530218040332,355.0319616433211L568.6308601730316,351.14332745457574L568.7083960613215,354.2415986923588L568.7858311227086,354.635520196436L568.940852485837,355.3233564743241L569.0186404413839,353.0704443837645L569.0961259162225,353.4545964429005L569.2509960389965,356.2840162269293L569.3282294465779,353.01832512220886L569.4827466751921,351.97508902151844L574.1566281701495,349.7257818491423L576.8584362723085,352.7667609427726L577.7918413254212,353.59051858025987L578.7163736110833,353.98897442587094L579.5419442916005,353.32186856637816L581.8370166676718,353.45658050898163L582.8009218588959,352.72668063020546L583.6515480247707,352.64641656297454L585.5876262132527,353.2547268679911L588.5099931653909,356.07959208872273L589.3252795018177,352.8983727335143L590.1551857391572,353.1777099492857L591.140214166528,354.45783778463766L592.0532521852656,349.29262701327514L592.9481413614906,354.68206447340935L593.8279569157397,356.47565009986573L594.6423358100408,352.71872025531707L596.4029751875677,352.6604792438106L598.3247359558452,350.10717674863207L599.3924928570026,352.05614095975693L601.2536566566687,353.7617642492564L603.1948770171958,353.2903622814388L604.9713966319212,352.7311963054963L605.9274373247233,357.35236075776356L606.8240405582966,356.641030679753L607.6721964650517,355.07054165660537L608.5939560108856,355.0183710628814L609.4488673201314,353.46867856773974L613.5601346971986,351.69581247103685L618.1891482203889,348.43916904986077L619.2435455569189,354.0851382433553L621.1334450238966,354.72248700043184L622.112474250548,355.9482050706574L623.0375106707244,350.0061985959685L624.8055608256105,350.81346382998646L624.8806264547807,351.60174238381137L624.9560449781108,358.49658589975934L625.1068316113195,355.2018672316207L625.2577190714311,354.4665051434805L625.3330367678584,355.83924865462257L625.5589898571402,352.75392945621576L625.7096756634461,354.26482416523794L625.860361469752,352.46144576103654L625.9359312334362,356.39259387378286L626.0865162128395,354.99130656602097L626.1618339092666,354.3230060669748L626.3876861716456,354.3426763983185L626.4629534546214,357.94882033174207L626.5381199106944,353.62965313651387L626.688301582486,355.25512902280127L626.7636696923647,353.64653675332653L626.8393402829519,353.65246561876614L626.9899756758065,350.94910830698086L627.0652429587823,353.74311045039724L627.1409135493695,352.64171733629394L627.2165337265053,354.95707423184035L627.2918010094811,354.6227167092437L627.3671691193597,353.8458852289516L627.5384236138466,356.39935727583753L627.8101521170212,355.00574023843706L627.9012996371955,349.2348316583208L628.0830401295785,355.7334577223L628.4478318640816,355.2963899752395L628.5396851725759,354.97139901783885L628.7223835205359,352.08064507028297L628.8104054067219,355.126621272722L629.0786553817484,354.6186171356202L629.2577743746573,353.3790580461944L629.4353809640236,358.14239704947295L630.6536220176812,354.8667762812254L631.4124452885131,356.23345637442605L632.3461528223344,352.83817098873044L633.3794269227179,354.3982255820293L635.1119860078016,356.3751354922372L637.6950704318574,355.9632609511742L638.556384249434,350.7915216613151L640.1754626553628,357.1396153639702L641.0806361756781,355.7546672409328L641.8426859074012,353.65546855061217L643.6602924850372,356.40087001928237L647.3494984467836,355.9775709597304L649.1784480509899,355.2930222738944L650.1746178511255,355.3340981194226L652.0739950469707,356.66225264254786L653.0126430990316,354.72794298771487L654.0772239527493,351.6315725956794L655.1156906386294,353.8522434179807L656.0121426318484,354.4214246110641L656.969292420582,355.39189658541744L660.955786505375,355.83742169608684L661.8854609630826,355.6655670409117L662.7281218036322,354.4126289218005L663.7827712074194,354.7362323551365L664.7781848057836,355.4979698446657L666.5448233840299,354.407120824589L668.5573787783218,355.42583725955086L669.6974789822724,353.60601933956866L670.6622412021709,355.42267722015936L671.768513980216,354.5814472014442L672.7792532678129,355.40645158841323L673.6904259888478,354.77815207040135L676.5860738117315,356.8008036091327L679.5778600864805,354.39698427686835L682.1580205303536,356.6609708938604L684.3727842783067,356.7269809512643L685.2156467726622,355.6845583876655L685.291619843958,357.7960752428599L685.3674416748995,351.3547708779184L685.4436164000009,353.95047685516L685.748466540761,349.994721967551L686.0531150277154,355.8775758958659L686.205061170307,354.60670107273154L686.2819416837283,351.327157282409L686.3581668222811,355.1706409403267L686.5105162724841,354.37192095681183L686.5869430648427,355.7691911335236L686.6632186168468,355.38616760433024L686.8929527149855,357.6122734143911L687.1210735826784,355.9976395042585L687.1977524422941,354.52396761710094L687.2741792346527,357.6904499734442L687.4261757906957,357.44171217430534L687.5036108520827,354.9907123572848L687.5809955000183,355.8982028721644L687.7337482578326,355.9175877655419L687.8098725694826,354.38995799189115L687.9624740869427,355.16699946741727L688.038648812044,356.9561557499568L688.1153276716598,357.49133093705626L688.1932164541097,353.9280275868865L688.2698449002739,353.3469194422727L688.3463221060839,347.6297836417397L688.4992261042524,353.1323945333113L688.5758041369653,354.93000040185836L688.8052357543953,354.6100438857526L689.1865126875139,351.53334615834126L689.4911107610169,352.8707700266467L694.63963490113,354.7465438988855L695.515366965814,355.7873502769427L696.3560616817583,357.889179352009L697.3304024574272,357.7091465491103L698.4155519993258,355.59271269440006L701.8068648766089,353.8006172563448L702.7471765725667,354.2920574360457L704.6664166682731,352.7748768696861L705.7434496444923,353.56303020413077L707.8331880329142,350.24983662196195L708.7756675072834,354.40746226128425L709.6738839713023,357.61393626554025L710.8349561710452,355.6186198841932L713.0117081766246,352.45047156566034L715.1466170175222,357.34339707231277L715.9928572131231,357.42864035986963L716.961602095684,357.52963562325596L718.9046373404624,355.38689558780806L719.9190568100133,355.52753095153025L720.9587334187275,356.7898076364729L723.0195344860322,355.8600062946222L724.9093835395585,354.73035248858486L730.7813911210553,356.59573470778173L732.9615712413316,355.3144892311289L736.9519975753359,356.0196423382197L738.0010510860149,352.791514714299L739.1205826017846,356.9370314062215L743.181436527428,355.15218391477936L748.5080713914217,353.3018357988158L748.5866659621914,353.31902040879714L748.900136803145,356.92791683530623L749.1349626598773,357.246198833861L749.2137084710014,357.7600797264739L749.4483830873795,354.7072670125284L749.5265743505379,354.50470016550247L749.6833601844661,354.7294300650756L749.7618539283329,357.0175023576459L749.8401964318457,355.71975358888193L749.918740589164,356.2773733776941L750.0750727020294,354.73994382645725L750.1533647920907,356.1412295786989L750.3893501582057,354.4667633598423L750.4674910079127,354.4017861678856L750.5460855786826,353.0166933814648L750.6244784956467,355.3545392110511L750.7029722395138,359.13590861203534L751.0170984553357,354.08632121650675L751.2524284465823,357.792992979481L751.3307205366436,353.42774894111517L751.4091134536077,355.0811269719186L751.4875063705717,353.4497471085156L751.6440905506943,354.9215352606483L751.7224330542069,354.82426391274464L751.8009267980738,355.00483181461004L751.8793701284894,355.4828851870242L751.957813458905,357.6501207776368L752.0364080296748,357.68666228163113L752.1149017735416,355.89129247344596L752.1931938636029,358.39092485337784L752.271586780567,354.68235224465593L752.5064126372994,352.99163395020884L752.6631480577761,358.25976727454963L753.0552638829511,355.8599666288558L753.3231609638174,353.067685668598L754.0601047967314,354.94385230970033L755.8164086174359,355.74738740615453L759.6791376789834,349.03019052503913L762.8345660170543,356.9511998624347L765.0347602775457,353.64431391488677L768.9044463953899,353.3113104726693L769.7542155325904,358.0749924681634L770.5920870952551,356.5788215360843L771.5131912662204,357.54001483213585L774.4437756109407,352.676057779132L776.3040823819326,356.71023422023376L777.2369833005313,354.71207279234625L778.0700655853104,358.7616652169031L778.9960598610639,356.0052981082181L779.9737279245269,356.87040458503776L781.8708869285095,355.48019102594816L782.7804968325502,354.3908983038833L785.8546586869257,354.84594786505426L786.9953638522935,356.5973578931644L789.2180425121202,357.2714301501048L790.0531917484076,354.36669674204626L791.0273812837223,357.31407084900627L796.5734154883127,353.0255131812923L797.5561753103694,354.54958081356654L798.4891770558709,357.2057187525892L805.9344876294036,356.89827873018925L806.8550876658547,355.16945952269543L808.0155549041806,356.4811325309931L810.0623410319893,355.3366429505545L810.3417323797803,356.6223006604015L810.4202765370986,356.27015420820567L810.498467800257,359.20933772328004L810.5766590634155,357.85580333172703L810.6547999131225,355.09052231423925L810.7327391090238,355.47395572301895L810.8889199815349,355.18306099177687L811.0450504405945,357.17563499092006L811.1234433575587,355.5312105346858L811.2015842072657,356.0263341863428L811.3577146663254,356.14304253755233L811.4355530353238,352.93741551407345L811.5920363885434,357.81220132130994L811.748267674506,356.09625559941975L811.8265093511156,357.66195906451287L811.9828918774326,355.6537653087616L812.0608814867853,357.70351789907926L812.3724366165848,357.64713184547304L812.4508295335488,356.23428235567974L812.5287687294501,355.9111774665844L812.6068087522542,355.7358018913194L812.6842942270928,357.9668985881081L812.7624350767998,358.9874676476898L812.8408279937638,357.8633639379108L812.9971096931778,354.4984477518505L813.0756034370448,355.145131963718L813.1539963540089,353.61353094686444L813.2322884440702,352.113069889931L813.5454063908637,355.4067844697471L813.7023938785976,354.1981351232441L813.780585141756,356.46911224824754L813.8589276452687,358.0419501069754L814.0159151330026,356.88311629653515L814.1726505534793,357.3922069645328L814.3294363874077,352.3537804268106L814.4855668464672,356.867075771699L814.5639597634315,358.6207529705761L814.6421006131383,356.60366630554546L814.7980294183923,355.3034123714161L814.9630830583541,356.0529071388037L815.7427774980756,356.7937096590245L816.5481323845717,354.5483900628138L817.4793696592733,357.7508236032158L818.3727464319555,357.0121241463754L819.251301649919,358.852018388487L820.231591212856,352.9930121411519L821.1802715417502,355.9829631706831L823.9845701906539,355.908419529178L824.8691750227885,351.77809171475394L826.6012803868093,357.25266435378745L827.5612029153712,357.7874304390607L830.188197455617,356.51105140751554L831.4226716406331,354.93224968414245L832.5117534317428,356.03140051580283L833.5542531937367,357.801864889237L834.660072250719,350.90764747019034L836.9260560653189,356.73699072408436L841.2259705776139,354.4191123302098L843.0740772933614,352.8734836317259L844.0238667181868,355.27057689442154L845.1122931344281,359.50123187628384L848.049128747125,358.1445312232584L849.0513985748827,354.78408949120234L850.9435666471744,359.183987020857L851.9193694129348,355.8328710215903L852.8823671620333,352.3721791203485L854.8760175120412,355.6062846085967L855.9319272521141,356.9251868972644L856.8062981536095,354.05436305293426L857.8903385995767,352.2661361937452L859.9974696287397,356.4983606955415L862.0046307837295,357.44599218827807L864.0031208250741,356.16899639295303L865.0986051245145,354.69998406670965L867.2159196708652,355.540349993925L868.3646909884607,358.7805010116317L869.4107196920544,356.8484569720455L870.4411202257068,358.8137751453372L872.7208164990936,356.7282595889112L873.3498251325092,352.36997494815176L873.4281172225704,356.8237560882076L873.5060564184718,354.4356202888817L873.5840964412758,357.60215397739324L873.6619852237257,357.39540666969066L873.8185694038482,358.16893111392756L873.8966094266523,355.10390989928607L873.9749015167135,358.75766364105544L874.0531936067748,356.79924108903975L874.131132802676,358.6360484012117L874.2087695178689,356.3554324949682L874.2868599541245,358.34557754923827L874.3644462558657,356.94046210613675L874.520173407314,359.16906647060205L874.5978605359583,356.8782794063123L874.6756484915052,357.6127392927065L874.987606928916,355.10028475933933L875.2213741031685,354.1527979299862L875.2991620587155,355.4685666231067L875.3775045622282,354.628674351808L875.6115742171892,356.9229967247499L875.6894125861877,356.48558520771377L875.7674021955404,356.984757100826L875.8453413914416,356.5790945298885L875.9235326546001,355.37330345184813L876.0798647674654,357.5779251939518L876.1579047902695,356.8376951051836L876.2360456399766,355.7741563541672L876.4698632276803,351.74276896087684L876.5480544908389,356.02685139682654L876.7049915651213,356.59837131460847L876.7831324148282,351.666873572273L876.8613236779868,358.27305297301996L877.0958470540105,356.2413249736196L877.2519775130702,355.90740688549414L877.3299167089715,356.94979056108656L877.4082087990328,353.6319537509662L877.4860471680311,356.78759413115466L877.563935950481,356.91016290491274L877.6423792808965,355.5637022417046" style="fill: none;" fill="none"></path></g></g></g></g></g></g><g transform="translate(58, 378)" clip-path="url(#clip_1)"><clipPath id="clip_1"><rect width="909" height="22"></rect></clipPath><g><g><line x1="35.52076100750359" y1="0" x2="35.52076100750359" y2="5" style="visibility: inherit;" fill="rgb(0, 0, 0)" stroke="rgb(204, 204, 204)" stroke-width="1px"></line><line x1="126.26497357045189" y1="0" x2="126.26497357045189" y2="5" style="visibility: inherit;" fill="rgb(0, 0, 0)" stroke="rgb(204, 204, 204)" stroke-width="1px"></line><line x1="217.0091861334002" y1="0" x2="217.0091861334002" y2="5" style="visibility: inherit;" fill="rgb(0, 0, 0)" stroke="rgb(204, 204, 204)" stroke-width="1px"></line><line x1="307.7533986963485" y1="0" x2="307.7533986963485" y2="5" style="visibility: inherit;" fill="rgb(0, 0, 0)" stroke="rgb(204, 204, 204)" stroke-width="1px"></line><line x1="398.4976112592968" y1="0" x2="398.4976112592968" y2="5" style="visibility: inherit;" fill="rgb(0, 0, 0)" stroke="rgb(204, 204, 204)" stroke-width="1px"></line><line x1="489.241823822245" y1="0" x2="489.241823822245" y2="5" style="visibility: inherit;" fill="rgb(0, 0, 0)" stroke="rgb(204, 204, 204)" stroke-width="1px"></line><line x1="579.9860363851933" y1="0" x2="579.9860363851933" y2="5" style="visibility: inherit;" fill="rgb(0, 0, 0)" stroke="rgb(204, 204, 204)" stroke-width="1px"></line><line x1="670.7302489481416" y1="0" x2="670.7302489481416" y2="5" style="visibility: inherit;" fill="rgb(0, 0, 0)" stroke="rgb(204, 204, 204)" stroke-width="1px"></line><line x1="761.4744615110899" y1="0" x2="761.4744615110899" y2="5" style="visibility: inherit;" fill="rgb(0, 0, 0)" stroke="rgb(204, 204, 204)" stroke-width="1px"></line><line x1="852.2186740740382" y1="0" x2="852.2186740740382" y2="5" style="visibility: inherit;" fill="rgb(0, 0, 0)" stroke="rgb(204, 204, 204)" stroke-width="1px"></line></g><g transform="translate(0, 8)"><text x="35.52076100750359" y="0" dx="0em" dy="0.95em" style="text-anchor: middle; visibility: inherit; font-family: &quot;Helvetica Neue&quot;, sans-serif; font-size: 12px; font-weight: 200;" fill="rgb(50, 49, 63)" stroke="none" stroke-width="1px">0</text><text x="126.26497357045189" y="0" dx="0em" dy="0.95em" style="text-anchor: middle; visibility: inherit; font-family: &quot;Helvetica Neue&quot;, sans-serif; font-size: 12px; font-weight: 200;" fill="rgb(50, 49, 63)" stroke="none" stroke-width="1px">0.5</text><text x="217.0091861334002" y="0" dx="0em" dy="0.95em" style="text-anchor: middle; visibility: inherit; font-family: &quot;Helvetica Neue&quot;, sans-serif; font-size: 12px; font-weight: 200;" fill="rgb(50, 49, 63)" stroke="none" stroke-width="1px">1</text><text x="307.7533986963485" y="0" dx="0em" dy="0.95em" style="text-anchor: middle; visibility: inherit; font-family: &quot;Helvetica Neue&quot;, sans-serif; font-size: 12px; font-weight: 200;" fill="rgb(50, 49, 63)" stroke="none" stroke-width="1px">1.5</text><text x="398.4976112592968" y="0" dx="0em" dy="0.95em" style="text-anchor: middle; visibility: inherit; font-family: &quot;Helvetica Neue&quot;, sans-serif; font-size: 12px; font-weight: 200;" fill="rgb(50, 49, 63)" stroke="none" stroke-width="1px">2</text><text x="489.241823822245" y="0" dx="0em" dy="0.95em" style="text-anchor: middle; visibility: inherit; font-family: &quot;Helvetica Neue&quot;, sans-serif; font-size: 12px; font-weight: 200;" fill="rgb(50, 49, 63)" stroke="none" stroke-width="1px">2.5</text><text x="579.9860363851933" y="0" dx="0em" dy="0.95em" style="text-anchor: middle; visibility: inherit; font-family: &quot;Helvetica Neue&quot;, sans-serif; font-size: 12px; font-weight: 200;" fill="rgb(50, 49, 63)" stroke="none" stroke-width="1px">3</text><text x="670.7302489481416" y="0" dx="0em" dy="0.95em" style="text-anchor: middle; visibility: inherit; font-family: &quot;Helvetica Neue&quot;, sans-serif; font-size: 12px; font-weight: 200;" fill="rgb(50, 49, 63)" stroke="none" stroke-width="1px">3.5</text><text x="761.4744615110899" y="0" dx="0em" dy="0.95em" style="text-anchor: middle; visibility: inherit; font-family: &quot;Helvetica Neue&quot;, sans-serif; font-size: 12px; font-weight: 200;" fill="rgb(50, 49, 63)" stroke="none" stroke-width="1px">4</text><text x="852.2186740740382" y="0" dx="0em" dy="0.95em" style="text-anchor: middle; visibility: inherit; font-family: &quot;Helvetica Neue&quot;, sans-serif; font-size: 12px; font-weight: 200;" fill="rgb(50, 49, 63)" stroke="none" stroke-width="1px">4.5</text></g><line x1="0" y1="0" x2="909.5" y2="0" fill="rgb(0, 0, 0)" stroke="rgb(204, 204, 204)" stroke-width="1px"></line></g></g></g></g></svg>