<svg viewBox="0 0 967.5 400" xmlns="http://www.w3.org/2000/svg"><g><g><g><g><g><line x1="58" y1="366.8875345038865" x2="53" y2="366.8875345038865" style="visibility: inherit;" fill="rgb(0, 0, 0)" stroke="rgb(204, 204, 204)" stroke-width="1px"></line><line x1="58" y1="329.8615480509136" x2="53" y2="329.8615480509136" style="visibility: inherit;" fill="rgb(0, 0, 0)" stroke="rgb(204, 204, 204)" stroke-width="1px"></line><line x1="58" y1="292.83556159794074" x2="53" y2="292.83556159794074" style="visibility: inherit;" fill="rgb(0, 0, 0)" stroke="rgb(204, 204, 204)" stroke-width="1px"></line><line x1="58" y1="255.80957514496785" x2="53" y2="255.80957514496785" style="visibility: inherit;" fill="rgb(0, 0, 0)" stroke="rgb(204, 204, 204)" stroke-width="1px"></line><line x1="58" y1="218.78358869199496" x2="53" y2="218.78358869199496" style="visibility: inherit;" fill="rgb(0, 0, 0)" stroke="rgb(204, 204, 204)" stroke-width="1px"></line><line x1="58" y1="181.75760223902208" x2="53" y2="181.75760223902208" style="visibility: inherit;" fill="rgb(0, 0, 0)" stroke="rgb(204, 204, 204)" stroke-width="1px"></line><line x1="58" y1="144.7316157860492" x2="53" y2="144.7316157860492" style="visibility: inherit;" fill="rgb(0, 0, 0)" stroke="rgb(204, 204, 204)" stroke-width="1px"></line><line x1="58" y1="107.70562933307627" x2="53" y2="107.70562933307627" style="visibility: inherit;" fill="rgb(0, 0, 0)" stroke="rgb(204, 204, 204)" stroke-width="1px"></line><line x1="58" y1="70.67964288010342" x2="53" y2="70.67964288010342" style="visibility: inherit;" fill="rgb(0, 0, 0)" stroke="rgb(204, 204, 204)" stroke-width="1px"></line><line x1="58" y1="33.6536564271305" x2="53" y2="33.6536564271305" style="visibility: inherit;" fill="rgb(0, 0, 0)" stroke="rgb(204, 204, 204)" stroke-width="1px"></line></g><g transform="translate(48, 0)"><text x="0" y="366.8875345038865" dx="0em" dy="0.3em" style="text-anchor: end; visibility: inherit; font-family: &quot;Helvetica Neue&quot;, sans-serif; font-size: 12px; font-weight: 200;" fill="rgb(50, 49, 63)" stroke="none" stroke-width="1px">0.00</text><text x="0" y="329.8615480509136" dx="0em" dy="0.3em" style="text-anchor: end; visibility: inherit; font-family: &quot;Helvetica Neue&quot;, sans-serif; font-size: 12px; font-weight: 200;" fill="rgb(50, 49, 63)" stroke="none" stroke-width="1px">5.00</text><text x="0" y="292.83556159794074" dx="0em" dy="0.3em" style="text-anchor: end; visibility: inherit; font-family: &quot;Helvetica Neue&quot;, sans-serif; font-size: 12px; font-weight: 200;" fill="rgb(50, 49, 63)" stroke="none" stroke-width="1px">10.0</text><text x="0" y="255.80957514496785" dx="0em" dy="0.3em" style="text-anchor: end; visibility: inherit; font-family: &quot;Helvetica Neue&quot;, sans-serif; font-size: 12px; font-weight: 200;" fill="rgb(50, 49, 63)" stroke="none" stroke-width="1px">15.0</text><text x="0" y="218.78358869199496" dx="0em" dy="0.3em" style="text-anchor: end; visibility: inherit; font-family: &quot;Helvetica Neue&quot;, sans-serif; font-size: 12px; font-weight: 200;" fill="rgb(50, 49, 63)" stroke="none" stroke-width="1px">20.0</text><text x="0" y="181.75760223902208" dx="0em" dy="0.3em" style="text-anchor: end; visibility: inherit; font-family: &quot;Helvetica Neue&quot;, sans-serif; font-size: 12px; font-weight: 200;" fill="rgb(50, 49, 63)" stroke="none" stroke-width="1px">25.0</text><text x="0" y="144.7316157860492" dx="0em" dy="0.3em" style="text-anchor: end; visibility: inherit; font-family: &quot;Helvetica Neue&quot;, sans-serif; font-size: 12px; font-weight: 200;" fill="rgb(50, 49, 63)" stroke="none" stroke-width="1px">30.0</text><text x="0" y="107.70562933307627" dx="0em" dy="0.3em" style="text-anchor: end; visibility: inherit; font-family: &quot;Helvetica Neue&quot;, sans-serif; font-size: 12px; font-weight: 200;" fill="rgb(50, 49, 63)" stroke="none" stroke-width="1px">35.0</text><text x="0" y="70.67964288010342" dx="0em" dy="0.3em" style="text-anchor: end; visibility: inherit; font-family: &quot;Helvetica Neue&quot;, sans-serif; font-size: 12px; font-weight: 200;" fill="rgb(50, 49, 63)" stroke="none" stroke-width="1px">40.0</text><text x="0" y="33.6536564271305" dx="0em" dy="0.3em" style="text-anchor: end; visibility: inherit; font-family: &quot;Helvetica Neue&quot;, sans-serif; font-size: 12px; font-weight: 200;" fill="rgb(50, 49, 63)" stroke="none" stroke-width="1px">45.0</text></g><line x1="58" y1="0" x2="58" y2="378" fill="rgb(0, 0, 0)" stroke="rgb(204, 204, 204)" stroke-width="1px"></line></g></g><g transform="translate(58, 0)" clip-path="url(#clip_0)"><clipPath id="clip_0"><rect width="909" height="378"></rect></clipPath><g><g><g><line x1="45.434145571553536" y1="0" x2="45.434145571553536" y2="378" fill="rgb(0, 0, 0)" stroke="rgb(60, 60, 60)" stroke-width="1px" opacity="0.25"></line><line x1="102.99718644904709" y1="0" x2="102.99718644904709" y2="378" fill="rgb(0, 0, 0)" stroke="rgb(60, 60, 60)" stroke-width="1px" opacity="0.25"></line><line x1="160.56022732654066" y1="0" x2="160.56022732654066" y2="378" fill="rgb(0, 0, 0)" stroke="rgb(60, 60, 60)" stroke-width="1px" opacity="0.25"></line><line x1="218.12326820403422" y1="0" x2="218.12326820403422" y2="378" fill="rgb(0, 0, 0)" stroke="rgb(60, 60, 60)" stroke-width="1px" opacity="0.25"></line><line x1="275.6863090815278" y1="0" x2="275.6863090815278" y2="378" fill="rgb(0, 0, 0)" stroke="rgb(60, 60, 60)" stroke-width="1px" opacity="0.25"></line><line x1="333.24934995902134" y1="0" x2="333.24934995902134" y2="378" fill="rgb(0, 0, 0)" stroke="rgb(60, 60, 60)" stroke-width="1px" opacity="0.25"></line><line x1="390.8123908365149" y1="0" x2="390.8123908365149" y2="378" fill="rgb(0, 0, 0)" stroke="rgb(60, 60, 60)" stroke-width="1px" opacity="0.25"></line><line x1="448.37543171400847" y1="0" x2="448.37543171400847" y2="378" fill="rgb(0, 0, 0)" stroke="rgb(60, 60, 60)" stroke-width="1px" opacity="0.25"></line><line x1="505.938472591502" y1="0" x2="505.938472591502" y2="378" fill="rgb(0, 0, 0)" stroke="rgb(60, 60, 60)" stroke-width="1px" opacity="0.25"></line><line x1="563.5015134689955" y1="0" x2="563.5015134689955" y2="378" fill="rgb(0, 0, 0)" stroke="rgb(60, 60, 60)" stroke-width="1px" opacity="0.25"></line><line x1="621.0645543464891" y1="0" x2="621.0645543464891" y2="378" fill="rgb(0, 0, 0)" stroke="rgb(60, 60, 60)" stroke-width="1px" opacity="0.25"></line><line x1="678.6275952239827" y1="0" x2="678.6275952239827" y2="378" fill="rgb(0, 0, 0)" stroke="rgb(60, 60, 60)" stroke-width="1px" opacity="0.25"></line><line x1="736.1906361014762" y1="0" x2="736.1906361014762" y2="378" fill="rgb(0, 0, 0)" stroke="rgb(60, 60, 60)" stroke-width="1px" opacity="0.25"></line><line x1="793.7536769789698" y1="0" x2="793.7536769789698" y2="378" fill="rgb(0, 0, 0)" stroke="rgb(60, 60, 60)" stroke-width="1px" opacity="0.25"></line><line x1="851.3167178564634" y1="0" x2="851.3167178564634" y2="378" fill="rgb(0, 0, 0)" stroke="rgb(60, 60, 60)" stroke-width="1px" opacity="0.25"></line><line x1="908.8797587339568" y1="0" x2="908.8797587339568" y2="378" fill="rgb(0, 0, 0)" stroke="rgb(60, 60, 60)" stroke-width="1px" opacity="0.25"></line></g><g><line x1="0" y1="366.8875345038865" x2="909.5" y2="366.8875345038865" fill="rgb(0, 0, 0)" stroke="rgb(60, 60, 60)" stroke-width="1px" opacity="0.25"></line><line x1="0" y1="329.8615480509136" x2="909.5" y2="329.8615480509136" fill="rgb(0, 0, 0)" stroke="rgb(60, 60, 60)" stroke-width="1px" opacity="0.25"></line><line x1="0" y1="292.83556159794074" x2="909.5" y2="292.83556159794074" fill="rgb(0, 0, 0)" stroke="rgb(60, 60, 60)" stroke-width="1px" opacity="0.25"></line><line x1="0" y1="255.80957514496785" x2="909.5" y2="255.80957514496785" fill="rgb(0, 0, 0)" stroke="rgb(60, 60, 60)" stroke-width="1px" opacity="0.25"></line><line x1="0" y1="218.78358869199496" x2="909.5" y2="218.78358869199496" fill="rgb(0, 0, 0)" stroke="rgb(60, 60, 60)" stroke-width="1px" opacity="0.25"></line><line x1="0" y1="181.75760223902208" x2="909.5" y2="181.75760223902208" fill="rgb(0, 0, 0)" stroke="rgb(60, 60, 60)" stroke-width="1px" opacity="0.25"></line><line x1="0" y1="144.7316157860492" x2="909.5" y2="144.7316157860492" fill="rgb(0, 0, 0)" stroke="rgb(60, 60, 60)" stroke-width="1px" opacity="0.25"></line><line x1="0" y1="107.70562933307627" x2="909.5" y2="107.70562933307627" fill="rgb(0, 0, 0)" stroke="rgb(60, 60, 60)" stroke-width="1px" opacity="0.25"></line><line x1="0" y1="70.67964288010342" x2="909.5" y2="70.67964288010342" fill="rgb(0, 0, 0)" stroke="rgb(60, 60, 60)" stroke-width="1px" opacity="0.25"></line><line x1="0" y1="33.6536564271305" x2="909.5" y2="33.6536564271305" fill="rgb(0, 0, 0)" stroke="rgb(60, 60, 60)" stroke-width="1px" opacity="0.25"></line></g></g></g><g><g><line x1="0" y1="366.8875345038865" x2="909.5" y2="366.8875345038865" fill="rgb(0, 0, 0)" stroke="rgb(153, 153, 153)" stroke-width="1.5px"></line></g></g><g><g><line x1="45.434145571553536" y1="0" x2="45.434145571553536" y2="378" fill="rgb(0, 0, 0)" stroke="rgb(153, 153, 153)" stroke-width="1.5px"></line></g></g><g><g><g><g><g><path stroke="rgb(255, 112, 67)" stroke-width="2px" d="M45.434145571553536,26.976283951111782L46.873221593490875,7.543940497946835L48.312297615428214,10.722612621375788L49.75137363736556,20.365493288100197L51.19044965930289,24.299662711316103L52.62952568124023,31.521418588004508L54.06860170317757,22.69812068370976L55.50767772511491,44.37559614129361L56.94675374705225,37.70835311135801L58.38582976898959,55.2987793616586L59.82490579092693,54.2346204016917L61.26398181286426,76.87299197425165L62.7030578348016,78.69560315387815L64.14213385673895,75.65619315805452L65.58120987867629,91.90756337273228L67.02028590061363,110.83759828913765L68.45936192255097,102.7660889514467L69.89843794448831,95.4652997925619L71.33751396642565,121.86327052811362L72.77658998836299,118.1523607407234L74.21566601030031,105.28161234901052L75.65474203223765,94.05194213282618L77.09381805417499,98.53222081618685L78.53289407611233,100.91795718731305L79.97197009804967,97.8376730073087L81.411046119987,128.7887598026417L82.85012214192434,134.54361998823023L84.2891981638617,160.15574798249753L85.72827418579904,165.48069523822855L87.16735020773638,171.5236627927157L88.60642622967372,165.67075252295902L90.04550225161105,168.7428261913378L91.4845782735484,152.28085013397782L92.92365429548572,178.1062853272498L94.36273031742306,194.84360241278853L95.8018063393604,192.634512871314L97.24088236129774,217.7496791885429L98.67995838323507,228.90324237938782L100.11903440517241,198.8930886282514L101.55811042710975,204.56010235960693L102.99718644904709,222.5152814731264L104.43626247098445,206.9491475803667L105.87533849292178,177.41816903432118L107.31441451485912,211.41983866853693L108.75349053679646,201.51636770545068L110.1925665587338,202.72823949669657L111.63164258067113,216.7459436860176L113.07071860260847,216.1178831319284L114.50979462454582,230.19555439682154L115.94887064648316,229.19256450884018L117.3879466684205,224.2110476780563L118.82702269035784,228.00620496441744L120.26609871229518,229.14055929259854L121.70517473423251,246.72249007260083L123.14425075616985,243.25109289449762L124.58332677810719,244.74786453983654L126.02240280004453,239.15612001138498L127.46147882198187,231.89351985919853L128.9005548439192,237.6867670613072L130.33963086585655,236.36112245370447L131.77870688779387,237.31088247586246L133.21778290973123,239.70114515831392L134.65685893166855,223.9542981610073L136.0959349536059,237.1187789854496L137.53501097554323,262.95745226680856L138.97408699748058,268.8560635983134L140.4131630194179,229.07261155810687L141.85223904135523,260.6756457236558L143.2913150632926,272.20644548763045L144.7303910852299,277.3743887291144L146.16946710716726,284.04922790337514L147.6085431291046,300.29250072152183L149.04761915104194,283.53230217960805L150.48669517297927,294.3754360230986L151.92577119491662,266.67986077820854L153.36484721685397,270.91880815054367L154.80392323879133,266.83494533782016L156.24299926072865,272.79672035988494L157.68207528266598,277.77332483619L159.12115130460333,271.16607906476247L160.56022732654066,283.81854415253605L161.999303348478,280.2623346163627L163.43837937041533,296.1222448080389L164.8774553923527,278.94543124394283L166.31653141429,295.05875534355295L167.75560743622736,303.68444054455654L169.1946834581647,286.8476411369612L170.63375948010204,297.56831729054517L172.07283550203937,285.80718453907707L173.51191152397672,288.55982915149696L174.95098754591405,291.35978308087783L176.3900635678514,294.46096439178257L177.82913958978872,297.22163357567246L179.26821561172605,278.080290585782L180.7072916336634,272.0569646863077L182.14636765560073,274.0426439479485L183.58544367753808,272.05449802562526L185.0245196994754,287.48255296611353L186.46359572141276,296.48166136978L187.90267174335008,287.14085470788996L189.34174776528744,300.73677208760495L190.78082378722476,262.5639397346114L192.21989980916211,292.3780902300231L193.65897583109947,303.8843859994348L195.0980518530368,309.8009431820261L196.53712787497415,316.62457503297037L197.97620389691147,321.1912569397133L199.41527991884882,324.2314186079117L200.85435594078615,326.01195628944106L202.2934319627235,323.46461245117416L203.73250798466083,307.33971550884246L205.17158400659818,280.64736594707455L206.6106600285355,295.8931195666016L208.04973605047286,309.1745333517803L209.48881207241018,312.3729454717899L210.92788809434754,316.5401945847239L212.36696411628486,303.44340093148264L213.80604013822222,314.00251853681135L215.24511616015954,315.3158622862232L216.68419218209687,323.5500192138094L218.12326820403422,313.6002727488211L219.56234422597154,291.55054166513594L221.0014202479089,297.6731735915823L222.44049626984622,282.3474290420109L223.87957229178357,299.5951417240355L225.3186483137209,311.2040588047694L226.75772433565825,315.5080900057205L228.19680035759558,316.224826636154L229.63587637953293,320.58593617239626L231.07495240147026,308.2610915017026L232.5140284234076,295.2094505793908L233.95310444534493,301.01549768406943L235.3921804672823,300.19732253569293L236.8312564892196,314.002625618391L238.27033251115694,320.42142340039277L239.7094085330943,324.5073687220155L241.14848455503162,306.0602479180675L242.58756057696897,286.7720352567084L244.0266365989063,294.1623098985984L245.46571262084365,306.70506458699606L246.90478864278097,309.80557642571654L248.34386466471832,321.23582503841925L249.78294068665565,327.15798132500544L251.222016708593,328.46057184375127L252.66109273053038,326.19713763927405L254.1001687524677,296.4932087807726L255.53924477440506,299.0271666141611L256.9783207963424,288.41034148598806L258.4173968182797,300.65937804720687L259.85647284021707,316.0903404538156L261.2955488621544,317.29883505311244L262.7346248840918,323.207132063026L264.17370090602907,320.8119976352071L265.6127769279664,323.4915664461365L267.0518529499038,323.74273719357325L268.49092897184113,328.4089888029557L269.9300049937784,330.1940293782039L271.3690810157158,331.4002797038447L272.80815703765313,329.06608940688955L274.2472330595904,310.08576556140207L275.6863090815278,321.3144505309125L277.12538510346513,308.3524713242398L278.5644611254025,323.192536664587L280.0035371473398,314.743557148166L281.44261316927714,325.9803979682489L282.8816891912145,326.1855953712334L284.32076521315184,327.77745807414925L285.75984123508914,330.60720411317646L287.1989172570265,330.1441224892368L288.63799327896385,329.0029910814012L290.0770693009012,331.99560014907036L291.5161453228385,335.1763879632116L292.95522134477585,334.89078521991183L294.3942973667132,337.7928457037499L295.8333733886505,338.7550742729793L297.27244941058785,333.1020226684271L298.7115254325252,310.80091036767203L300.15060145446256,319.9294831462621L301.58967747639986,323.06911989316313L303.0287534983372,328.3069921331803L304.46782952027456,328.47673401924175L305.9069055422119,326.71113858627194L307.3459815641492,315.9641194851826L308.78505758608657,307.4195804681667L310.2241336080239,320.7205819280378L311.6632096299612,329.17124139124564L313.10228565189857,322.83140117988614L314.5413616738359,328.23240044910654L315.9804376957733,328.4449253356952L317.4195137177106,333.45006567777614L318.8585897396479,331.1164609414415L320.2976657615853,327.58802280510486L321.73674178352263,324.85783425430674L323.17581780545993,319.9178216067493L324.6148938273973,326.6390662551488L326.05396984933464,315.06337896342023L327.493045871272,325.30307430225594L328.9321218932093,321.1576280058537L330.37119791514664,324.6137002627135L331.810273937084,321.79411368787487L333.24934995902134,325.5277314701321L334.6884259809587,323.4812329081751L336.12750200289605,326.2478476528154L337.5665780248334,328.0497275079342L339.0056540467707,328.30238230745465L340.44473006870805,330.669281549866L341.8838060906454,337.81928868534527L343.32288211258276,330.05596248361803L344.76195813452006,314.51254510697635L346.2010341564574,324.4693339059435L347.64011017839476,331.0368111041046L349.07918620033206,333.1778497921203L350.5182622222694,334.6165012441673L351.95733824420677,333.11902841688715L353.3964142661441,330.3919431366056L354.8354902880814,335.01437944162234L356.27456631001877,330.3912696397289L357.7136423319561,332.3468413246086L359.1527183538935,322.50354941105996L360.5917943758308,330.56950420575185L362.0308703977681,333.7842261924999L363.4699464197055,335.2689824341044L364.90902244164283,333.53423181867544L366.34809846358013,293.96626796892417L367.7871744855175,311.9719150910377L369.22625050745484,324.6561570636915L370.66532652939213,323.26695208738187L372.1044025513295,326.7173426833571L373.54347857326684,323.0548881233975L374.9825545952042,321.792312223326L376.4216306171415,327.2916773204184L377.86070663907884,330.84900257771955L379.2997826610162,333.43753682882635L380.73885868295355,309.6904421073823L382.17793470489084,319.34340133776226L383.6170107268282,326.7086457070295L385.05608674876555,329.0146681630777L386.49516277070285,329.0480839785548L387.9342387926402,328.7131207775271L389.37331481457755,306.2150354533518L390.8123908365149,318.008028768751L392.2514668584522,323.7511256863471L393.69054288038956,323.9306125662571L395.1296189023269,329.2771984439826L396.56869492426426,330.22449615304436L398.00777094620156,335.6013533001512L399.4468469681389,338.7748404729659L400.88592299007627,324.7111795086586L402.3249990120136,331.8649494977179L403.7640750339509,330.7082061722074L405.20315105588827,307.65745108204527L406.6422270778256,323.4262857792021L408.0813030997629,330.4209221992078L409.5203791217003,332.4630933062965L410.9594551436376,337.130199433938L412.39853116557504,330.70399050675655L413.83760718751233,327.9578568910016L415.2766832094497,329.7115451591429L416.71575923138704,336.69629236442415L418.1548352533244,336.61602300900995L419.5939112752617,338.8793125266356L421.03298729719904,331.73036796829655L422.4720633191364,331.0833032720811L423.9111393410737,330.48418876093797L425.35021536301105,329.71147149176693L426.7892913849484,332.8612731143076L428.22836740688575,335.86415966998663L429.66744342882305,338.7286358891647L431.1065194507604,339.8089233543395L432.54559547269776,341.9820350064126L433.9846714946351,329.51429972629074L435.4237475165724,334.37501797855043L436.86282353850976,335.13366092529736L438.3018995604471,334.5759696361863L439.74097558238446,333.649071000368L441.18005160432176,332.66719173172646L442.6191276262591,339.25834763298116L444.05820364819647,340.6986910438769L445.49727967013376,337.6954552347846L446.9363556920711,340.09630445465876L448.37543171400847,342.3936458554749L449.8145077359458,334.5073535182474L451.2535837578831,334.4541682273862L452.6926597798205,336.9337865614288L454.1317358017578,335.39116226558275L455.5708118236952,340.741826007653L457.0098878456325,313.56361169079844L458.4489638675699,323.9283862838905L459.8880398895072,315.45261210124744L461.32711591144454,325.946532239165L462.76619193338183,332.8749082948492L464.20526795531924,336.11331604616953L465.64434397725654,331.12090137220287L467.0834199991939,332.90165990501094L468.5224960211312,334.9069200525746L469.9615720430686,333.11799581426675L471.4006480650059,335.1171552090647L472.83972408694314,328.154877330089L474.27880010888055,333.9906286389441L475.71787613081784,338.7771923405971L477.15695215275525,338.47561733615186L478.5960281746925,332.7185462595435L480.0351041966299,338.2398221365333L481.4741802185672,336.35387399525433L482.91325624050455,337.2428445358566L484.35233226244185,334.7071479504753L485.79140828437926,339.1761477147057L487.23048430631655,341.061380954907L488.6695603282539,342.09759858840573L490.1086363501912,341.858455633192L491.5477123721286,341.71406237424316L492.9867883940659,345.38678989123383L494.42586441600326,344.45028958639455L495.86494043794056,344.39625024836846L497.30401645987797,343.3223789686589L498.74309248181527,343.6501451248752L500.1821685037526,342.39957891775555L501.6212445256899,338.00148235276697L503.0603205476273,342.0774170852612L504.4993965695646,341.86438980930603L505.938472591502,336.2760794249194L507.3775486134393,338.3675391914763L508.8166246353767,341.66379487099516L510.255700657314,339.63200473678745L511.69477667925133,328.7898959296764L513.1338527011886,331.95861028415794L514.572928723126,335.94380134096536L516.0120047450633,325.6727719696699L517.4510807670007,326.17401128700857L518.8901567889379,331.0745526207887L520.3292328108754,315.8522189190667L521.7683088328126,328.73207936741L523.2073848547501,334.17704732867037L524.6464608766873,336.78218139419033L526.0855368986247,339.2964531599428L527.524612920562,340.2047620185435L528.9636889424994,334.86949345336535L530.4027649644366,328.44277601288456L531.8418409863741,333.59969768509785L533.2809170083115,338.8361309256144L534.7199930302487,342.3611109031649L536.1590690521862,338.32168400905L537.5981450741234,338.09327420824934L539.0372210960608,340.17704175228073L540.4762971179981,340.6135007744275L541.9153731399355,339.36140805927914L543.3544491618728,343.2182481956622L544.7935251838102,345.21858746603004L546.2326012057474,342.7249819304425L547.6716772276849,343.6934872447877L549.1107532496221,347.28257895136556L550.5498292715595,346.53559559205587L551.9889052934968,346.42891826760354L553.4279813154342,344.4799487105191L554.8670573373715,340.842486617614L556.3061333593089,331.52616798700757L557.7452093812461,333.1755020754211L559.1842854031836,329.6933640993526L560.6233614251208,335.53825244225226L562.0624374470582,335.32028242551763L563.5015134689955,337.69673755141537L564.9405894909329,335.34153741014916L566.3796655128701,341.8547643018628L567.8187415348076,345.2426651577242L569.2578175567448,341.4193000945215L570.6968935786823,337.5708192865537L572.1359696006195,338.8176274785744L573.5750456225569,342.05525461554527L575.0141216444943,344.63941560454435L576.4531976664316,341.9434449415932L577.8922736883688,338.8485674357588L579.3313497103063,339.0597679253605L580.7704257322436,339.1058688737329L582.2095017541809,339.07862478507224L583.6485777761183,339.36088424595295L585.0876537980556,341.2239361473524L586.526729819993,338.4553762811702L587.9658058419303,340.2029915669684L589.4048818638676,342.6338904567956L590.843957885805,344.8745427375655L592.2830339077423,342.57359181318674L593.7221099296796,339.352793969137L595.161185951617,340.6041258039033L596.6002619735543,334.06825161827317L598.0393379954917,337.5613015155645L599.478414017429,338.4130227723984L600.9174900393663,333.70770979794935L602.3565660613037,330.2921406933071L603.795642083241,337.95551191776616L605.2347181051783,338.87381948033146L606.6737941271157,341.75767887625796L608.112870149053,342.1754776443351L609.5519461709903,340.2332205976215L610.9910221929277,342.81379552073486L612.430098214865,336.8803513807481L613.8691742368025,339.24154866161075L615.3082502587398,342.3659844405889L616.747326280677,344.9415102722108L618.1864023026145,345.26874745529454L619.6254783245518,343.49710400890143L621.0645543464891,346.9136826408935L622.5036303684265,345.59673242559984L623.9427063903638,345.23353331570286L625.381782412301,346.1565791759848L626.8208584342385,345.4596009771213L628.2599344561758,318.95486408766527L629.6990104781132,329.54554930055474L631.1380865000505,335.6916292262455L632.5771625219878,337.51987192729996L634.0162385439252,336.41562700358566L635.4553145658625,336.92518873526853L636.8943905877998,336.28930012522324L638.3334666097372,337.0485592628277L639.7725426316745,343.0035550895235L641.2116186536118,342.4881601783518L642.6506946755492,343.1297720439858L644.0897706974865,343.06713396454853L645.5288467194239,337.45163408260163L646.9679227413612,339.70070598752216L648.4069987632985,330.57518154599853L649.8460747852359,336.542707994378L651.2851508071732,328.7233770977846L652.7242268291105,332.3759906239305L654.1633028510479,335.56137223861253L655.6023788729852,336.13743391558916L657.0414548949226,339.717187250878L658.48053091686,345.34267957767094L659.9196069387972,347.8992907014094L661.3586829607347,343.57925984965243L662.7977589826719,346.4943158630588L664.2368350046092,339.93227087956564L665.6759110265466,339.9859059353476L667.114987048484,344.0325097477278L668.5540630704212,345.7164071085715L669.9931390923587,343.7037725447398L671.4322151142959,346.2049945474066L672.8712911362334,338.2214846806619L674.3103671581706,338.65005429128286L675.749443180108,342.2247135116391L677.1885192020453,346.1487017324605L678.6275952239827,348.4269965057309L680.0666712459199,346.11765932732015L681.5057472678574,349.3717844928651L682.9448232897946,345.8974975628563L684.383899311732,341.3746769652896L685.8229753336693,338.35680948397106L687.2620513556067,342.95487815416914L688.701127377544,346.3145512407196L690.1402033994814,347.9196637333993L691.5792794214186,345.4871989492508L693.0183554433561,345.8148732188635L694.4574314652934,345.82364163384125L695.8965074872307,345.9160877057841L697.3355835091681,340.17586502280005L698.7746595311054,344.3430911204681L700.2137355530427,344.39540009151347L701.6528115749801,345.48805659615897L703.0918875969174,347.8757527949322L704.5309636188548,343.9357585521948L705.9700396407922,342.98867717477845L707.4091156627294,345.9262473445541L708.8481916846669,343.6767642662331L710.2872677066041,342.2881295063503L711.7263437285415,337.4905590605629L713.1654197504788,338.98459774235045L714.6044957724162,344.298838479858L716.0435717943534,335.66608632356764L717.4826478162909,334.26600259697216L718.9217238382281,332.9501077571317L720.3607998601656,339.59577520414746L721.7998758821028,341.1101221501625L723.2389519040402,344.51140672013065L724.6780279259775,345.9736718475111L726.1171039479149,347.71560643642874L727.5561799698521,349.11873962567637L728.9952559917896,349.34719726007745L730.4343320137268,348.6968968885142L731.8734080356642,344.3749718477481L733.3124840576015,341.2202744844945L734.7515600795389,343.0717439748456L736.1906361014762,343.76895620264196L737.6297121234136,345.57020294689767L739.0687881453508,346.4398966277316L740.5078641672883,343.92894465874855L741.9469401892255,344.41012618155474L743.3860162111629,340.5581962222942L744.8250922331002,336.448936660973L746.2641682550376,340.00627180151L747.7032442769749,339.71000919157314L749.1423202989123,338.22779831496484L750.5813963208495,339.9121234689294L752.020472342787,342.85502705983026L753.4595483647242,340.0710590385749L754.8986243866616,336.4470145026072L756.337700408599,342.9272694590504L757.7767764305363,340.2892731115597L759.2158524524735,343.86871933998356L760.654928474411,346.1744774629215L762.0940044963482,347.54165408908483L763.5330805182857,347.094194605017L764.972156540223,345.9759520170072L766.4112325621603,347.72783117588546L767.8503085840977,349.3735342000915L769.289384606035,345.799992308429L770.7284606279723,342.18546754517513L772.1675366499097,341.6486000457918L773.6066126718471,345.5720089494619L775.0456886937843,347.1682803263638L776.4847647157218,347.0533059294878L777.923840737659,347.5813537409962L779.3629167595965,343.79159722520626L780.8019927815337,342.22665005236047L782.2410688034711,341.2842672008377L783.6801448254084,345.89920016981023L785.1192208473458,339.4118130554556L786.558296869283,339.80930778631796L787.9973728912205,344.35272456125347L789.4364489131577,347.26671388034305L790.8755249350951,347.6358653238826L792.3146009570324,347.4021620085985L793.7536769789698,348.1858594548687L795.1927530009071,347.1632715160737L796.6318290228445,348.181061874108L798.0709050447817,345.9130399359908L799.5099810667192,347.023148939512L800.9490570886564,347.69874894556574L802.3881331105938,347.22934275936115L803.8272091325312,346.50995472392833L805.2662851544685,346.01320185012446L806.7053611764059,348.73391901039014L808.1444371983432,349.3022342581503L809.5835132202805,348.5464388688648L811.0225892422179,347.7185513472869L812.4616652641552,340.12195485854426L813.9007412860925,342.17845560332853L815.3398173080299,344.5165904464455L816.7788933299672,346.4475610095245L818.2179693519045,346.99520482513583L819.6570453738419,348.53121194516314L821.0961213957792,344.69823740975204L822.5351974177166,346.3915357794462L823.9742734396539,349.0192435169851L825.4133494615912,350.148148553918L826.8524254835286,347.56892185850745L828.2915015054659,343.23247216874887L829.7305775274032,345.99229129495933L831.1696535493406,344.3025191319698L832.6087295712779,341.52920678843776L834.0478055932152,346.23386165108946L835.4868816151526,340.38864520784983L836.9259576370899,344.3270685622543L838.3650336590273,346.3705081875189L839.8041096809646,346.14214479107886L841.2431857029019,348.95048745012855L842.6822617248393,348.96423467243267L844.1213377467766,351.167651304765L845.5604137687139,351.10417417900464L846.9994897906513,350.8277574095413L848.4385658125886,347.7797337940065L849.877641834526,347.04009046252446L851.3167178564634,348.2201518226898L852.7557938784007,346.5720969739014L854.1948699003381,348.32502378520076L855.6339459222754,347.1946945524623L857.0730219442127,346.5932272341501L858.5120979661501,348.373144029594L859.9511739880874,349.67503194576693L861.3902500100247,347.14314300392596L862.8293260319621,340.6296123431267L864.2684020538994,342.59145545472916L865.7074780758367,344.7682674756946L867.1465540977741,346.9173751173259L868.5856301197114,342.1779933168619L870.0247061416488,345.48182149053247L871.4637821635861,343.4269286680533L872.9028581855234,344.13348226361245L874.3419342074608,344.329225169263L875.7810102293981,344.00598308629714L877.2200862513354,346.91741194179707L878.6591622732728,349.58885323851996L880.0982382952101,347.8990134141712L881.5373143171474,350.4428727216737L882.9763903390848,347.4817704994794L884.4154663610221,342.72666160685077L885.8545423829595,346.46211493912676L887.2936184048968,344.6863942444831" style="fill: none;" fill="none"></path></g></g></g></g><g opacity="0.2"><g><g><g><path stroke="rgb(255, 112, 67)" stroke-width="2px" d="M45.434145571553536,26.976283951111782L46.873221593490875,-4.115465573952065L48.312297615428214,13.774137859867608L49.75137363736556,31.705520952168058L51.19044965930289,29.436114310267044L52.62952568124023,41.51170679758019L54.06860170317757,10.080663507801717L55.50767772511491,75.9815634622152L56.94675374705225,27.875464687489227L58.38582976898959,81.41851228471796L59.82490579092693,52.6480338051864L61.26398181286426,110.70735231470422L62.7030578348016,81.42356878158614L64.14213385673895,71.10303268491083L65.58120987867629,116.2655158191144L67.02028590061363,139.21929973648307L68.45936192255097,90.66224053715433L69.89843794448831,84.51596972381134L71.33751396642565,161.456205166295L72.77658998836299,112.58633525149156L74.21566601030031,85.97619562387166L75.65474203223765,77.20780632563157L77.09381805417499,105.2525503859406L78.53289407611233,104.4965334826806L79.97197009804967,93.21726863064373L81.411046119987,175.21525800339427L82.85012214192434,143.17589554150317L84.2891981638617,198.5739006532489L85.72827418579904,173.46811121679613L87.16735020773638,180.58811078459007L88.60642622967372,156.89138905921268L90.04550225161105,173.3509360826661L91.4845782735484,127.58788801316723L92.92365429548572,216.84443626733466L94.36273031742306,219.94957732178082L95.8018063393604,189.32087861606595L97.24088236129774,255.4224282758135L98.67995838323507,245.63358706211687L100.11903440517241,153.87785816869706L101.55811042710975,213.0606229377018L102.99718644904709,249.4480501074033L104.43626247098445,183.5999467599544L105.87533849292178,133.1217012365697L107.31441451485912,262.42234310513425L108.75349053679646,186.66116126339477L110.1925665587338,204.54604718337646L111.63164258067113,237.77249996868775L113.07071860260847,215.1757923008299L114.50979462454582,251.3120612936871L115.94887064648316,227.6880796768885L117.3879466684205,216.73877243194084L118.82702269035784,233.6989408939315L120.26609871229518,230.84209078486526L121.70517473423251,273.0953862425582L123.14425075616985,238.04399712734826L124.58332677810719,246.99302200784356L126.02240280004453,230.7685032187108L127.46147882198187,220.99961963092133L128.9005548439192,246.37663786446902L130.33963086585655,234.37265554230046L131.77870688779387,238.73552250909935L133.21778290973123,243.28653918199106L134.65685893166855,200.3340276650478L136.0959349536059,256.86550022211287L137.53501097554323,301.71546218884674L138.97408699748058,277.7039805955706L140.4131630194179,169.39743349779718L141.85223904135523,308.08019697197915L143.2913150632926,289.5026451335924L144.7303910852299,285.1263035913403L146.16946710716726,294.0614866647662L147.6085431291046,324.6574099487418L149.04761915104194,258.39200436673747L150.48669517297927,310.6401367883343L151.92577119491662,225.13649791087346L153.36484721685397,277.27722920904637L154.80392323879133,260.70915111873484L156.24299926072865,281.73938289298206L157.68207528266598,285.23823155064764L159.12115130460333,261.25521040762123L160.56022732654066,302.79724178419633L161.999303348478,274.9280203121026L163.43837937041533,319.9121100955533L164.8774553923527,253.18021089779876L166.31653141429,319.2287414929681L167.75560743622736,316.62296834606184L169.1946834581647,261.59244202556835L170.63375948010204,313.6493315209211L172.07283550203937,268.16548541187495L173.51191152397672,292.68879607012667L174.95098754591405,295.5597139749491L176.3900635678514,299.1127363581397L177.82913958978872,301.36263735150726L179.26821561172605,249.3682761009464L180.7072916336634,263.0219758370963L182.14636765560073,277.0211628404096L183.58544367753808,269.0722791421405L185.0245196994754,310.6246353768459L186.46359572141276,309.98032397527965L187.90267174335008,273.1296447150549L189.34174776528744,321.13064815717746L190.78082378722476,205.30469120512106L192.21989980916211,337.0993159731406L193.65897583109947,321.1438296535525L195.0980518530368,318.67577895591313L196.53712787497415,326.8600228093867L197.97620389691147,328.04127979982763L199.41527991884882,328.79166111020936L200.85435594078615,328.6827628117351L202.2934319627235,319.6435966937738L203.73250798466083,283.15237009534496L205.17158400659818,240.60884160442262L206.6106600285355,318.76174999589216L208.04973605047286,329.09665402954846L209.48881207241018,317.1705636518042L210.92788809434754,322.791068254125L212.36696411628486,283.79821045162066L213.80604013822222,329.8411949448045L215.24511616015954,317.28587791034096L216.68419218209687,335.9012546051887L218.12326820403422,298.6756530513387L219.56234422597154,258.4759450396081L221.0014202479089,306.85712148125185L222.44049626984622,259.35881221765374L223.87957229178357,325.4667107470724L225.3186483137209,328.6174344258702L226.75772433565825,321.9641368071471L228.19680035759558,317.29993158180423L229.63587637953293,327.1276004767597L231.07495240147026,289.7738244956621L232.5140284234076,275.6319891959232L233.95310444534493,309.72456834108726L235.3921804672823,298.9700598131283L236.8312564892196,334.710580242438L238.27033251115694,330.0496200733954L239.7094085330943,330.63628670444956L241.14848455503162,278.3895667121455L242.58756057696897,257.83971626466985L244.0266365989063,305.2477218614333L245.46571262084365,325.51919661959255L246.90478864278097,314.45634418379734L248.34386466471832,338.38119795747326L249.78294068665565,336.04121575488466L251.222016708593,330.41445762187004L252.66109273053038,322.8019863325582L254.1001687524677,251.93731549302038L255.53924477440506,302.8281033642438L256.9783207963424,272.4851037937285L258.4173968182797,319.03293288903507L259.85647284021707,339.23678406372863L261.2955488621544,319.1115769520577L262.7346248840918,332.0695775778963L264.17370090602907,317.21929599347874L265.6127769279664,327.51091966253057L267.0518529499038,324.11949331472835L268.49092897184113,335.4083662170294L269.9300049937784,332.8715902410761L271.3690810157158,333.2096551923059L272.80815703765313,325.5648039614568L274.2472330595904,281.6152797931709L275.6863090815278,338.15747798517805L277.12538510346513,288.9095025142308L278.5644611254025,345.45263467510784L280.0035371473398,302.0700878735346L281.44261316927714,342.83565919837315L282.8816891912145,326.49339147571015L284.32076521315184,330.16525212852304L285.75984123508914,334.8518231717173L287.1989172570265,329.44950005332737L288.63799327896385,327.2912939696479L290.0770693009012,336.484513750574L291.5161453228385,339.94756968442357L292.95522134477585,334.4623811049621L294.3942973667132,342.14593642950695L295.8333733886505,340.1984171268235L297.27244941058785,324.6224452615987L298.7115254325252,277.34924191653937L300.15060145446256,333.6223423141472L301.58967747639986,327.77857501351474L303.0287534983372,336.1638004932061L304.46782952027456,328.7313468483339L305.9069055422119,324.0627454368172L307.3459815641492,299.8435908335486L308.78505758608657,294.602771942643L310.2241336080239,340.6720841178444L311.6632096299612,341.84723058605744L313.10228565189857,313.32164086284683L314.5413616738359,336.3338993529371L315.9804376957733,328.7637126655782L317.4195137177106,340.9577761908975L318.8585897396479,327.6160538369396L320.2976657615853,322.29536560059984L321.73674178352263,320.76255142810965L323.17581780545993,312.50780263541316L324.6148938273973,336.72093322774805L326.05396984933464,297.69984802582735L327.493045871272,340.6626173105095L328.9321218932093,314.93945856125043L330.37119791514664,329.7978086480031L331.810273937084,317.56473382561694L333.24934995902134,331.12815814351796L334.6884259809587,320.4114850652397L336.12750200289605,330.3977697697757L337.5665780248334,330.7525472906125L339.0056540467707,328.68136450673524L340.44473006870805,334.2196304134832L341.8838060906454,348.5442993885641L343.32288211258276,318.41097318102726L344.76195813452006,291.19741904201385L346.2010341564574,339.4045171043942L347.64011017839476,340.8880269013462L349.07918620033206,336.38940782414386L350.5182622222694,336.7744784222378L351.95733824420677,330.872819175967L353.3964142661441,326.3013152161833L354.8354902880814,341.9480338991474L356.27456631001877,323.45660493688865L357.7136423319561,335.2801988519282L359.1527183538935,307.73861154073705L360.5917943758308,342.6684363977896L362.0308703977681,338.6063091726219L363.4699464197055,337.49611679651116L364.90902244164283,330.93210589553195L366.34809846358013,234.61432219429724L367.7871744855175,338.98038577420806L369.22625050745484,343.6825200226723L370.66532652939213,321.1831446229173L372.1044025513295,331.89292857732005L373.54347857326684,317.5612062834582L374.9825545952042,319.89844837321874L376.4216306171415,335.540724966057L377.86070663907884,336.1849904636712L379.2997826610162,337.32033820548656L380.73885868295355,274.0698000252162L382.17793470489084,333.8228401833323L383.6170107268282,337.7565122609304L385.05608674876555,332.47370184715004L386.49516277070285,329.09820770177055L387.9342387926402,328.2106759759854L389.37331481457755,272.4679074670888L390.8123908365149,335.6975187418499L392.2514668584522,332.3657710627413L393.69054288038956,324.1998428861221L395.1296189023269,337.2970772605709L396.56869492426426,331.645442716637L398.00777094620156,343.66663902081143L399.4468469681389,343.5350712321878L400.88592299007627,303.6156880621977L402.3249990120136,342.5956044813068L403.7640750339509,328.97309118394173L405.20315105588827,273.081318446802L406.6422270778256,347.07953782493735L408.0813030997629,340.91287682921626L409.5203791217003,335.5263499669296L410.9594551436376,344.1308586254002L412.39853116557504,321.0646771159844L413.83760718751233,323.8386564673692L415.2766832094497,332.34207756135476L416.71575923138704,347.17341317234616L418.1548352533244,336.4956189758886L419.5939112752617,342.27424680307405L421.03298729719904,321.00695113078797L422.4720633191364,330.11270622775794L423.9111393410737,329.5855169942232L425.35021536301105,328.55239558801037L426.7892913849484,337.58597554811865L428.22836740688575,340.3684895035052L429.66744342882305,343.02535021793176L431.1065194507604,341.42935455210176L432.54559547269776,345.24170248452225L433.9846714946351,310.81269680610797L435.4237475165724,341.6660953569399L436.86282353850976,336.2716253454179L438.3018995604471,333.73943270251965L439.74097558238446,332.2587230466406L441.18005160432176,331.1943728287641L442.6191276262591,349.14508148486317L444.05820364819647,342.8592061602206L445.49727967013376,333.19060152114616L446.9363556920711,343.69757828447007L448.37543171400847,345.83965795669906L449.8145077359458,322.6779150124061L451.2535837578831,334.3743902910944L452.6926597798205,340.65321406249274L454.1317358017578,333.0772258218137L455.5708118236952,348.76782162075835L457.0098878456325,272.79629021551654L458.4489638675699,339.4755481735287L459.8880398895072,302.7389508272828L461.32711591144454,341.6874124460414L462.76619193338183,343.26747237837543L464.20526795531924,340.97092767315L465.64434397725654,323.6322793612529L467.0834199991939,335.5727977042231L468.5224960211312,337.91481027392007L469.9615720430686,330.434609456805L471.4006480650059,338.1158943012617L472.83972408694314,317.71146051162543L474.27880010888055,342.7442556022267L475.71787613081784,345.9570378930766L477.15695215275525,338.023254829484L478.5960281746925,324.0829396446309L480.0351041966299,346.521735952018L481.4741802185672,333.52495178333595L482.91325624050455,338.5763003467599L484.35233226244185,330.9036030724034L485.79140828437926,345.87964736105124L487.23048430631655,343.88923081520903L488.6695603282539,343.65192503865376L490.1086363501912,341.49974120037143L491.5477123721286,341.4974724858199L492.9867883940659,350.8958811667198L494.42586441600326,343.0455391291356L495.86494043794056,344.31519124132933L497.30401645987797,341.71157204909457L498.74309248181527,344.14179435919965L500.1821685037526,340.523729607076L501.6212445256899,331.4043375052841L503.0603205476273,348.19131918400245L504.4993965695646,341.5448488953734L505.938472591502,327.89361384833944L507.3775486134393,341.5047288413116L508.8166246353767,346.60817839027345L510.255700657314,336.5843195354759L511.69477667925133,312.52673271900983L513.1338527011886,336.71168181588024L514.572928723126,341.92158792617647L516.0120047450633,310.26622791272666L517.4510807670007,326.9258702630167L518.8901567889379,338.4253646214589L520.3292328108754,293.01871836648354L521.7683088328126,348.05187003992506L523.2073848547501,342.34449927056096L524.6464608766873,340.68988249247025L526.0855368986247,343.06786080857154L527.524612920562,341.56722530644447L528.9636889424994,326.86659060559816L530.4027649644366,318.80269985216347L531.8418409863741,341.3350801934177L533.2809170083115,346.6907807863892L534.7199930302487,347.64858086949073L536.1590690521862,332.2625436678776L537.5981450741234,337.75065950704834L539.0372210960608,343.3026930683278L540.4762971179981,341.2681893076477L541.9153731399355,337.4832689865566L543.3544491618728,349.00350840023674L544.7935251838102,348.2190963715818L546.2326012057474,338.9845736270612L547.6716772276849,345.1462452163055L549.1107532496221,352.66621651123234L550.5498292715595,345.41512055309124L551.9889052934968,346.2689022809251L553.4279813154342,341.55649437489245L554.8670573373715,335.38629347825633L556.3061333593089,317.55169004109797L557.7452093812461,335.6495032080414L559.1842854031836,324.4701571352499L560.6233614251208,344.3055849566017L562.0624374470582,334.99332740041564L563.5015134689955,341.261420240262L564.9405894909329,331.8087371982499L566.3796655128701,351.6246046394332L567.8187415348076,350.3245164415164L569.2578175567448,335.68425249971733L570.6968935786823,331.79809807460197L572.1359696006195,340.6878397666055L573.5750456225569,346.9116953210016L575.0141216444943,348.51565708804293L576.4531976664316,337.8994889471665L577.8922736883688,334.2062511770072L579.3313497103063,339.37656865976305L580.7704257322436,339.17502029629145L582.2095017541809,339.03775865208127L583.6485777761183,339.784273437274L585.0876537980556,344.01851399945156L586.526729819993,334.3025364818968L587.9658058419303,342.8244144956659L589.4048818638676,346.28023879153636L590.843957885805,348.23552115872036L592.2830339077423,339.12216542661855L593.7221099296796,334.52159720306247L595.161185951617,342.48112355605275L596.6002619735543,324.26444033982796L598.0393379954917,342.8008763615015L599.478414017429,339.69060465764926L600.9174900393663,326.6497403362758L602.3565660613037,325.1687870363437L603.795642083241,349.45056875445476L605.2347181051783,340.25128082417945L606.6737941271157,346.08346797014764L608.112870149053,342.80217579645085L609.5519461709903,337.319835027551L610.9910221929277,346.68465790540495L612.430098214865,327.98018517076787L613.8691742368025,342.7833445829047L615.3082502587398,347.0526381090561L616.747326280677,348.80479901964367L618.1864023026145,345.75960322992023L619.6254783245518,340.83963883931176L621.0645543464891,352.03855058888166L622.5036303684265,343.6213071026593L623.9427063903638,344.68873465085744L625.381782412301,347.5411479664077L626.8208584342385,344.41413367882603L628.2599344561758,279.19775875348125L629.6990104781132,345.4315771198889L631.1380865000505,344.91074911478165L632.5771625219878,340.2622359788817L634.0162385439252,334.75925961801414L635.4553145658625,337.6895313327929L636.8943905877998,335.3354672101552L638.3334666097372,338.18744796923454L639.7725426316745,351.9360488295671L641.2116186536118,341.7150678115942L642.6506946755492,344.0921898424368L644.0897706974865,342.97317684539263L645.5288467194239,329.02838425968133L646.9679227413612,343.074313844903L648.4069987632985,316.886894883713L649.8460747852359,345.4939976669473L651.2851508071732,316.9943807528945L652.7242268291105,337.85491091314935L654.1633028510479,340.33944466063554L655.6023788729852,337.0015264310541L657.0414548949226,345.08681725381126L658.48053091686,353.7809180678603L659.9196069387972,351.73420738701725L661.3586829607347,337.0992135720169L662.7977589826719,350.86689988316834L664.2368350046092,330.0892034043259L665.6759110265466,340.06635851902064L667.114987048484,350.10241546629805L668.5540630704212,348.24225314983715L669.9931390923587,340.6848206989922L671.4322151142959,349.9568275514069L672.8712911362334,326.24621988054474L674.3103671581706,339.29290870721434L675.749443180108,347.58670234217345L677.1885192020453,352.0346840636926L678.6275952239827,351.8444386656366L680.0666712459199,342.6536535597039L681.5057472678574,354.25297224118253L682.9448232897946,340.6860671678431L684.383899311732,334.5904460689396L685.8229753336693,333.83000826199316L687.2620513556067,349.8519811594663L688.701127377544,351.3540608705453L690.1402033994814,350.3273324724189L691.5792794214186,341.838501773028L693.0183554433561,346.30638462328255L694.4574314652934,345.83679425630794L695.8965074872307,346.0547568136984L697.3355835091681,331.56553099832405L698.7746595311054,350.59393026697006L700.2137355530427,344.47386354808157L701.6528115749801,347.1270413531272L703.0918875969174,351.4572970930921L704.5309636188548,338.0257671880886L705.9700396407922,341.56805510865394L707.4091156627294,350.33260259921764L708.8481916846669,340.3025396487515L710.2872677066041,340.2051773665261L711.7263437285415,330.29420339188175L713.1654197504788,341.2256557650319L714.6044957724162,352.27019958611925L716.0435717943534,322.71695808913216L717.4826478162909,332.1658770070789L718.9217238382281,330.9762654973711L720.3607998601656,349.56427637467095L721.7998758821028,343.38164256918503L723.2389519040402,349.6133335750829L724.6780279259775,348.1670695385818L726.1171039479149,350.32850831980517L727.5561799698521,351.22343940954784L728.9952559917896,349.689883711679L730.4343320137268,347.72144633116926L731.8734080356642,337.892084286599L733.3124840576015,336.48822843961403L734.7515600795389,345.8489482103724L736.1906361014762,344.8147745443364L737.6297121234136,348.2720730632812L739.0687881453508,347.7444371489827L740.5078641672883,340.1625167052739L741.9469401892255,345.1318984657639L743.3860162111629,334.7803012834035L744.8250922331002,330.2850473189912L746.2641682550376,345.3422745123155L747.7032442769749,339.26561527666775L749.1423202989123,336.0044820000524L750.5813963208495,342.4386111998763L752.020472342787,347.26938244618157L753.4595483647242,335.8951070066918L754.8986243866616,331.0109476986556L756.337700408599,352.6476518937152L757.7767764305363,336.3322785903236L759.2158524524735,349.2378886826193L760.654928474411,349.63311464732845L762.0940044963482,349.59241902832986L763.5330805182857,346.4230053789152L764.972156540223,344.29858813499254L766.4112325621603,350.3556499142028L767.8503085840977,351.8420887364007L769.289384606035,340.4396794709352L770.7284606279723,336.7636804002944L772.1675366499097,340.8432987967167L773.6066126718471,351.45712230496713L775.0456886937843,349.56268739171657L776.4847647157218,346.8808443341738L777.923840737659,348.37342545825874L779.3629167595965,338.1069624515214L780.8019927815337,339.87922929309184L782.2410688034711,339.8706929235535L783.6801448254084,352.82159962326904L785.1192208473458,329.68073238392356L786.558296869283,340.40554988261147L787.9973728912205,351.1678497236568L789.4364489131577,351.6376978589774L790.8755249350951,348.189592489192L792.3146009570324,347.05160703567236L793.7536769789698,349.36140562427397L795.1927530009071,345.6293896078811L796.6318290228445,349.7077474111596L798.0709050447817,342.51100702881496L799.5099810667192,348.68831244479384L800.9490570886564,348.71214895464635L802.3881331105938,346.5252334800542L803.8272091325312,345.43087267077914L805.2662851544685,345.26807253941865L806.7053611764059,352.8149947507886L808.1444371983432,350.15470712979044L809.5835132202805,347.4127457849366L811.0225892422179,346.4767200649201L812.4616652641552,328.7270601254303L813.9007412860925,345.26320672050497L815.3398173080299,348.02379271112096L816.7788933299672,349.3440168541431L818.2179693519045,347.8166705485527L819.6570453738419,350.8352226252042L821.0961213957792,338.94877560663537L822.5351974177166,348.93148333398744L823.9742734396539,352.9608051232934L825.4133494615912,351.84150610931744L826.8524254835286,343.7000818153915L828.2915015054659,336.72779763411097L829.7305775274032,350.13201998427496L831.1696535493406,341.7678608874856L832.6087295712779,337.3692382731397L834.0478055932152,353.29084394506697L835.4868816151526,331.6208205429904L836.9259576370899,350.23470359386096L838.3650336590273,349.43566762541576L839.8041096809646,345.79959969641885L841.2431857029019,353.1630014387031L842.6822617248393,348.98485550588885L844.1213377467766,354.47277625326353L845.5604137687139,351.00895849036414L846.9994897906513,350.41313225534617L848.4385658125886,343.20769837070446L849.877641834526,345.9306254653013L851.3167178564634,349.99024386293775L852.7557938784007,344.1000147007189L854.1948699003381,350.95441400214975L855.6339459222754,345.4992007033546L857.0730219442127,345.69102625668194L858.5120979661501,351.0430192227598L859.9511739880874,351.6278638200263L861.3902500100247,343.34530959116455L862.8293260319621,330.85931635192793L864.2684020538994,345.53422012213275L865.7074780758367,348.03348550714276L867.1465540977741,350.14103657977284L868.5856301197114,335.0689206161659L870.0247061416488,350.4375637510383L871.4637821635861,340.3445894343345L872.9028581855234,345.19331265695115L874.3419342074608,344.62283952773885L875.7810102293981,343.5211199618483L877.2200862513354,351.284555225047L878.6591622732728,353.59601518360427L880.0982382952101,345.364253677648L881.5373143171474,354.2586616829276L882.9763903390848,343.0401171661879L884.4154663610221,335.59399826790786L885.8545423829595,352.06529493754067L887.2936184048968,342.0228132025177" style="fill: none;" fill="none"></path></g></g></g></g></g></g><g transform="translate(58, 378)" clip-path="url(#clip_1)"><clipPath id="clip_1"><rect width="909" height="22"></rect></clipPath><g><g><line x1="45.434145571553536" y1="0" x2="45.434145571553536" y2="5" style="visibility: inherit;" fill="rgb(0, 0, 0)" stroke="rgb(204, 204, 204)" stroke-width="1px"></line><line x1="102.99718644904709" y1="0" x2="102.99718644904709" y2="5" style="visibility: inherit;" fill="rgb(0, 0, 0)" stroke="rgb(204, 204, 204)" stroke-width="1px"></line><line x1="160.56022732654066" y1="0" x2="160.56022732654066" y2="5" style="visibility: inherit;" fill="rgb(0, 0, 0)" stroke="rgb(204, 204, 204)" stroke-width="1px"></line><line x1="218.12326820403422" y1="0" x2="218.12326820403422" y2="5" style="visibility: inherit;" fill="rgb(0, 0, 0)" stroke="rgb(204, 204, 204)" stroke-width="1px"></line><line x1="275.6863090815278" y1="0" x2="275.6863090815278" y2="5" style="visibility: inherit;" fill="rgb(0, 0, 0)" stroke="rgb(204, 204, 204)" stroke-width="1px"></line><line x1="333.24934995902134" y1="0" x2="333.24934995902134" y2="5" style="visibility: inherit;" fill="rgb(0, 0, 0)" stroke="rgb(204, 204, 204)" stroke-width="1px"></line><line x1="390.8123908365149" y1="0" x2="390.8123908365149" y2="5" style="visibility: inherit;" fill="rgb(0, 0, 0)" stroke="rgb(204, 204, 204)" stroke-width="1px"></line><line x1="448.37543171400847" y1="0" x2="448.37543171400847" y2="5" style="visibility: inherit;" fill="rgb(0, 0, 0)" stroke="rgb(204, 204, 204)" stroke-width="1px"></line><line x1="505.938472591502" y1="0" x2="505.938472591502" y2="5" style="visibility: inherit;" fill="rgb(0, 0, 0)" stroke="rgb(204, 204, 204)" stroke-width="1px"></line><line x1="563.5015134689955" y1="0" x2="563.5015134689955" y2="5" style="visibility: inherit;" fill="rgb(0, 0, 0)" stroke="rgb(204, 204, 204)" stroke-width="1px"></line><line x1="621.0645543464891" y1="0" x2="621.0645543464891" y2="5" style="visibility: inherit;" fill="rgb(0, 0, 0)" stroke="rgb(204, 204, 204)" stroke-width="1px"></line><line x1="678.6275952239827" y1="0" x2="678.6275952239827" y2="5" style="visibility: inherit;" fill="rgb(0, 0, 0)" stroke="rgb(204, 204, 204)" stroke-width="1px"></line><line x1="736.1906361014762" y1="0" x2="736.1906361014762" y2="5" style="visibility: inherit;" fill="rgb(0, 0, 0)" stroke="rgb(204, 204, 204)" stroke-width="1px"></line><line x1="793.7536769789698" y1="0" x2="793.7536769789698" y2="5" style="visibility: inherit;" fill="rgb(0, 0, 0)" stroke="rgb(204, 204, 204)" stroke-width="1px"></line><line x1="851.3167178564634" y1="0" x2="851.3167178564634" y2="5" style="visibility: inherit;" fill="rgb(0, 0, 0)" stroke="rgb(204, 204, 204)" stroke-width="1px"></line><line x1="908.8797587339568" y1="0" x2="908.8797587339568" y2="5" style="visibility: inherit;" fill="rgb(0, 0, 0)" stroke="rgb(204, 204, 204)" stroke-width="1px"></line></g><g transform="translate(0, 8)"><text x="45.434145571553536" y="0" dx="0em" dy="0.95em" style="text-anchor: middle; visibility: inherit; font-family: &quot;Helvetica Neue&quot;, sans-serif; font-size: 12px; font-weight: 200;" fill="rgb(50, 49, 63)" stroke="none" stroke-width="1px">0.000</text><text x="102.99718644904709" y="0" dx="0em" dy="0.95em" style="text-anchor: middle; visibility: inherit; font-family: &quot;Helvetica Neue&quot;, sans-serif; font-size: 12px; font-weight: 200;" fill="rgb(50, 49, 63)" stroke="none" stroke-width="1px">2.000k</text><text x="160.56022732654066" y="0" dx="0em" dy="0.95em" style="text-anchor: middle; visibility: inherit; font-family: &quot;Helvetica Neue&quot;, sans-serif; font-size: 12px; font-weight: 200;" fill="rgb(50, 49, 63)" stroke="none" stroke-width="1px">4.000k</text><text x="218.12326820403422" y="0" dx="0em" dy="0.95em" style="text-anchor: middle; visibility: inherit; font-family: &quot;Helvetica Neue&quot;, sans-serif; font-size: 12px; font-weight: 200;" fill="rgb(50, 49, 63)" stroke="none" stroke-width="1px">6.000k</text><text x="275.6863090815278" y="0" dx="0em" dy="0.95em" style="text-anchor: middle; visibility: inherit; font-family: &quot;Helvetica Neue&quot;, sans-serif; font-size: 12px; font-weight: 200;" fill="rgb(50, 49, 63)" stroke="none" stroke-width="1px">8.000k</text><text x="333.24934995902134" y="0" dx="0em" dy="0.95em" style="text-anchor: middle; visibility: inherit; font-family: &quot;Helvetica Neue&quot;, sans-serif; font-size: 12px; font-weight: 200;" fill="rgb(50, 49, 63)" stroke="none" stroke-width="1px">10.00k</text><text x="390.8123908365149" y="0" dx="0em" dy="0.95em" style="text-anchor: middle; visibility: inherit; font-family: &quot;Helvetica Neue&quot;, sans-serif; font-size: 12px; font-weight: 200;" fill="rgb(50, 49, 63)" stroke="none" stroke-width="1px">12.00k</text><text x="448.37543171400847" y="0" dx="0em" dy="0.95em" style="text-anchor: middle; visibility: inherit; font-family: &quot;Helvetica Neue&quot;, sans-serif; font-size: 12px; font-weight: 200;" fill="rgb(50, 49, 63)" stroke="none" stroke-width="1px">14.00k</text><text x="505.938472591502" y="0" dx="0em" dy="0.95em" style="text-anchor: middle; visibility: inherit; font-family: &quot;Helvetica Neue&quot;, sans-serif; font-size: 12px; font-weight: 200;" fill="rgb(50, 49, 63)" stroke="none" stroke-width="1px">16.00k</text><text x="563.5015134689955" y="0" dx="0em" dy="0.95em" style="text-anchor: middle; visibility: inherit; font-family: &quot;Helvetica Neue&quot;, sans-serif; font-size: 12px; font-weight: 200;" fill="rgb(50, 49, 63)" stroke="none" stroke-width="1px">18.00k</text><text x="621.0645543464891" y="0" dx="0em" dy="0.95em" style="text-anchor: middle; visibility: inherit; font-family: &quot;Helvetica Neue&quot;, sans-serif; font-size: 12px; font-weight: 200;" fill="rgb(50, 49, 63)" stroke="none" stroke-width="1px">20.00k</text><text x="678.6275952239827" y="0" dx="0em" dy="0.95em" style="text-anchor: middle; visibility: inherit; font-family: &quot;Helvetica Neue&quot;, sans-serif; font-size: 12px; font-weight: 200;" fill="rgb(50, 49, 63)" stroke="none" stroke-width="1px">22.00k</text><text x="736.1906361014762" y="0" dx="0em" dy="0.95em" style="text-anchor: middle; visibility: inherit; font-family: &quot;Helvetica Neue&quot;, sans-serif; font-size: 12px; font-weight: 200;" fill="rgb(50, 49, 63)" stroke="none" stroke-width="1px">24.00k</text><text x="793.7536769789698" y="0" dx="0em" dy="0.95em" style="text-anchor: middle; visibility: inherit; font-family: &quot;Helvetica Neue&quot;, sans-serif; font-size: 12px; font-weight: 200;" fill="rgb(50, 49, 63)" stroke="none" stroke-width="1px">26.00k</text><text x="851.3167178564634" y="0" dx="0em" dy="0.95em" style="text-anchor: middle; visibility: inherit; font-family: &quot;Helvetica Neue&quot;, sans-serif; font-size: 12px; font-weight: 200;" fill="rgb(50, 49, 63)" stroke="none" stroke-width="1px">28.00k</text><text x="908.8797587339568" y="0" dx="0em" dy="0.95em" style="text-anchor: middle; visibility: hidden; font-family: &quot;Helvetica Neue&quot;, sans-serif; font-size: 12px; font-weight: 200;" fill="rgb(50, 49, 63)" stroke="none" stroke-width="1px">30.00k</text></g><line x1="0" y1="0" x2="909.5" y2="0" fill="rgb(0, 0, 0)" stroke="rgb(204, 204, 204)" stroke-width="1px"></line></g></g></g></g></svg>